<svg width="360" height="397" viewBox="0 0 360 397" fill="none" xmlns="http://www.w3.org/2000/svg">
<path d="M360 0H0V397H360V0Z" fill="#EEEEEE"/>
<path d="M286.391 176.254H58.7022V176.341H286.391V176.254Z" fill="#EBEBEB"/>
<path d="M263.577 181.896H256.791V181.983H263.577V181.896Z" fill="#EBEBEB"/>
<path d="M209.532 182.847H205.574V182.935H209.532V182.847Z" fill="#EBEBEB"/>
<path d="M254.868 178.641H239.298V178.728H254.868V178.641Z" fill="#EBEBEB"/>
<path d="M108.625 180.45H88.9561V180.537H108.625V180.45Z" fill="#EBEBEB"/>
<path d="M119.773 180.45H112.68V180.537H119.773V180.45Z" fill="#EBEBEB"/>
<path d="M174.711 179.273H132.054V179.361H174.711V179.273Z" fill="#EBEBEB"/>
<path d="M166.633 160.619H78.699C78.0099 160.619 77.3491 160.408 76.8618 160.033C76.3745 159.658 76.1004 159.149 76.0996 158.618V63.467C76.1006 62.9366 76.3748 62.4281 76.8621 62.0531C77.3494 61.6781 78.01 61.4672 78.699 61.4667H166.633C167.322 61.4674 167.982 61.6784 168.469 62.0534C168.956 62.4284 169.23 62.9367 169.231 63.467V158.617C169.231 159.148 168.957 159.657 168.47 160.032C167.983 160.407 167.322 160.619 166.633 160.619ZM78.7 61.5544C78.0426 61.5559 77.4127 61.7576 76.9479 62.1154C76.483 62.4732 76.221 62.9581 76.2191 63.4642V158.617C76.221 159.123 76.483 159.608 76.9479 159.966C77.4127 160.324 78.0426 160.525 78.7 160.527H166.634C167.291 160.525 167.921 160.324 168.386 159.966C168.851 159.608 169.113 159.123 169.115 158.617V63.467C169.113 62.961 168.851 62.4761 168.386 62.1182C167.921 61.7604 167.291 61.5587 166.634 61.5572L78.7 61.5544Z" fill="#EBEBEB"/>
<path d="M265.13 160.619H177.196C176.507 160.619 175.846 160.408 175.359 160.033C174.872 159.657 174.598 159.149 174.597 158.618V63.467C174.598 62.9367 174.872 62.4282 175.359 62.0532C175.846 61.6782 176.507 61.4672 177.196 61.4667H265.13C265.819 61.4672 266.479 61.6781 266.967 62.0531C267.454 62.4281 267.728 62.9366 267.729 63.467V158.617C267.729 159.148 267.455 159.657 266.968 160.032C266.48 160.408 265.819 160.619 265.13 160.619ZM177.196 61.5544C176.539 61.5559 175.909 61.7576 175.444 62.1154C174.979 62.4732 174.717 62.9581 174.715 63.4642V158.617C174.717 159.123 174.979 159.608 175.444 159.966C175.909 160.324 176.539 160.525 177.196 160.527H265.13C265.788 160.526 266.419 160.325 266.885 159.967C267.351 159.609 267.613 159.124 267.615 158.617V63.467C267.613 62.9604 267.351 62.4749 266.885 62.117C266.419 61.7591 265.788 61.5578 265.13 61.5572L177.196 61.5544Z" fill="#EBEBEB"/>
<path d="M148.235 330H164.632V185.842H148.235V330Z" fill="#EEEEEE"/>
<path d="M154.007 330H148.235V302.612H160.059L154.007 330Z" fill="#F0F0F0"/>
<path d="M321.634 330H338.032V185.842H321.634V330Z" fill="#EEEEEE"/>
<path d="M148.235 322.523H326.671V185.842L148.235 185.842V322.523Z" fill="#F0F0F0"/>
<path d="M320.906 330H326.679V302.612H314.847L320.906 330Z" fill="#F0F0F0"/>
<path d="M267.843 197.159V310.225H320.739V197.159H267.843Z" fill="#EEEEEE"/>
<path d="M289.059 201.136H299.525C303.953 201.194 308.239 199.131 311.542 195.353H277.043C280.346 199.131 284.631 201.193 289.059 201.136V201.136Z" fill="#F0F0F0"/>
<path d="M211.005 197.159V310.225H263.901V197.159H211.005Z" fill="#EEEEEE"/>
<path d="M231.687 201.136H242.152C246.58 201.193 250.865 199.131 254.168 195.353H219.669C222.972 199.131 227.258 201.194 231.687 201.136V201.136Z" fill="#F0F0F0"/>
<path d="M154.167 197.159V310.225H207.063V197.159H154.167Z" fill="#EEEEEE"/>
<path d="M174.848 201.136H185.314C189.742 201.194 194.028 199.131 197.331 195.353H162.831C166.134 199.131 170.42 201.194 174.848 201.136V201.136Z" fill="#F0F0F0"/>
<path d="M21 330H132.882L132.882 8H21L21 330Z" fill="#F0F0F0"/>
<path d="M21 330H130.52L130.52 8H21L21 330Z" fill="#F5F5F5"/>
<path d="M123.847 322.693L123.847 15.3066L27.6734 15.3066L27.6734 322.693H123.847Z" fill="#F0F0F0"/>
<path d="M114.396 72.4741C114.396 68.0658 113.718 63.7006 112.401 59.6278C111.083 55.555 109.152 51.8544 106.717 48.7373C104.282 45.6201 101.392 43.1474 98.2107 41.4604C95.0296 39.7734 91.6202 38.9051 88.177 38.9051H63.3452C56.3914 38.9051 49.7223 42.4419 44.8052 48.7373C39.8881 55.0327 37.1257 63.5711 37.1257 72.4741H114.396Z" fill="#FAFAFA"/>
<path d="M114.396 303.587V230.153H37.1257V303.587H114.396Z" fill="#F5F5F5"/>
<path d="M114.396 93.1792H80.3131V220.678H114.396V93.1792Z" fill="#F5F5F5"/>
<path d="M71.2091 93.1792H37.1257V220.678H71.2091V93.1792Z" fill="#F5F5F5"/>
<path d="M49.4866 156.355H35.5267C34.9527 156.353 34.4026 156.06 33.9967 155.54C33.5909 155.021 33.3622 154.316 33.3608 153.582V153.582C33.3627 152.847 33.5915 152.143 33.9973 151.623C34.403 151.104 34.9528 150.811 35.5267 150.809H49.4866C50.0604 150.811 50.6102 151.104 51.016 151.623C51.4217 152.143 51.6505 152.847 51.6524 153.582V153.582C51.651 154.316 51.4224 155.021 51.0165 155.54C50.6106 156.06 50.0606 156.353 49.4866 156.355Z" fill="#E0E0E0"/>
<path d="M29.4058 322.693L29.4058 15.3066H27.6752L27.6752 322.693H29.4058Z" fill="#F0F0F0"/>
<path d="M203.65 150.501L322.299 150.501V7.99998L203.65 7.99998V150.501Z" fill="#EEEEEE"/>
<path d="M200.659 150.501L319.309 150.501V7.99998L200.659 7.99998V150.501Z" fill="#F5F5F5"/>
<path d="M193.732 158.75L322.299 158.75V150.501L193.732 150.501V158.75Z" fill="#EEEEEE"/>
<path d="M190.365 158.75L312.31 158.75V150.501L190.365 150.501V158.75Z" fill="#F5F5F5"/>
<path d="M313.939 143.09V15.4135L206.027 15.4135V143.09H313.939Z" fill="#EEEEEE"/>
<path d="M262.973 143.09V15.4135H256.991V143.09H262.973Z" fill="#F5F5F5"/>
<path d="M208.289 143.09V15.4135H206.027V143.09H208.289Z" fill="#EEEEEE"/>
<path d="M265.235 143.09V15.4135H262.973V143.09H265.235Z" fill="#EEEEEE"/>
<path d="M219.599 154.28C217.418 125.333 215.898 78.3613 217.078 62.6516C217.099 62.3816 217.164 62.1203 217.269 61.885C217.375 61.6497 217.518 61.4458 217.689 61.2868C217.917 61.073 218.188 60.9456 218.47 60.9191C218.752 60.8926 219.034 60.9681 219.284 61.1369C219.534 61.3058 219.742 61.5612 219.884 61.8741C220.026 62.1869 220.097 62.5446 220.088 62.9064C219.88 70.6907 219.64 90.1469 220.935 123.711C221.58 140.42 222.51 151.862 221.872 154.275L219.599 154.28Z" fill="#EEEEEE"/>
<path d="M211.465 87.5628C205.247 78.7298 192.563 72.4491 179.631 72.481C174.555 72.4946 195.077 82.7562 203.618 94.0914C210.443 103.504 216.061 114.242 220.264 125.904C218.615 108.605 217.679 96.3912 211.465 87.5628Z" fill="#EEEEEE"/>
<path d="M223.782 90.2516C228.934 81.0524 240.851 73.9778 253.738 73.1771C258.796 72.8631 239.549 84.4077 232.365 96.2411C226.635 106.132 222.279 117.213 219.489 128.998C219.113 111.68 218.622 99.4531 223.782 90.2516Z" fill="#EEEEEE"/>
<path d="M211.188 55.3018C205.927 47.8223 195.182 42.5039 184.231 42.5312C179.934 42.5312 197.31 51.2345 204.536 60.8227C210.316 68.7932 215.074 77.885 218.633 87.7607C217.243 73.1247 216.446 62.7813 211.188 55.3018Z" fill="#EEEEEE"/>
<path d="M221.616 66.3641C225.985 58.5729 236.072 52.5834 246.983 51.9056C251.266 51.6394 234.968 61.4142 228.885 71.4346C224.031 79.8138 220.342 89.2022 217.981 99.1869C217.665 84.51 217.247 74.1506 221.616 66.3641Z" fill="#EEEEEE"/>
<path d="M220.477 185.842C217.198 185.842 214.044 184.237 211.66 181.355C209.276 178.473 207.843 174.533 207.654 170.342L206.521 145.176H234.434L233.3 170.342C233.112 174.533 231.679 178.473 229.295 181.355C226.911 184.237 223.756 185.842 220.477 185.842Z" fill="#EEEEEE"/>
<path d="M236.24 150.897H204.719L203.817 140.433H237.15L236.24 150.897Z" fill="#EEEEEE"/>
<path d="M172.547 192.086C221.309 192.086 260.84 190.309 260.84 188.116C260.84 185.924 221.309 184.147 172.547 184.147C123.784 184.147 84.2535 185.924 84.2535 188.116C84.2535 190.309 123.784 192.086 172.547 192.086Z" fill="#F5F5F5"/>
<path d="M185.314 314.781L175.729 315.589L172.195 299.318L181.779 298.51L185.314 314.781Z" fill="#FFC3BD"/>
<path d="M228.222 316.349H218.651L216.268 299.757H225.838L228.222 316.349Z" fill="#FFC3BD"/>
<path d="M217.864 315.515H229.53C229.72 315.515 229.904 315.563 230.052 315.652C230.2 315.741 230.304 315.865 230.345 316.004L232.235 322.372C232.28 322.527 232.277 322.688 232.226 322.842C232.176 322.996 232.08 323.14 231.945 323.263C231.811 323.385 231.641 323.483 231.448 323.55C231.256 323.616 231.046 323.649 230.834 323.647C227.08 323.598 224.349 323.433 219.615 323.433C216.706 323.433 207.933 323.659 203.916 323.659C199.979 323.659 199.375 320.685 201.019 320.416C208.393 319.203 213.95 317.543 216.305 315.955C216.734 315.669 217.289 315.512 217.864 315.515Z" fill="#263238"/>
<path d="M175.572 314.36L185.957 313.479C186.146 313.463 186.337 313.495 186.498 313.571C186.658 313.646 186.78 313.761 186.842 313.895L189.679 320.063C189.751 320.212 189.776 320.371 189.752 320.529C189.729 320.686 189.658 320.838 189.544 320.972C189.431 321.106 189.278 321.218 189.098 321.301C188.917 321.384 188.714 321.435 188.503 321.45C184.751 321.72 179.312 322.015 174.606 322.416C169.101 322.884 168.184 323.986 161.689 323.874C157.752 323.804 156.765 320.813 158.417 320.579C165.939 319.485 167.394 318.634 173.372 315.121C173.996 314.719 174.758 314.455 175.572 314.36V314.36Z" fill="#263238"/>
<path d="M184.026 105.827C180.811 107.814 177.647 109.541 174.375 111.31C171.102 113.078 167.76 114.72 164.32 116.314C160.881 117.907 157.351 119.435 153.65 120.822C149.867 122.289 145.927 123.52 141.873 124.501C140.801 124.758 139.756 124.969 138.552 125.195C137.374 125.386 136.183 125.529 134.985 125.623C132.829 125.796 130.8 125.874 128.778 125.944C124.748 126.082 120.794 126.079 116.845 126.058C108.947 125.987 101.117 125.703 93.2511 125.183L93.133 119.807C100.857 119.064 108.616 118.42 116.294 117.774C120.132 117.462 123.96 117.111 127.701 116.745C129.554 116.556 131.406 116.335 133.116 116.097C133.85 116 134.577 115.872 135.293 115.714C135.967 115.54 136.794 115.343 137.558 115.112C140.84 114.114 144.027 112.948 147.093 111.62C150.269 110.255 153.446 108.79 156.568 107.233C159.691 105.676 162.799 104.064 165.879 102.418C168.96 100.773 172.038 99.0303 174.928 97.39L184.026 105.827Z" fill="#FFC3BD"/>
<path d="M193.38 99.703C192.005 106.476 172.957 116.836 172.957 116.836L159.292 104.138C165.278 99.3557 171.625 94.8339 178.303 90.5949C184.452 86.8324 194.877 92.334 193.38 99.703Z" fill="#407BFF"/>
<path d="M95.7687 120.374L90.3351 117.479L89.7399 126.627C90.5612 126.628 91.3706 126.48 92.0973 126.193C92.824 125.906 93.446 125.491 93.9089 124.983L95.7687 120.374Z" fill="#FFC3BD"/>
<path d="M85.4273 114.816L84.3156 123.782L89.7446 126.627L90.3398 117.479L85.4273 114.816Z" fill="#FFC3BD"/>
<path opacity="0.2" d="M172.2 299.324L174.02 307.71L183.607 306.902L181.786 298.516L172.2 299.324Z" fill="black"/>
<path opacity="0.2" d="M225.843 299.759H216.268L217.5 308.31H227.075L225.843 299.759Z" fill="black"/>
<path d="M225.979 90.8117C226.692 90.9313 227.366 91.1565 227.961 91.474C228.556 91.7914 229.06 92.1948 229.443 92.6602C229.827 93.1257 230.082 93.6439 230.194 94.1843C230.306 94.7247 230.272 95.2764 230.095 95.807C228.019 102.26 226.453 108.799 225.407 115.389C224.502 120.938 223.96 126.238 223.622 131.043C222.827 142.305 223.158 150.889 222.709 153.799C215.226 153.41 187.025 151.942 171.649 151.137C166.458 120.718 172.54 101.305 175.956 93.4177C176.48 92.1886 177.458 91.0961 178.779 90.2673C180.099 89.4385 181.707 88.9075 183.414 88.7362C185.374 88.5437 187.718 88.3582 190.191 88.249C191.057 88.2074 191.935 88.1848 192.829 88.1709C200.088 88.2353 207.337 88.6128 214.538 89.3015C215.905 89.4228 217.285 89.5737 218.628 89.7349C221.313 90.0713 223.865 90.458 225.979 90.8117Z" fill="#346AE1"/>
<path d="M214.096 70.8997C212.243 76.0563 209.978 85.565 214.54 89.3102C202.705 95.2695 195.15 103.66 192.97 101.837C191.829 100.884 191.333 89.8477 192.834 88.1762C200.753 87.1914 200.954 82.8549 199.977 78.7213L214.096 70.8997Z" fill="#FFC3BD"/>
<path d="M213.623 87.1723C213.623 87.1723 194.337 93.5616 191.78 107.849C197.093 103.244 208.829 98.2327 208.829 98.2327L203.652 97.1196C206.944 96.1843 210.353 95.4977 213.827 95.0701C213.253 93.097 216.314 89.161 216.314 89.161L213.623 87.1723Z" fill="#407BFF"/>
<path d="M196.222 86.9417C196.222 86.9417 198.793 95.1013 191.782 107.849C190.4 103.4 188.505 99.0485 186.117 94.8447L190.84 95.807C190.84 95.807 190.608 94.1616 186.784 91.9734C188.378 90.2407 190.365 88.7307 192.655 87.5121L196.222 86.9417Z" fill="#407BFF"/>
<path opacity="0.2" d="M208.34 74.0918L199.984 78.7178C200.231 79.6805 200.365 80.6575 200.384 81.6377C203.395 81.4643 207.703 79.2398 208.238 76.925C208.501 75.993 208.535 75.0331 208.34 74.0918V74.0918Z" fill="black"/>
<path d="M189.589 55.9675C184.922 56.1183 182.347 62.1419 187.083 67.1025C191.819 72.0632 195.877 55.7646 189.589 55.9675Z" fill="#263238"/>
<path d="M212.604 61.268C213.158 68.3665 213.964 72.4984 209.79 76.5435C203.513 82.6277 191.377 80.4465 188.002 73.615C184.966 67.4666 184.57 56.8917 193.329 53.2592C195.256 52.4505 197.427 52.0241 199.636 52.0206C201.846 52.0171 204.019 52.4365 205.951 53.2391C207.882 54.0416 209.507 55.2006 210.672 56.6059C211.836 58.0112 212.501 59.616 212.604 61.268V61.268Z" fill="#FFC3BD"/>
<path d="M213.996 66.7228C211.461 65.6101 209.246 64.1309 207.482 62.3713C205.718 60.6117 204.439 58.607 203.719 56.4738C200.94 56.9662 187.088 61.7379 182.828 56.4738C178.569 51.2097 183.928 48.1217 191.898 51.3623C188.373 46.7051 191.579 44.4267 202.654 44.2256C213.73 44.0245 212.24 48.8308 212.24 48.8308C212.24 48.8308 220.625 46.0982 223.589 50.9115C227.024 56.4426 220.687 65.8871 213.996 66.7228Z" fill="#263238"/>
<path d="M210.346 47.5595C210.448 47.5595 214.54 48.2964 219.256 44.7436C218.41 47.7745 211.087 49.7927 211.087 49.7927L210.346 47.5595Z" fill="#263238"/>
<path d="M215.849 57.9441C211.432 56.8015 206.084 61.6997 208.06 67.614C210.035 73.5283 221.799 59.4838 215.849 57.9441Z" fill="#263238"/>
<path d="M218.348 67.1719C217.944 68.9347 216.623 70.5058 214.675 71.5413C212.078 72.8972 209.739 71.3471 209.579 69.1034C209.445 67.0852 210.631 63.9469 213.658 63.4839C214.322 63.391 215.007 63.4238 215.65 63.5794C216.293 63.735 216.874 64.0084 217.34 64.3748C217.806 64.7413 218.142 65.1891 218.318 65.6776C218.494 66.1661 218.505 66.6797 218.348 67.1719V67.1719Z" fill="#FFC3BD"/>
<path d="M186.041 231.856C188.341 210.901 205.211 152.89 205.211 152.89L171.642 151.137C171.642 151.137 158.697 208.721 157.706 230.575C156.673 253.298 168.881 303.799 168.881 303.799L184.98 302.427C184.98 302.427 183.732 252.899 186.041 231.856Z" fill="#407BFF"/>
<path opacity="0.5" d="M186.041 231.856C188.341 210.901 205.211 152.89 205.211 152.89L171.642 151.137C171.642 151.137 158.697 208.721 157.706 230.575C156.673 253.298 168.881 303.799 168.881 303.799L184.98 302.427C184.98 302.427 183.732 252.899 186.041 231.856Z" fill="#EEEEEE"/>
<path opacity="0.2" d="M192.565 172.535C185.798 179.013 185.677 201.763 188.294 218.571C190.789 206.446 194.719 191.048 198.163 178.212L192.565 172.535Z" fill="black"/>
<path d="M189.756 152.082C189.756 152.082 193.378 213.418 197.42 234.19C201.843 256.937 213.079 306.653 213.079 306.653H230.607C230.607 306.653 227.723 259.827 225.41 237.479C222.776 212.024 222.704 153.802 222.704 153.802L189.756 152.082Z" fill="#407BFF"/>
<path opacity="0.5" d="M189.756 152.082C189.756 152.082 193.378 213.418 197.42 234.19C201.843 256.937 213.079 306.653 213.079 306.653H230.607C230.607 306.653 227.723 259.827 225.41 237.479C222.776 212.024 222.704 153.802 222.704 153.802L189.756 152.082Z" fill="#EEEEEE"/>
<path d="M210.971 306.932H231.61V302.316L208.539 302.016L210.971 306.932Z" fill="#407BFF"/>
<path d="M168.179 305.157L187.365 303.528L186.671 298.887L165.184 300.463L168.179 305.157Z" fill="#407BFF"/>
<path d="M198.643 64.5225C198.735 65.0964 198.411 65.5975 197.902 65.6426C197.392 65.6877 196.919 65.2594 196.829 64.6855C196.739 64.1116 197.061 63.6105 197.57 63.5654C198.08 63.5203 198.552 63.9486 198.643 64.5225Z" fill="#263238"/>
<path d="M189.983 65.301C190.075 65.8749 189.751 66.376 189.242 66.4211C188.732 66.4662 188.259 66.0379 188.167 65.464C188.074 64.8901 188.398 64.389 188.908 64.3439C189.418 64.2988 189.89 64.734 189.983 65.301Z" fill="#263238"/>
<path d="M192.781 65.3392C192.148 67.1749 191.182 68.9368 189.909 70.5755C190.477 70.8086 191.106 70.9459 191.753 70.978C192.399 71.01 193.047 70.936 193.652 70.761L192.781 65.3392Z" fill="#ED847E"/>
<path d="M200.998 62.1835C200.917 62.2017 200.832 62.203 200.75 62.1875C200.669 62.1719 200.594 62.1399 200.535 62.0951C200.152 61.7797 199.674 61.5368 199.142 61.3861C198.609 61.2354 198.037 61.1813 197.471 61.2281C197.353 61.243 197.232 61.2232 197.133 61.1728C197.034 61.1223 196.965 61.0453 196.94 60.9576C196.928 60.9137 196.928 60.8685 196.94 60.8245C196.952 60.7806 196.975 60.7389 197.009 60.7019C197.042 60.6648 197.086 60.6332 197.136 60.609C197.186 60.5847 197.243 60.5682 197.302 60.5606C198.016 60.4913 198.742 60.5515 199.419 60.7362C200.096 60.9208 200.703 61.2245 201.19 61.6217C201.273 61.6863 201.319 61.7723 201.319 61.8618C201.319 61.9514 201.273 62.0374 201.19 62.102C201.136 62.1408 201.07 62.1688 200.998 62.1835V62.1835Z" fill="#263238"/>
<path d="M197.67 73.0498C198.763 72.8776 199.784 72.5111 200.648 71.9812C201.512 71.4512 202.193 70.7734 202.633 70.005C202.655 69.959 202.651 69.9085 202.623 69.8647C202.595 69.8208 202.544 69.7871 202.483 69.771C202.421 69.7549 202.354 69.7577 202.295 69.7788C202.237 69.8 202.192 69.8377 202.17 69.8837C201.748 70.5905 201.111 71.2133 200.309 71.7018C199.506 72.1903 198.562 72.5308 197.552 72.6961C197.521 72.7014 197.491 72.7113 197.465 72.7252C197.439 72.739 197.417 72.7566 197.4 72.7769C197.383 72.7972 197.371 72.8198 197.366 72.8434C197.361 72.867 197.362 72.8912 197.369 72.9145C197.376 72.9379 197.389 72.9599 197.408 72.9794C197.426 72.999 197.45 73.0155 197.477 73.0283C197.504 73.041 197.534 73.0496 197.566 73.0536C197.597 73.0576 197.629 73.0569 197.661 73.0515L197.67 73.0498Z" fill="#263238"/>
<path d="M185.909 63.4041C185.818 63.4269 185.719 63.4269 185.628 63.4041C185.516 63.3731 185.425 63.3109 185.372 63.2304C185.32 63.15 185.311 63.0575 185.348 62.9724C185.565 62.4581 185.945 61.9906 186.455 61.6097C186.965 61.2287 187.591 60.9456 188.278 60.7842C188.394 60.7645 188.516 60.7791 188.618 60.825C188.721 60.8709 188.795 60.9444 188.827 61.0305C188.853 61.1172 188.834 61.2083 188.773 61.2848C188.713 61.3613 188.615 61.4174 188.5 61.4414V61.4414C187.96 61.5763 187.47 61.8055 187.071 62.1099C186.672 62.4144 186.375 62.7855 186.205 63.1926C186.181 63.2425 186.141 63.2876 186.09 63.3242C186.038 63.3609 185.976 63.3882 185.909 63.4041Z" fill="#263238"/>
<path d="M214.712 316.767C214.056 316.805 213.403 316.676 212.859 316.401C212.689 316.291 212.558 316.152 212.477 315.996C212.397 315.84 212.369 315.671 212.396 315.504C212.395 315.405 212.431 315.308 212.5 315.223C212.569 315.139 212.667 315.07 212.785 315.024C213.848 314.615 216.93 316.037 217.278 316.2C217.316 316.218 217.346 316.244 217.365 316.275C217.383 316.305 217.389 316.34 217.382 316.373C217.375 316.406 217.354 316.437 217.324 316.461C217.293 316.486 217.254 316.503 217.211 316.512C216.393 316.666 215.555 316.752 214.712 316.767V316.767ZM213.29 315.284C213.188 315.281 213.088 315.295 212.995 315.326C212.948 315.345 212.91 315.374 212.885 315.41C212.859 315.445 212.848 315.485 212.852 315.525C212.831 315.639 212.848 315.755 212.902 315.862C212.956 315.969 213.044 316.065 213.16 316.141C214.229 316.506 215.445 316.552 216.558 316.269C215.56 315.785 214.446 315.45 213.278 315.284H213.29Z" fill="#407BFF"/>
<path d="M217.151 316.515C217.113 316.515 217.075 316.508 217.042 316.494C216.053 316.092 214.137 314.521 214.339 313.72C214.372 313.595 214.462 313.482 214.593 313.401C214.724 313.32 214.889 313.275 215.059 313.274C215.232 313.259 215.406 313.27 215.573 313.308C215.739 313.345 215.893 313.408 216.025 313.493C217.137 314.174 217.366 316.241 217.373 316.328C217.376 316.358 217.368 316.389 217.35 316.416C217.332 316.444 217.305 316.467 217.271 316.484C217.236 316.503 217.194 316.513 217.151 316.515ZM215.219 313.611H215.115C214.821 313.639 214.795 313.739 214.784 313.784C214.663 314.256 215.884 315.442 216.868 316.002C216.803 315.182 216.409 314.397 215.738 313.748C215.592 313.658 215.408 313.609 215.219 313.611V313.611Z" fill="#407BFF"/>
<path d="M174.794 315.419L174.757 315.431C173.258 315.79 170.576 316.298 169.43 315.698C169.26 315.611 169.122 315.494 169.027 315.357C168.932 315.221 168.882 315.069 168.883 314.915C168.874 314.822 168.897 314.729 168.95 314.645C169.004 314.561 169.085 314.488 169.187 314.434C170.264 313.867 174.31 314.982 174.768 315.112C174.808 315.125 174.841 315.146 174.866 315.172C174.891 315.198 174.905 315.229 174.908 315.261C174.91 315.293 174.901 315.325 174.881 315.353C174.861 315.381 174.831 315.405 174.794 315.421V315.419ZM169.506 314.684L169.453 314.708C169.411 314.729 169.379 314.758 169.358 314.792C169.338 314.826 169.33 314.864 169.337 314.901C169.334 315.003 169.365 315.103 169.426 315.194C169.488 315.285 169.578 315.363 169.689 315.421C171.097 315.75 172.617 315.689 173.969 315.248C172.568 314.782 171.032 314.588 169.504 314.684H169.506Z" fill="#407BFF"/>
<path d="M174.794 315.419C174.739 315.44 174.676 315.444 174.618 315.43C173.413 315.142 170.912 313.795 170.958 312.976C170.97 312.784 171.116 312.532 171.727 312.434C171.948 312.397 172.177 312.394 172.399 312.426C172.621 312.457 172.832 312.522 173.02 312.617C174.001 313.32 174.663 314.236 174.91 315.236C174.917 315.265 174.915 315.295 174.903 315.323C174.891 315.351 174.869 315.377 174.84 315.397C174.826 315.406 174.81 315.413 174.794 315.419V315.419ZM171.572 312.836C171.417 312.898 171.412 312.971 171.41 312.999C171.378 313.491 173.105 314.57 174.358 314.996C174.127 314.197 173.573 313.471 172.772 312.916C172.635 312.845 172.48 312.796 172.316 312.772C172.153 312.749 171.985 312.751 171.822 312.779C171.736 312.789 171.652 312.808 171.572 312.836Z" fill="#407BFF"/>
<path d="M234.053 101.146C233.81 103.944 233.37 106.55 232.914 109.241C232.458 111.932 231.844 114.569 231.17 117.231C229.836 122.667 227.867 128.005 225.285 133.183L224.148 135.189L223.86 135.69L223.789 135.815L223.67 136.005L223.337 136.5C222.896 137.1 222.367 137.662 221.76 138.175C220.761 139.016 219.594 139.735 218.299 140.307C217.251 140.774 216.152 141.174 215.013 141.502C211.22 142.526 207.253 143.146 203.229 143.343C195.922 143.752 188.578 143.547 181.332 142.731L181.594 137.356L186.657 136.928C188.355 136.777 190.043 136.581 191.722 136.408C195.074 136.038 198.39 135.626 201.552 135.076C204.476 134.63 207.319 133.925 210.019 132.975C210.748 132.746 211.385 132.381 211.872 131.915C211.902 131.792 211.536 132.331 211.967 131.47L212.725 129.812C214.58 125.06 215.999 120.219 216.972 115.322C217.517 112.829 217.982 110.313 218.431 107.79C218.881 105.267 219.251 102.692 219.606 100.273L234.053 101.146Z" fill="#FFC3BD"/>
<path d="M234.887 95.951C239.573 101.834 235.582 120.324 235.582 120.324L211.031 116.927C211.031 116.927 209.702 106.351 214.376 98.2119C219.45 89.3535 229.21 88.8229 234.887 95.951Z" fill="#407BFF"/>
<path d="M174.72 153.986L161.692 108.62C161.066 106.683 159.617 104.951 157.561 103.684C155.506 102.417 152.956 101.685 150.297 101.598H100.378C103.038 101.685 105.588 102.417 107.644 103.684C109.7 104.95 111.15 106.683 111.775 108.62L124.803 153.986C125.429 155.923 126.878 157.656 128.934 158.922C130.989 160.189 133.539 160.921 136.198 161.008H186.115C183.455 160.921 180.906 160.189 178.85 158.922C176.795 157.656 175.345 155.923 174.72 153.986V153.986Z" fill="#263238"/>
<path opacity="0.7" d="M174.72 153.986L161.692 108.62C161.066 106.683 159.617 104.951 157.561 103.684C155.506 102.417 152.956 101.685 150.297 101.598H100.378C103.038 101.685 105.588 102.417 107.644 103.684C109.7 104.95 111.15 106.683 111.775 108.62L124.803 153.986C125.429 155.923 126.878 157.656 128.934 158.922C130.989 160.189 133.539 160.921 136.198 161.008H186.115C183.455 160.921 180.906 160.189 178.85 158.922C176.795 157.656 175.345 155.923 174.72 153.986V153.986Z" fill="#407BFF"/>
<path d="M100.378 101.598H150.294C147.738 101.634 145.288 102.367 143.404 103.661C141.52 104.954 140.331 106.717 140.062 108.62L127.112 214.041C126.843 215.944 125.654 217.707 123.77 219C121.886 220.293 119.436 221.027 116.88 221.063H85.7239C84.5237 221.08 83.3327 220.904 82.2305 220.548C81.1284 220.192 80.1405 219.664 79.333 218.999C78.5256 218.335 77.9172 217.548 77.5487 216.693C77.1801 215.838 77.0598 214.933 77.196 214.041L90.1476 108.62C90.417 106.718 91.6051 104.954 93.4889 103.661C95.3727 102.368 97.8224 101.634 100.378 101.598Z" fill="#407BFF"/>
<path d="M108.352 214.039C108.216 214.932 108.336 215.836 108.705 216.691C109.073 217.546 109.682 218.333 110.489 218.998C111.296 219.663 112.284 220.191 113.387 220.547C114.489 220.902 115.68 221.078 116.88 221.061H66.9634C65.7632 221.078 64.572 220.903 63.4696 220.547C62.3672 220.191 61.3792 219.663 60.5717 218.998C59.7641 218.333 59.1558 217.547 58.7874 216.692C58.419 215.836 58.299 214.932 58.4355 214.039H108.352Z" fill="#263238"/>
<path opacity="0.7" d="M108.352 214.039C108.216 214.932 108.336 215.836 108.705 216.691C109.073 217.546 109.682 218.333 110.489 218.998C111.296 219.663 112.284 220.191 113.387 220.547C114.489 220.902 115.68 221.078 116.88 221.061H66.9634C65.7632 221.078 64.572 220.903 63.4696 220.547C62.3672 220.191 61.3792 219.663 60.5717 218.998C59.7641 218.333 59.1558 217.547 58.7874 216.692C58.419 215.836 58.299 214.932 58.4355 214.039H108.352Z" fill="#407BFF"/>
<g opacity="0.5">
<path opacity="0.5" d="M131.411 113.409H97.6331C97.3723 113.412 97.1137 113.373 96.8745 113.295C96.6353 113.218 96.421 113.102 96.2457 112.958C96.0705 112.813 95.9384 112.642 95.8581 112.456C95.7779 112.271 95.7513 112.074 95.7803 111.88V111.88C95.8403 111.466 96.0995 111.083 96.5095 110.801C96.9195 110.52 97.4522 110.36 98.0083 110.351H131.782C132.042 110.348 132.301 110.387 132.54 110.465C132.779 110.543 132.994 110.658 133.169 110.803C133.344 110.947 133.476 111.118 133.557 111.304C133.637 111.49 133.663 111.686 133.634 111.88V111.88C133.575 112.294 133.316 112.677 132.907 112.958C132.498 113.239 131.966 113.4 131.411 113.409V113.409Z" fill="#EEEEEE"/>
<path opacity="0.5" d="M130.406 121.682H96.6279C96.3671 121.684 96.1085 121.646 95.8693 121.568C95.6301 121.49 95.4158 121.375 95.2405 121.23C95.0653 121.086 94.9331 120.915 94.8529 120.729C94.7726 120.543 94.7461 120.347 94.775 120.153C94.8351 119.739 95.0943 119.355 95.5043 119.074C95.9143 118.792 96.447 118.632 97.0031 118.623H130.781C131.042 118.621 131.3 118.659 131.54 118.737C131.779 118.815 131.993 118.93 132.168 119.075C132.344 119.22 132.476 119.39 132.556 119.576C132.636 119.762 132.663 119.958 132.634 120.153V120.153C132.574 120.567 132.315 120.95 131.905 121.232C131.495 121.513 130.962 121.673 130.406 121.682V121.682Z" fill="#EEEEEE"/>
<path opacity="0.5" d="M121.121 129.954H95.6226C95.3618 129.957 95.1032 129.918 94.8641 129.84C94.6249 129.762 94.4105 129.647 94.2353 129.503C94.06 129.358 93.9279 129.187 93.8476 129.001C93.7674 128.815 93.7408 128.619 93.7698 128.425V128.425C93.8298 128.011 94.089 127.627 94.499 127.346C94.909 127.065 95.4418 126.905 95.9979 126.896H121.496C121.757 126.893 122.015 126.932 122.254 127.01C122.494 127.088 122.708 127.203 122.883 127.347C123.058 127.492 123.19 127.663 123.271 127.849C123.351 128.034 123.378 128.231 123.349 128.425V128.425C123.289 128.839 123.029 129.222 122.619 129.504C122.209 129.785 121.677 129.945 121.121 129.954V129.954Z" fill="#EEEEEE"/>
<path opacity="0.5" d="M103.266 138.225H94.6198C94.359 138.227 94.1004 138.189 93.8612 138.111C93.622 138.033 93.4077 137.918 93.2324 137.773C93.0572 137.628 92.925 137.458 92.8448 137.272C92.7645 137.086 92.738 136.89 92.7669 136.696V136.696C92.8264 136.282 93.0851 135.898 93.4948 135.617C93.9044 135.335 94.4368 135.175 94.9927 135.166H103.641C103.902 135.164 104.16 135.202 104.4 135.28C104.639 135.358 104.853 135.473 105.028 135.618C105.204 135.763 105.336 135.933 105.416 136.119C105.496 136.305 105.523 136.501 105.494 136.696V136.696C105.434 137.109 105.175 137.493 104.765 137.774C104.355 138.056 103.822 138.216 103.266 138.225V138.225Z" fill="#EEEEEE"/>
<path opacity="0.5" d="M127.39 146.497H93.6031C93.3423 146.5 93.0837 146.461 92.8445 146.383C92.6053 146.305 92.391 146.19 92.2157 146.046C92.0405 145.901 91.9084 145.73 91.8281 145.544C91.7479 145.358 91.7213 145.162 91.7502 144.968V144.968C91.8103 144.554 92.0695 144.17 92.4795 143.889C92.8895 143.608 93.4222 143.448 93.9783 143.439H127.756C128.017 143.436 128.276 143.475 128.515 143.553C128.754 143.631 128.968 143.746 129.144 143.89C129.319 144.035 129.451 144.206 129.531 144.392C129.612 144.577 129.638 144.774 129.609 144.968V144.968C129.549 145.381 129.291 145.763 128.883 146.044C128.475 146.326 127.945 146.487 127.39 146.497V146.497Z" fill="#EEEEEE"/>
<path opacity="0.5" d="M113.084 154.77H92.6094C92.3486 154.772 92.09 154.733 91.8508 154.655C91.6116 154.578 91.3973 154.463 91.222 154.318C91.0468 154.173 90.9147 154.002 90.8344 153.817C90.7542 153.631 90.7276 153.434 90.7566 153.24V153.24C90.8161 152.826 91.0748 152.443 91.4844 152.162C91.894 151.88 92.4265 151.72 92.9823 151.711H113.457C113.717 151.708 113.976 151.747 114.215 151.825C114.454 151.903 114.669 152.018 114.844 152.163C115.019 152.307 115.151 152.478 115.232 152.664C115.312 152.85 115.338 153.046 115.309 153.24V153.24C115.249 153.654 114.991 154.037 114.581 154.319C114.172 154.6 113.639 154.76 113.084 154.77V154.77Z" fill="#EEEEEE"/>
<path opacity="0.5" d="M125.382 163.04H91.6043C91.3435 163.043 91.0849 163.004 90.8457 162.926C90.6065 162.848 90.3922 162.733 90.2169 162.589C90.0417 162.444 89.9095 162.273 89.8293 162.087C89.749 161.901 89.7225 161.705 89.7514 161.511V161.511C89.8115 161.097 90.0707 160.713 90.4807 160.432C90.8906 160.151 91.4234 159.991 91.9795 159.982H125.76C126.021 159.979 126.279 160.018 126.518 160.096C126.758 160.174 126.972 160.289 127.147 160.433C127.322 160.578 127.454 160.749 127.535 160.935C127.615 161.12 127.642 161.317 127.613 161.511V161.511C127.552 161.925 127.293 162.309 126.882 162.59C126.472 162.872 125.939 163.032 125.382 163.04V163.04Z" fill="#EEEEEE"/>
<path opacity="0.5" d="M116.097 171.313H90.5992C90.3384 171.315 90.0798 171.276 89.8406 171.199C89.6014 171.121 89.3871 171.006 89.2118 170.861C89.0366 170.716 88.9044 170.545 88.8242 170.36C88.7439 170.174 88.7174 169.977 88.7463 169.783V169.783C88.8064 169.369 89.0656 168.986 89.4756 168.704C89.8856 168.423 90.4183 168.263 90.9744 168.254H116.472C116.733 168.251 116.992 168.29 117.231 168.368C117.47 168.446 117.684 168.561 117.86 168.706C118.035 168.85 118.167 169.021 118.247 169.207C118.328 169.393 118.354 169.589 118.325 169.783V169.783C118.265 170.197 118.006 170.581 117.596 170.862C117.186 171.144 116.653 171.304 116.097 171.313V171.313Z" fill="#EEEEEE"/>
<path opacity="0.5" d="M98.2422 179.583H89.5892C89.3284 179.586 89.0698 179.547 88.8306 179.469C88.5914 179.391 88.3771 179.276 88.2019 179.132C88.0266 178.987 87.8945 178.816 87.8142 178.63C87.734 178.444 87.7074 178.248 87.7363 178.054V178.054C87.7964 177.64 88.0556 177.256 88.4656 176.975C88.8756 176.694 89.4083 176.534 89.9644 176.525H98.622C98.8828 176.522 99.1414 176.561 99.3806 176.639C99.6198 176.717 99.8341 176.832 100.009 176.976C100.185 177.121 100.317 177.292 100.397 177.478C100.477 177.663 100.504 177.86 100.475 178.054C100.415 178.468 100.155 178.852 99.7439 179.134C99.3329 179.415 98.7991 179.575 98.2422 179.583V179.583Z" fill="#EEEEEE"/>
<path opacity="0.5" d="M122.367 187.857H88.5887C88.3279 187.86 88.0693 187.821 87.8301 187.743C87.5909 187.665 87.3766 187.55 87.2013 187.406C87.0261 187.261 86.894 187.09 86.8137 186.904C86.7335 186.719 86.7069 186.522 86.7358 186.328V186.328C86.7959 185.914 87.0551 185.531 87.4651 185.249C87.8751 184.968 88.4078 184.808 88.9639 184.799H122.742C123.003 184.796 123.261 184.835 123.5 184.913C123.74 184.991 123.954 185.106 124.129 185.25C124.304 185.395 124.437 185.566 124.517 185.752C124.597 185.938 124.624 186.134 124.595 186.328V186.328C124.535 186.742 124.275 187.126 123.865 187.407C123.455 187.688 122.923 187.848 122.367 187.857V187.857Z" fill="#EEEEEE"/>
<path opacity="0.5" d="M108.06 196.128H87.5858C87.325 196.131 87.0665 196.092 86.8273 196.014C86.5881 195.936 86.3737 195.821 86.1985 195.676C86.0232 195.532 85.8911 195.361 85.8109 195.175C85.7306 194.989 85.704 194.793 85.733 194.599V194.599C85.7925 194.185 86.0516 193.801 86.4617 193.519C86.8718 193.238 87.4048 193.078 87.9611 193.069H108.433C108.694 193.067 108.952 193.106 109.192 193.183C109.431 193.261 109.645 193.376 109.82 193.521C109.996 193.666 110.128 193.837 110.208 194.022C110.288 194.208 110.315 194.405 110.286 194.599V194.599C110.226 195.012 109.967 195.396 109.558 195.677C109.148 195.958 108.616 196.119 108.06 196.128V196.128Z" fill="#EEEEEE"/>
<path opacity="0.5" d="M120.356 204.4H86.5784C86.3175 204.403 86.0589 204.364 85.8197 204.286C85.5805 204.208 85.3662 204.093 85.191 203.949C85.0157 203.804 84.8836 203.633 84.8033 203.447C84.7231 203.262 84.6965 203.065 84.7255 202.871V202.871C84.7855 202.457 85.0447 202.074 85.4547 201.792C85.8647 201.511 86.3975 201.351 86.9536 201.342H120.727C120.988 201.339 121.246 201.378 121.485 201.456C121.725 201.534 121.939 201.649 122.114 201.793C122.289 201.938 122.422 202.109 122.502 202.295C122.582 202.481 122.609 202.677 122.58 202.871V202.871C122.52 203.284 122.261 203.667 121.852 203.949C121.443 204.23 120.912 204.391 120.356 204.4Z" fill="#EEEEEE"/>
</g>
<path d="M184.538 137.942L177.205 133.172L173.768 141.953C173.768 141.953 181.216 144.977 183.796 142.201L184.538 137.942Z" fill="#FFC3BD"/>
<path d="M169.217 132.829L166.831 140.188L173.761 141.956L177.198 133.174L169.217 132.829Z" fill="#FFC3BD"/>
<path d="M113.175 348.05C111.392 348.05 110.025 348.608 109.075 349.725C108.142 350.825 107.675 352.358 107.675 354.325C107.675 355.258 107.783 356.117 108 356.9C108.233 357.667 108.567 358.325 109 358.875C109.45 359.425 110 359.858 110.65 360.175C111.317 360.475 112.092 360.625 112.975 360.625C113.525 360.625 114 360.608 114.4 360.575C114.8 360.525 115.117 360.467 115.35 360.4V354.175H118.5V362.5C118.067 362.667 117.333 362.85 116.3 363.05C115.267 363.25 114.075 363.35 112.725 363.35C111.475 363.35 110.333 363.15 109.3 362.75C108.267 362.35 107.383 361.767 106.65 361C105.933 360.233 105.375 359.292 104.975 358.175C104.575 357.058 104.375 355.775 104.375 354.325C104.375 352.875 104.592 351.592 105.025 350.475C105.475 349.358 106.083 348.417 106.85 347.65C107.617 346.867 108.517 346.275 109.55 345.875C110.583 345.475 111.683 345.275 112.85 345.275C113.65 345.275 114.358 345.333 114.975 345.45C115.608 345.55 116.15 345.667 116.6 345.8C117.05 345.933 117.417 346.075 117.7 346.225C118 346.375 118.208 346.483 118.325 346.55L117.375 349.125C116.875 348.825 116.25 348.575 115.5 348.375C114.767 348.158 113.992 348.05 113.175 348.05ZM121.265 356.525C121.265 355.375 121.432 354.367 121.765 353.5C122.115 352.633 122.574 351.917 123.14 351.35C123.707 350.767 124.357 350.333 125.09 350.05C125.824 349.75 126.574 349.6 127.34 349.6C129.14 349.6 130.54 350.158 131.54 351.275C132.557 352.392 133.065 354.058 133.065 356.275C133.065 356.442 133.057 356.633 133.04 356.85C133.04 357.05 133.032 357.233 133.015 357.4H124.39C124.474 358.45 124.84 359.267 125.49 359.85C126.157 360.417 127.115 360.7 128.365 360.7C129.099 360.7 129.765 360.633 130.365 360.5C130.982 360.367 131.465 360.225 131.815 360.075L132.215 362.55C132.049 362.633 131.815 362.725 131.515 362.825C131.232 362.908 130.899 362.983 130.515 363.05C130.149 363.133 129.749 363.2 129.315 363.25C128.882 363.3 128.44 363.325 127.99 363.325C126.84 363.325 125.84 363.158 124.99 362.825C124.14 362.475 123.44 362 122.89 361.4C122.34 360.783 121.932 360.067 121.665 359.25C121.399 358.417 121.265 357.508 121.265 356.525ZM130.04 355.175C130.04 354.758 129.982 354.367 129.865 354C129.749 353.617 129.574 353.292 129.34 353.025C129.124 352.742 128.849 352.525 128.515 352.375C128.199 352.208 127.815 352.125 127.365 352.125C126.899 352.125 126.49 352.217 126.14 352.4C125.79 352.567 125.49 352.792 125.24 353.075C125.007 353.358 124.824 353.683 124.69 354.05C124.557 354.417 124.465 354.792 124.415 355.175H130.04ZM136.123 346.475L139.148 345.975V349.925H143.798V352.45H139.148V357.775C139.148 358.825 139.314 359.575 139.648 360.025C139.981 360.475 140.548 360.7 141.348 360.7C141.898 360.7 142.381 360.642 142.798 360.525C143.231 360.408 143.573 360.3 143.823 360.2L144.323 362.6C143.973 362.75 143.514 362.9 142.948 363.05C142.381 363.217 141.714 363.3 140.948 363.3C140.014 363.3 139.231 363.175 138.598 362.925C137.981 362.675 137.489 362.317 137.123 361.85C136.756 361.367 136.498 360.792 136.348 360.125C136.198 359.442 136.123 358.667 136.123 357.8V346.475ZM156.907 360.65C158.04 360.65 158.865 360.458 159.382 360.075C159.899 359.692 160.157 359.15 160.157 358.45C160.157 358.033 160.065 357.675 159.882 357.375C159.715 357.075 159.465 356.808 159.132 356.575C158.815 356.325 158.424 356.1 157.957 355.9C157.49 355.683 156.957 355.475 156.357 355.275C155.757 355.058 155.174 354.825 154.607 354.575C154.057 354.308 153.565 353.983 153.132 353.6C152.715 353.217 152.374 352.758 152.107 352.225C151.857 351.692 151.732 351.05 151.732 350.3C151.732 348.733 152.274 347.508 153.357 346.625C154.44 345.725 155.915 345.275 157.782 345.275C158.865 345.275 159.824 345.4 160.657 345.65C161.507 345.883 162.174 346.142 162.657 346.425L161.682 348.975C161.115 348.658 160.49 348.417 159.807 348.25C159.14 348.083 158.449 348 157.732 348C156.882 348 156.215 348.175 155.732 348.525C155.265 348.875 155.032 349.367 155.032 350C155.032 350.383 155.107 350.717 155.257 351C155.424 351.267 155.649 351.508 155.932 351.725C156.232 351.942 156.574 352.142 156.957 352.325C157.357 352.508 157.79 352.683 158.257 352.85C159.074 353.15 159.799 353.458 160.432 353.775C161.082 354.075 161.624 354.442 162.057 354.875C162.507 355.292 162.849 355.792 163.082 356.375C163.315 356.942 163.432 357.633 163.432 358.45C163.432 360.017 162.874 361.233 161.757 362.1C160.657 362.95 159.04 363.375 156.907 363.375C156.19 363.375 155.532 363.325 154.932 363.225C154.349 363.142 153.824 363.033 153.357 362.9C152.907 362.767 152.515 362.633 152.182 362.5C151.849 362.35 151.582 362.217 151.382 362.1L152.307 359.525C152.757 359.775 153.365 360.025 154.132 360.275C154.899 360.525 155.824 360.65 156.907 360.65ZM165.908 346.475L168.933 345.975V349.925H173.583V352.45H168.933V357.775C168.933 358.825 169.099 359.575 169.433 360.025C169.766 360.475 170.333 360.7 171.133 360.7C171.683 360.7 172.166 360.642 172.583 360.525C173.016 360.408 173.358 360.3 173.608 360.2L174.108 362.6C173.758 362.75 173.299 362.9 172.733 363.05C172.166 363.217 171.499 363.3 170.733 363.3C169.799 363.3 169.016 363.175 168.383 362.925C167.766 362.675 167.274 362.317 166.908 361.85C166.541 361.367 166.283 360.792 166.133 360.125C165.983 359.442 165.908 358.667 165.908 357.8V346.475ZM181.107 360.875C182.04 360.875 182.749 360.825 183.232 360.725V357.375C183.065 357.325 182.824 357.275 182.507 357.225C182.19 357.175 181.84 357.15 181.457 357.15C181.124 357.15 180.782 357.175 180.432 357.225C180.099 357.275 179.79 357.367 179.507 357.5C179.24 357.633 179.024 357.825 178.857 358.075C178.69 358.308 178.607 358.608 178.607 358.975C178.607 359.692 178.832 360.192 179.282 360.475C179.732 360.742 180.34 360.875 181.107 360.875ZM180.857 349.6C181.857 349.6 182.699 349.725 183.382 349.975C184.065 350.225 184.607 350.575 185.007 351.025C185.424 351.475 185.715 352.025 185.882 352.675C186.065 353.308 186.157 354.008 186.157 354.775V362.7C185.69 362.8 184.982 362.917 184.032 363.05C183.099 363.2 182.04 363.275 180.857 363.275C180.074 363.275 179.357 363.2 178.707 363.05C178.057 362.9 177.499 362.658 177.032 362.325C176.582 361.992 176.224 361.558 175.957 361.025C175.707 360.492 175.582 359.833 175.582 359.05C175.582 358.3 175.724 357.667 176.007 357.15C176.307 356.633 176.707 356.217 177.207 355.9C177.707 355.567 178.282 355.333 178.932 355.2C179.599 355.05 180.29 354.975 181.007 354.975C181.34 354.975 181.69 355 182.057 355.05C182.424 355.083 182.815 355.15 183.232 355.25V354.75C183.232 354.4 183.19 354.067 183.107 353.75C183.024 353.433 182.874 353.158 182.657 352.925C182.457 352.675 182.182 352.483 181.832 352.35C181.499 352.217 181.074 352.15 180.557 352.15C179.857 352.15 179.215 352.2 178.632 352.3C178.049 352.4 177.574 352.517 177.207 352.65L176.832 350.2C177.215 350.067 177.774 349.933 178.507 349.8C179.24 349.667 180.024 349.6 180.857 349.6ZM197.312 352.65C197.062 352.567 196.712 352.483 196.262 352.4C195.828 352.3 195.32 352.25 194.737 352.25C194.403 352.25 194.045 352.283 193.662 352.35C193.295 352.417 193.037 352.475 192.887 352.525V363H189.862V350.55C190.445 350.333 191.17 350.133 192.037 349.95C192.92 349.75 193.895 349.65 194.962 349.65C195.162 349.65 195.395 349.667 195.662 349.7C195.928 349.717 196.195 349.75 196.462 349.8C196.728 349.833 196.987 349.883 197.237 349.95C197.487 350 197.687 350.05 197.837 350.1L197.312 352.65ZM199.795 346.475L202.82 345.975V349.925H207.47V352.45H202.82V357.775C202.82 358.825 202.986 359.575 203.32 360.025C203.653 360.475 204.22 360.7 205.02 360.7C205.57 360.7 206.053 360.642 206.47 360.525C206.903 360.408 207.245 360.3 207.495 360.2L207.995 362.6C207.645 362.75 207.186 362.9 206.62 363.05C206.053 363.217 205.386 363.3 204.62 363.3C203.686 363.3 202.903 363.175 202.27 362.925C201.653 362.675 201.161 362.317 200.795 361.85C200.428 361.367 200.17 360.792 200.02 360.125C199.87 359.442 199.795 358.667 199.795 357.8V346.475ZM209.449 356.525C209.449 355.375 209.616 354.367 209.949 353.5C210.299 352.633 210.757 351.917 211.324 351.35C211.891 350.767 212.541 350.333 213.274 350.05C214.007 349.75 214.757 349.6 215.524 349.6C217.324 349.6 218.724 350.158 219.724 351.275C220.741 352.392 221.249 354.058 221.249 356.275C221.249 356.442 221.241 356.633 221.224 356.85C221.224 357.05 221.216 357.233 221.199 357.4H212.574C212.657 358.45 213.024 359.267 213.674 359.85C214.341 360.417 215.299 360.7 216.549 360.7C217.282 360.7 217.949 360.633 218.549 360.5C219.166 360.367 219.649 360.225 219.999 360.075L220.399 362.55C220.232 362.633 219.999 362.725 219.699 362.825C219.416 362.908 219.082 362.983 218.699 363.05C218.332 363.133 217.932 363.2 217.499 363.25C217.066 363.3 216.624 363.325 216.174 363.325C215.024 363.325 214.024 363.158 213.174 362.825C212.324 362.475 211.624 362 211.074 361.4C210.524 360.783 210.116 360.067 209.849 359.25C209.582 358.417 209.449 357.508 209.449 356.525ZM218.224 355.175C218.224 354.758 218.166 354.367 218.049 354C217.932 353.617 217.757 353.292 217.524 353.025C217.307 352.742 217.032 352.525 216.699 352.375C216.382 352.208 215.999 352.125 215.549 352.125C215.082 352.125 214.674 352.217 214.324 352.4C213.974 352.567 213.674 352.792 213.424 353.075C213.191 353.358 213.007 353.683 212.874 354.05C212.741 354.417 212.649 354.792 212.599 355.175H218.224ZM226.831 356.425C226.831 357.758 227.148 358.808 227.781 359.575C228.415 360.325 229.29 360.7 230.406 360.7C230.89 360.7 231.298 360.683 231.631 360.65C231.981 360.6 232.265 360.55 232.481 360.5V353C232.215 352.817 231.856 352.65 231.406 352.5C230.973 352.333 230.506 352.25 230.006 352.25C228.906 352.25 228.098 352.625 227.581 353.375C227.081 354.125 226.831 355.142 226.831 356.425ZM235.506 362.6C234.906 362.783 234.148 362.95 233.231 363.1C232.331 363.25 231.381 363.325 230.381 363.325C229.348 363.325 228.423 363.167 227.606 362.85C226.79 362.533 226.09 362.083 225.506 361.5C224.94 360.9 224.498 360.183 224.181 359.35C223.881 358.5 223.731 357.55 223.731 356.5C223.731 355.467 223.856 354.533 224.106 353.7C224.373 352.85 224.756 352.125 225.256 351.525C225.756 350.925 226.365 350.467 227.081 350.15C227.798 349.817 228.623 349.65 229.556 349.65C230.19 349.65 230.748 349.725 231.231 349.875C231.715 350.025 232.131 350.192 232.481 350.375V344.1L235.506 343.6V362.6ZM242.874 350.325C242.874 351.708 242.824 352.975 242.724 354.125C242.624 355.275 242.499 356.433 242.349 357.6H240.199C240.032 356.433 239.899 355.275 239.799 354.125C239.699 352.958 239.649 351.692 239.649 350.325V345.675H242.874V350.325ZM243.249 361.35C243.249 361.933 243.057 362.408 242.674 362.775C242.29 363.142 241.815 363.325 241.249 363.325C240.699 363.325 240.224 363.142 239.824 362.775C239.44 362.408 239.249 361.933 239.249 361.35C239.249 360.767 239.44 360.292 239.824 359.925C240.224 359.542 240.699 359.35 241.249 359.35C241.815 359.35 242.29 359.542 242.674 359.925C243.057 360.292 243.249 360.767 243.249 361.35Z" fill="#34343F"/>
<path d="M79.952 389.896C81.5733 389.896 82.384 389.341 82.384 388.232C82.384 387.891 82.3093 387.603 82.16 387.368C82.0213 387.123 81.8293 386.915 81.584 386.744C81.3387 386.563 81.056 386.408 80.736 386.28C80.4267 386.152 80.096 386.024 79.744 385.896C79.3387 385.757 78.9547 385.603 78.592 385.432C78.2293 385.251 77.9147 385.043 77.648 384.808C77.3813 384.563 77.168 384.275 77.008 383.944C76.8587 383.613 76.784 383.213 76.784 382.744C76.784 381.773 77.1147 381.016 77.776 380.472C78.4373 379.928 79.3493 379.656 80.512 379.656C81.184 379.656 81.792 379.731 82.336 379.88C82.8907 380.019 83.296 380.173 83.552 380.344L83.056 381.608C82.832 381.469 82.496 381.336 82.048 381.208C81.6107 381.069 81.0987 381 80.512 381C80.2133 381 79.936 381.032 79.68 381.096C79.424 381.16 79.2 381.256 79.008 381.384C78.816 381.512 78.6613 381.677 78.544 381.88C78.4373 382.072 78.384 382.301 78.384 382.568C78.384 382.867 78.4427 383.117 78.56 383.32C78.6773 383.523 78.8427 383.704 79.056 383.864C79.2693 384.013 79.5147 384.152 79.792 384.28C80.08 384.408 80.3947 384.536 80.736 384.664C81.216 384.856 81.6533 385.048 82.048 385.24C82.4533 385.432 82.8 385.661 83.088 385.928C83.3867 386.195 83.616 386.515 83.776 386.888C83.936 387.251 84.016 387.693 84.016 388.216C84.016 389.187 83.6587 389.933 82.944 390.456C82.24 390.979 81.2427 391.24 79.952 391.24C79.5147 391.24 79.1093 391.208 78.736 391.144C78.3733 391.091 78.048 391.027 77.76 390.952C77.472 390.867 77.2213 390.781 77.008 390.696C76.8053 390.6 76.6453 390.52 76.528 390.456L76.992 389.176C77.2373 389.315 77.6107 389.469 78.112 389.64C78.6133 389.811 79.2267 389.896 79.952 389.896ZM87.1876 382.68H90.3396V383.928H87.1876V387.768C87.1876 388.184 87.2196 388.531 87.2836 388.808C87.3476 389.075 87.4436 389.288 87.5716 389.448C87.6996 389.597 87.8596 389.704 88.0516 389.768C88.2436 389.832 88.4676 389.864 88.7236 389.864C89.1716 389.864 89.529 389.816 89.7956 389.72C90.073 389.613 90.265 389.539 90.3716 389.496L90.6596 390.728C90.5103 390.803 90.249 390.893 89.8756 391C89.5023 391.117 89.0756 391.176 88.5956 391.176C88.0303 391.176 87.561 391.107 87.1876 390.968C86.825 390.819 86.5316 390.6 86.3076 390.312C86.0836 390.024 85.9236 389.672 85.8276 389.256C85.7423 388.829 85.6996 388.339 85.6996 387.784V380.36L87.1876 380.104V382.68ZM95.0491 389.928C95.4011 389.928 95.7105 389.923 95.9771 389.912C96.2545 389.891 96.4838 389.859 96.6651 389.816V387.336C96.5585 387.283 96.3825 387.24 96.1371 387.208C95.9025 387.165 95.6145 387.144 95.2731 387.144C95.0491 387.144 94.8091 387.16 94.5531 387.192C94.3078 387.224 94.0785 387.293 93.8651 387.4C93.6625 387.496 93.4918 387.635 93.3531 387.816C93.2145 387.987 93.1451 388.216 93.1451 388.504C93.1451 389.037 93.3158 389.411 93.6571 389.624C93.9985 389.827 94.4625 389.928 95.0491 389.928ZM94.9211 382.472C95.5185 382.472 96.0198 382.552 96.4251 382.712C96.8411 382.861 97.1718 383.08 97.4171 383.368C97.6731 383.645 97.8545 383.981 97.9611 384.376C98.0678 384.76 98.1211 385.187 98.1211 385.656V390.856C97.9931 390.877 97.8118 390.909 97.5771 390.952C97.3531 390.984 97.0971 391.016 96.8091 391.048C96.5211 391.08 96.2065 391.107 95.8651 391.128C95.5345 391.16 95.2038 391.176 94.8731 391.176C94.4038 391.176 93.9718 391.128 93.5771 391.032C93.1825 390.936 92.8411 390.787 92.5531 390.584C92.2651 390.371 92.0411 390.093 91.8811 389.752C91.7211 389.411 91.6411 389 91.6411 388.52C91.6411 388.061 91.7318 387.667 91.9131 387.336C92.1051 387.005 92.3611 386.739 92.6811 386.536C93.0011 386.333 93.3745 386.184 93.8011 386.088C94.2278 385.992 94.6758 385.944 95.1451 385.944C95.2945 385.944 95.4491 385.955 95.6091 385.976C95.7691 385.987 95.9185 386.008 96.0571 386.04C96.2065 386.061 96.3345 386.083 96.4411 386.104C96.5478 386.125 96.6225 386.141 96.6651 386.152V385.736C96.6651 385.491 96.6385 385.251 96.5851 385.016C96.5318 384.771 96.4358 384.557 96.2971 384.376C96.1585 384.184 95.9665 384.035 95.7211 383.928C95.4865 383.811 95.1771 383.752 94.7931 383.752C94.3025 383.752 93.8705 383.789 93.4971 383.864C93.1345 383.928 92.8625 383.997 92.6811 384.072L92.5051 382.84C92.6971 382.755 93.0171 382.675 93.4651 382.6C93.9131 382.515 94.3985 382.472 94.9211 382.472ZM103.665 382.504C103.793 382.504 103.937 382.515 104.097 382.536C104.267 382.547 104.433 382.568 104.593 382.6C104.753 382.621 104.897 382.648 105.025 382.68C105.163 382.701 105.265 382.723 105.329 382.744L105.073 384.04C104.955 383.997 104.758 383.949 104.481 383.896C104.214 383.832 103.867 383.8 103.441 383.8C103.163 383.8 102.886 383.832 102.609 383.896C102.342 383.949 102.166 383.987 102.081 384.008V391H100.593V383.032C100.945 382.904 101.382 382.787 101.905 382.68C102.427 382.563 103.014 382.504 103.665 382.504ZM108.156 382.68H111.308V383.928H108.156V387.768C108.156 388.184 108.188 388.531 108.252 388.808C108.316 389.075 108.412 389.288 108.54 389.448C108.668 389.597 108.828 389.704 109.02 389.768C109.212 389.832 109.436 389.864 109.692 389.864C110.14 389.864 110.498 389.816 110.764 389.72C111.042 389.613 111.234 389.539 111.34 389.496L111.628 390.728C111.479 390.803 111.218 390.893 110.844 391C110.471 391.117 110.044 391.176 109.564 391.176C108.999 391.176 108.53 391.107 108.156 390.968C107.794 390.819 107.5 390.6 107.276 390.312C107.052 390.024 106.892 389.672 106.796 389.256C106.711 388.829 106.668 388.339 106.668 387.784V380.36L108.156 380.104V382.68ZM118.393 383.048C118.574 382.931 118.846 382.808 119.209 382.68C119.582 382.552 120.009 382.488 120.489 382.488C121.086 382.488 121.614 382.595 122.073 382.808C122.542 383.021 122.937 383.32 123.257 383.704C123.577 384.088 123.817 384.547 123.977 385.08C124.148 385.613 124.233 386.2 124.233 386.84C124.233 387.512 124.132 388.12 123.929 388.664C123.737 389.197 123.46 389.651 123.097 390.024C122.734 390.397 122.297 390.685 121.785 390.888C121.273 391.091 120.697 391.192 120.057 391.192C119.364 391.192 118.75 391.144 118.217 391.048C117.684 390.952 117.246 390.856 116.905 390.76V378.84L118.393 378.584V383.048ZM118.393 389.704C118.542 389.747 118.75 389.789 119.017 389.832C119.294 389.864 119.636 389.88 120.041 389.88C120.841 389.88 121.481 389.619 121.961 389.096C122.441 388.563 122.681 387.811 122.681 386.84C122.681 386.413 122.638 386.013 122.553 385.64C122.468 385.267 122.329 384.947 122.137 384.68C121.945 384.403 121.694 384.189 121.385 384.04C121.086 383.88 120.724 383.8 120.297 383.8C119.892 383.8 119.518 383.869 119.177 384.008C118.836 384.147 118.574 384.291 118.393 384.44V389.704ZM125.148 392.552C125.265 392.605 125.414 392.653 125.596 392.696C125.788 392.749 125.974 392.776 126.156 392.776C126.742 392.776 127.201 392.643 127.532 392.376C127.862 392.12 128.161 391.699 128.428 391.112C127.756 389.832 127.126 388.477 126.54 387.048C125.964 385.608 125.484 384.152 125.1 382.68H126.7C126.817 383.16 126.956 383.677 127.116 384.232C127.286 384.787 127.473 385.357 127.676 385.944C127.878 386.531 128.097 387.117 128.332 387.704C128.566 388.291 128.812 388.856 129.068 389.4C129.473 388.28 129.825 387.171 130.124 386.072C130.422 384.973 130.705 383.843 130.972 382.68H132.508C132.124 384.248 131.697 385.757 131.228 387.208C130.758 388.648 130.252 389.997 129.708 391.256C129.494 391.736 129.27 392.147 129.036 392.488C128.812 392.84 128.561 393.128 128.284 393.352C128.006 393.576 127.692 393.741 127.34 393.848C126.998 393.955 126.609 394.008 126.172 394.008C126.054 394.008 125.932 393.997 125.804 393.976C125.676 393.965 125.548 393.944 125.42 393.912C125.302 393.891 125.19 393.864 125.084 393.832C124.988 393.8 124.918 393.773 124.876 393.752L125.148 392.552ZM141.396 391.192C140.724 391.192 140.132 391.085 139.62 390.872C139.119 390.659 138.692 390.36 138.34 389.976C137.999 389.592 137.743 389.139 137.572 388.616C137.401 388.083 137.316 387.496 137.316 386.856C137.316 386.216 137.407 385.629 137.588 385.096C137.78 384.563 138.047 384.104 138.388 383.72C138.729 383.325 139.145 383.021 139.636 382.808C140.137 382.584 140.692 382.472 141.3 382.472C141.673 382.472 142.047 382.504 142.42 382.568C142.793 382.632 143.151 382.733 143.492 382.872L143.156 384.136C142.932 384.029 142.671 383.944 142.372 383.88C142.084 383.816 141.775 383.784 141.444 383.784C140.612 383.784 139.972 384.045 139.524 384.568C139.087 385.091 138.868 385.853 138.868 386.856C138.868 387.304 138.916 387.715 139.012 388.088C139.119 388.461 139.279 388.781 139.492 389.048C139.716 389.315 139.999 389.523 140.34 389.672C140.681 389.811 141.097 389.88 141.588 389.88C141.983 389.88 142.34 389.843 142.66 389.768C142.98 389.693 143.231 389.613 143.412 389.528L143.62 390.776C143.535 390.829 143.412 390.883 143.252 390.936C143.092 390.979 142.911 391.016 142.708 391.048C142.505 391.091 142.287 391.123 142.052 391.144C141.828 391.176 141.609 391.192 141.396 391.192ZM148.29 382.504C148.418 382.504 148.562 382.515 148.722 382.536C148.892 382.547 149.058 382.568 149.218 382.6C149.378 382.621 149.522 382.648 149.65 382.68C149.788 382.701 149.89 382.723 149.954 382.744L149.698 384.04C149.58 383.997 149.383 383.949 149.106 383.896C148.839 383.832 148.492 383.8 148.066 383.8C147.788 383.8 147.511 383.832 147.234 383.896C146.967 383.949 146.791 383.987 146.706 384.008V391H145.218V383.032C145.57 382.904 146.007 382.787 146.53 382.68C147.052 382.563 147.639 382.504 148.29 382.504ZM150.925 386.856C150.925 386.12 151.032 385.48 151.245 384.936C151.459 384.381 151.741 383.923 152.093 383.56C152.445 383.197 152.851 382.925 153.309 382.744C153.768 382.563 154.237 382.472 154.717 382.472C155.837 382.472 156.696 382.824 157.293 383.528C157.891 384.221 158.189 385.283 158.189 386.712C158.189 386.776 158.189 386.861 158.189 386.968C158.189 387.064 158.184 387.155 158.173 387.24H152.477C152.541 388.104 152.792 388.76 153.229 389.208C153.667 389.656 154.349 389.88 155.277 389.88C155.8 389.88 156.237 389.837 156.589 389.752C156.952 389.656 157.224 389.565 157.405 389.48L157.613 390.728C157.432 390.824 157.112 390.925 156.653 391.032C156.205 391.139 155.693 391.192 155.117 391.192C154.392 391.192 153.763 391.085 153.229 390.872C152.707 390.648 152.275 390.344 151.933 389.96C151.592 389.576 151.336 389.123 151.165 388.6C151.005 388.067 150.925 387.485 150.925 386.856ZM156.637 386.04C156.648 385.368 156.477 384.819 156.125 384.392C155.784 383.955 155.309 383.736 154.701 383.736C154.36 383.736 154.056 383.805 153.789 383.944C153.533 384.072 153.315 384.243 153.133 384.456C152.952 384.669 152.808 384.915 152.701 385.192C152.605 385.469 152.541 385.752 152.509 386.04H156.637ZM163.143 389.928C163.495 389.928 163.804 389.923 164.071 389.912C164.348 389.891 164.578 389.859 164.759 389.816V387.336C164.652 387.283 164.476 387.24 164.231 387.208C163.996 387.165 163.708 387.144 163.367 387.144C163.143 387.144 162.903 387.16 162.647 387.192C162.402 387.224 162.172 387.293 161.959 387.4C161.756 387.496 161.586 387.635 161.447 387.816C161.308 387.987 161.239 388.216 161.239 388.504C161.239 389.037 161.41 389.411 161.751 389.624C162.092 389.827 162.556 389.928 163.143 389.928ZM163.015 382.472C163.612 382.472 164.114 382.552 164.519 382.712C164.935 382.861 165.266 383.08 165.511 383.368C165.767 383.645 165.948 383.981 166.055 384.376C166.162 384.76 166.215 385.187 166.215 385.656V390.856C166.087 390.877 165.906 390.909 165.671 390.952C165.447 390.984 165.191 391.016 164.903 391.048C164.615 391.08 164.3 391.107 163.959 391.128C163.628 391.16 163.298 391.176 162.967 391.176C162.498 391.176 162.066 391.128 161.671 391.032C161.276 390.936 160.935 390.787 160.647 390.584C160.359 390.371 160.135 390.093 159.975 389.752C159.815 389.411 159.735 389 159.735 388.52C159.735 388.061 159.826 387.667 160.007 387.336C160.199 387.005 160.455 386.739 160.775 386.536C161.095 386.333 161.468 386.184 161.895 386.088C162.322 385.992 162.77 385.944 163.239 385.944C163.388 385.944 163.543 385.955 163.703 385.976C163.863 385.987 164.012 386.008 164.151 386.04C164.3 386.061 164.428 386.083 164.535 386.104C164.642 386.125 164.716 386.141 164.759 386.152V385.736C164.759 385.491 164.732 385.251 164.679 385.016C164.626 384.771 164.53 384.557 164.391 384.376C164.252 384.184 164.06 384.035 163.815 383.928C163.58 383.811 163.271 383.752 162.887 383.752C162.396 383.752 161.964 383.789 161.591 383.864C161.228 383.928 160.956 383.997 160.775 384.072L160.599 382.84C160.791 382.755 161.111 382.675 161.559 382.6C162.007 382.515 162.492 382.472 163.015 382.472ZM170.078 382.68H173.23V383.928H170.078V387.768C170.078 388.184 170.11 388.531 170.174 388.808C170.238 389.075 170.334 389.288 170.462 389.448C170.59 389.597 170.75 389.704 170.942 389.768C171.134 389.832 171.358 389.864 171.614 389.864C172.062 389.864 172.42 389.816 172.686 389.72C172.964 389.613 173.156 389.539 173.262 389.496L173.55 390.728C173.401 390.803 173.14 390.893 172.766 391C172.393 391.117 171.966 391.176 171.486 391.176C170.921 391.176 170.452 391.107 170.078 390.968C169.716 390.819 169.422 390.6 169.198 390.312C168.974 390.024 168.814 389.672 168.718 389.256C168.633 388.829 168.59 388.339 168.59 387.784V380.36L170.078 380.104V382.68ZM176.612 391H175.124V382.68H176.612V391ZM175.86 381.176C175.593 381.176 175.364 381.091 175.172 380.92C174.99 380.739 174.9 380.499 174.9 380.2C174.9 379.901 174.99 379.667 175.172 379.496C175.364 379.315 175.593 379.224 175.86 379.224C176.126 379.224 176.35 379.315 176.532 379.496C176.724 379.667 176.82 379.901 176.82 380.2C176.82 380.499 176.724 380.739 176.532 380.92C176.35 381.091 176.126 381.176 175.86 381.176ZM179.171 382.92C179.512 382.835 179.965 382.744 180.531 382.648C181.096 382.552 181.747 382.504 182.483 382.504C183.144 382.504 183.693 382.6 184.131 382.792C184.568 382.973 184.915 383.235 185.171 383.576C185.437 383.907 185.624 384.307 185.731 384.776C185.837 385.245 185.891 385.763 185.891 386.328V391H184.403V386.648C184.403 386.136 184.365 385.699 184.291 385.336C184.227 384.973 184.115 384.68 183.955 384.456C183.795 384.232 183.581 384.072 183.315 383.976C183.048 383.869 182.717 383.816 182.323 383.816C182.163 383.816 181.997 383.821 181.827 383.832C181.656 383.843 181.491 383.859 181.331 383.88C181.181 383.891 181.043 383.907 180.915 383.928C180.797 383.949 180.712 383.965 180.659 383.976V391H179.171V382.92ZM193.574 390.168C193.446 390.253 193.195 390.365 192.822 390.504C192.459 390.632 192.033 390.696 191.542 390.696C191.041 390.696 190.566 390.616 190.118 390.456C189.681 390.296 189.297 390.051 188.966 389.72C188.635 389.379 188.374 388.957 188.182 388.456C187.99 387.955 187.894 387.357 187.894 386.664C187.894 386.056 187.985 385.501 188.166 385C188.347 384.488 188.609 384.051 188.95 383.688C189.302 383.315 189.729 383.027 190.23 382.824C190.731 382.611 191.297 382.504 191.926 382.504C192.619 382.504 193.222 382.557 193.734 382.664C194.257 382.76 194.694 382.851 195.046 382.936V390.36C195.046 391.64 194.715 392.568 194.054 393.144C193.393 393.72 192.39 394.008 191.046 394.008C190.523 394.008 190.027 393.965 189.558 393.88C189.099 393.795 188.699 393.693 188.358 393.576L188.63 392.28C188.929 392.397 189.291 392.499 189.718 392.584C190.155 392.68 190.609 392.728 191.078 392.728C191.963 392.728 192.598 392.552 192.982 392.2C193.377 391.848 193.574 391.288 193.574 390.52V390.168ZM193.558 383.992C193.409 383.949 193.206 383.912 192.95 383.88C192.705 383.837 192.369 383.816 191.942 383.816C191.142 383.816 190.523 384.077 190.086 384.6C189.659 385.123 189.446 385.816 189.446 386.68C189.446 387.16 189.505 387.571 189.622 387.912C189.75 388.253 189.915 388.536 190.118 388.76C190.331 388.984 190.571 389.149 190.838 389.256C191.115 389.363 191.398 389.416 191.686 389.416C192.081 389.416 192.443 389.363 192.774 389.256C193.105 389.139 193.366 389.005 193.558 388.856V383.992ZM204.127 389.928C204.479 389.928 204.789 389.923 205.055 389.912C205.333 389.891 205.562 389.859 205.743 389.816V387.336C205.637 387.283 205.461 387.24 205.215 387.208C204.981 387.165 204.693 387.144 204.351 387.144C204.127 387.144 203.887 387.16 203.631 387.192C203.386 387.224 203.157 387.293 202.943 387.4C202.741 387.496 202.57 387.635 202.431 387.816C202.293 387.987 202.223 388.216 202.223 388.504C202.223 389.037 202.394 389.411 202.735 389.624C203.077 389.827 203.541 389.928 204.127 389.928ZM203.999 382.472C204.597 382.472 205.098 382.552 205.503 382.712C205.919 382.861 206.25 383.08 206.495 383.368C206.751 383.645 206.933 383.981 207.039 384.376C207.146 384.76 207.199 385.187 207.199 385.656V390.856C207.071 390.877 206.89 390.909 206.655 390.952C206.431 390.984 206.175 391.016 205.887 391.048C205.599 391.08 205.285 391.107 204.943 391.128C204.613 391.16 204.282 391.176 203.951 391.176C203.482 391.176 203.05 391.128 202.655 391.032C202.261 390.936 201.919 390.787 201.631 390.584C201.343 390.371 201.119 390.093 200.959 389.752C200.799 389.411 200.719 389 200.719 388.52C200.719 388.061 200.81 387.667 200.991 387.336C201.183 387.005 201.439 386.739 201.759 386.536C202.079 386.333 202.453 386.184 202.879 386.088C203.306 385.992 203.754 385.944 204.223 385.944C204.373 385.944 204.527 385.955 204.687 385.976C204.847 385.987 204.997 386.008 205.135 386.04C205.285 386.061 205.413 386.083 205.519 386.104C205.626 386.125 205.701 386.141 205.743 386.152V385.736C205.743 385.491 205.717 385.251 205.663 385.016C205.61 384.771 205.514 384.557 205.375 384.376C205.237 384.184 205.045 384.035 204.799 383.928C204.565 383.811 204.255 383.752 203.871 383.752C203.381 383.752 202.949 383.789 202.575 383.864C202.213 383.928 201.941 383.997 201.759 384.072L201.583 382.84C201.775 382.755 202.095 382.675 202.543 382.6C202.991 382.515 203.477 382.472 203.999 382.472ZM216.99 391.192C216.318 391.192 215.726 391.085 215.214 390.872C214.712 390.659 214.286 390.36 213.934 389.976C213.592 389.592 213.336 389.139 213.166 388.616C212.995 388.083 212.91 387.496 212.91 386.856C212.91 386.216 213 385.629 213.182 385.096C213.374 384.563 213.64 384.104 213.982 383.72C214.323 383.325 214.739 383.021 215.23 382.808C215.731 382.584 216.286 382.472 216.894 382.472C217.267 382.472 217.64 382.504 218.014 382.568C218.387 382.632 218.744 382.733 219.086 382.872L218.75 384.136C218.526 384.029 218.264 383.944 217.966 383.88C217.678 383.816 217.368 383.784 217.038 383.784C216.206 383.784 215.566 384.045 215.118 384.568C214.68 385.091 214.462 385.853 214.462 386.856C214.462 387.304 214.51 387.715 214.606 388.088C214.712 388.461 214.872 388.781 215.086 389.048C215.31 389.315 215.592 389.523 215.934 389.672C216.275 389.811 216.691 389.88 217.182 389.88C217.576 389.88 217.934 389.843 218.254 389.768C218.574 389.693 218.824 389.613 219.006 389.528L219.214 390.776C219.128 390.829 219.006 390.883 218.846 390.936C218.686 390.979 218.504 391.016 218.302 391.048C218.099 391.091 217.88 391.123 217.646 391.144C217.422 391.176 217.203 391.192 216.99 391.192ZM223.627 389.928C223.979 389.928 224.289 389.923 224.555 389.912C224.833 389.891 225.062 389.859 225.243 389.816V387.336C225.137 387.283 224.961 387.24 224.715 387.208C224.481 387.165 224.193 387.144 223.851 387.144C223.627 387.144 223.387 387.16 223.131 387.192C222.886 387.224 222.657 387.293 222.443 387.4C222.241 387.496 222.07 387.635 221.931 387.816C221.793 387.987 221.723 388.216 221.723 388.504C221.723 389.037 221.894 389.411 222.235 389.624C222.577 389.827 223.041 389.928 223.627 389.928ZM223.499 382.472C224.097 382.472 224.598 382.552 225.003 382.712C225.419 382.861 225.75 383.08 225.995 383.368C226.251 383.645 226.433 383.981 226.539 384.376C226.646 384.76 226.699 385.187 226.699 385.656V390.856C226.571 390.877 226.39 390.909 226.155 390.952C225.931 390.984 225.675 391.016 225.387 391.048C225.099 391.08 224.785 391.107 224.443 391.128C224.113 391.16 223.782 391.176 223.451 391.176C222.982 391.176 222.55 391.128 222.155 391.032C221.761 390.936 221.419 390.787 221.131 390.584C220.843 390.371 220.619 390.093 220.459 389.752C220.299 389.411 220.219 389 220.219 388.52C220.219 388.061 220.31 387.667 220.491 387.336C220.683 387.005 220.939 386.739 221.259 386.536C221.579 386.333 221.953 386.184 222.379 386.088C222.806 385.992 223.254 385.944 223.723 385.944C223.873 385.944 224.027 385.955 224.187 385.976C224.347 385.987 224.497 386.008 224.635 386.04C224.785 386.061 224.913 386.083 225.019 386.104C225.126 386.125 225.201 386.141 225.243 386.152V385.736C225.243 385.491 225.217 385.251 225.163 385.016C225.11 384.771 225.014 384.557 224.875 384.376C224.737 384.184 224.545 384.035 224.299 383.928C224.065 383.811 223.755 383.752 223.371 383.752C222.881 383.752 222.449 383.789 222.075 383.864C221.713 383.928 221.441 383.997 221.259 384.072L221.083 382.84C221.275 382.755 221.595 382.675 222.043 382.6C222.491 382.515 222.977 382.472 223.499 382.472ZM230.563 382.68H233.715V383.928H230.563V387.768C230.563 388.184 230.595 388.531 230.659 388.808C230.723 389.075 230.819 389.288 230.947 389.448C231.075 389.597 231.235 389.704 231.427 389.768C231.619 389.832 231.843 389.864 232.099 389.864C232.547 389.864 232.904 389.816 233.171 389.72C233.448 389.613 233.64 389.539 233.747 389.496L234.035 390.728C233.885 390.803 233.624 390.893 233.251 391C232.877 391.117 232.451 391.176 231.971 391.176C231.405 391.176 230.936 391.107 230.563 390.968C230.2 390.819 229.907 390.6 229.683 390.312C229.459 390.024 229.299 389.672 229.203 389.256C229.117 388.829 229.075 388.339 229.075 387.784V380.36L230.563 380.104V382.68ZM238.424 389.928C238.776 389.928 239.085 389.923 239.352 389.912C239.629 389.891 239.859 389.859 240.04 389.816V387.336C239.933 387.283 239.757 387.24 239.512 387.208C239.277 387.165 238.989 387.144 238.648 387.144C238.424 387.144 238.184 387.16 237.928 387.192C237.683 387.224 237.453 387.293 237.24 387.4C237.037 387.496 236.867 387.635 236.728 387.816C236.589 387.987 236.52 388.216 236.52 388.504C236.52 389.037 236.691 389.411 237.032 389.624C237.373 389.827 237.837 389.928 238.424 389.928ZM238.296 382.472C238.893 382.472 239.395 382.552 239.8 382.712C240.216 382.861 240.547 383.08 240.792 383.368C241.048 383.645 241.229 383.981 241.336 384.376C241.443 384.76 241.496 385.187 241.496 385.656V390.856C241.368 390.877 241.187 390.909 240.952 390.952C240.728 390.984 240.472 391.016 240.184 391.048C239.896 391.08 239.581 391.107 239.24 391.128C238.909 391.16 238.579 391.176 238.248 391.176C237.779 391.176 237.347 391.128 236.952 391.032C236.557 390.936 236.216 390.787 235.928 390.584C235.64 390.371 235.416 390.093 235.256 389.752C235.096 389.411 235.016 389 235.016 388.52C235.016 388.061 235.107 387.667 235.288 387.336C235.48 387.005 235.736 386.739 236.056 386.536C236.376 386.333 236.749 386.184 237.176 386.088C237.603 385.992 238.051 385.944 238.52 385.944C238.669 385.944 238.824 385.955 238.984 385.976C239.144 385.987 239.293 386.008 239.432 386.04C239.581 386.061 239.709 386.083 239.816 386.104C239.923 386.125 239.997 386.141 240.04 386.152V385.736C240.04 385.491 240.013 385.251 239.96 385.016C239.907 384.771 239.811 384.557 239.672 384.376C239.533 384.184 239.341 384.035 239.096 383.928C238.861 383.811 238.552 383.752 238.168 383.752C237.677 383.752 237.245 383.789 236.872 383.864C236.509 383.928 236.237 383.997 236.056 384.072L235.88 382.84C236.072 382.755 236.392 382.675 236.84 382.6C237.288 382.515 237.773 382.472 238.296 382.472ZM246.464 391.16C245.546 391.139 244.896 390.941 244.512 390.568C244.128 390.195 243.936 389.613 243.936 388.824V378.84L245.424 378.584V388.584C245.424 388.829 245.445 389.032 245.488 389.192C245.53 389.352 245.6 389.48 245.696 389.576C245.792 389.672 245.92 389.747 246.08 389.8C246.24 389.843 246.437 389.88 246.672 389.912L246.464 391.16ZM255.687 386.84C255.687 387.501 255.591 388.099 255.399 388.632C255.207 389.165 254.935 389.624 254.583 390.008C254.241 390.392 253.831 390.691 253.351 390.904C252.871 391.107 252.348 391.208 251.783 391.208C251.217 391.208 250.695 391.107 250.215 390.904C249.735 390.691 249.319 390.392 248.967 390.008C248.625 389.624 248.359 389.165 248.167 388.632C247.975 388.099 247.879 387.501 247.879 386.84C247.879 386.189 247.975 385.597 248.167 385.064C248.359 384.52 248.625 384.056 248.967 383.672C249.319 383.288 249.735 382.995 250.215 382.792C250.695 382.579 251.217 382.472 251.783 382.472C252.348 382.472 252.871 382.579 253.351 382.792C253.831 382.995 254.241 383.288 254.583 383.672C254.935 384.056 255.207 384.52 255.399 385.064C255.591 385.597 255.687 386.189 255.687 386.84ZM254.135 386.84C254.135 385.901 253.921 385.16 253.495 384.616C253.079 384.061 252.508 383.784 251.783 383.784C251.057 383.784 250.481 384.061 250.055 384.616C249.639 385.16 249.431 385.901 249.431 386.84C249.431 387.779 249.639 388.525 250.055 389.08C250.481 389.624 251.057 389.896 251.783 389.896C252.508 389.896 253.079 389.624 253.495 389.08C253.921 388.525 254.135 387.779 254.135 386.84ZM262.996 390.168C262.868 390.253 262.617 390.365 262.244 390.504C261.881 390.632 261.455 390.696 260.964 390.696C260.463 390.696 259.988 390.616 259.54 390.456C259.103 390.296 258.719 390.051 258.388 389.72C258.057 389.379 257.796 388.957 257.604 388.456C257.412 387.955 257.316 387.357 257.316 386.664C257.316 386.056 257.407 385.501 257.588 385C257.769 384.488 258.031 384.051 258.372 383.688C258.724 383.315 259.151 383.027 259.652 382.824C260.153 382.611 260.719 382.504 261.348 382.504C262.041 382.504 262.644 382.557 263.156 382.664C263.679 382.76 264.116 382.851 264.468 382.936V390.36C264.468 391.64 264.137 392.568 263.476 393.144C262.815 393.72 261.812 394.008 260.468 394.008C259.945 394.008 259.449 393.965 258.98 393.88C258.521 393.795 258.121 393.693 257.78 393.576L258.052 392.28C258.351 392.397 258.713 392.499 259.14 392.584C259.577 392.68 260.031 392.728 260.5 392.728C261.385 392.728 262.02 392.552 262.404 392.2C262.799 391.848 262.996 391.288 262.996 390.52V390.168ZM262.98 383.992C262.831 383.949 262.628 383.912 262.372 383.88C262.127 383.837 261.791 383.816 261.364 383.816C260.564 383.816 259.945 384.077 259.508 384.6C259.081 385.123 258.868 385.816 258.868 386.68C258.868 387.16 258.927 387.571 259.044 387.912C259.172 388.253 259.337 388.536 259.54 388.76C259.753 388.984 259.993 389.149 260.26 389.256C260.537 389.363 260.82 389.416 261.108 389.416C261.503 389.416 261.865 389.363 262.196 389.256C262.527 389.139 262.788 389.005 262.98 388.856V383.992ZM273.654 390.76C273.313 390.845 272.859 390.936 272.294 391.032C271.739 391.128 271.094 391.176 270.358 391.176C269.718 391.176 269.179 391.085 268.742 390.904C268.305 390.712 267.953 390.445 267.686 390.104C267.419 389.763 267.227 389.363 267.11 388.904C266.993 388.435 266.934 387.917 266.934 387.352V382.68H268.422V387.032C268.422 388.045 268.582 388.771 268.902 389.208C269.222 389.645 269.761 389.864 270.518 389.864C270.678 389.864 270.843 389.859 271.014 389.848C271.185 389.837 271.345 389.827 271.494 389.816C271.643 389.795 271.777 389.779 271.894 389.768C272.022 389.747 272.113 389.725 272.166 389.704V382.68H273.654V390.76ZM275.754 386.856C275.754 386.12 275.86 385.48 276.074 384.936C276.287 384.381 276.57 383.923 276.922 383.56C277.274 383.197 277.679 382.925 278.138 382.744C278.596 382.563 279.066 382.472 279.546 382.472C280.666 382.472 281.524 382.824 282.122 383.528C282.719 384.221 283.017 385.283 283.017 386.712C283.017 386.776 283.017 386.861 283.017 386.968C283.017 387.064 283.012 387.155 283.002 387.24H277.306C277.37 388.104 277.62 388.76 278.058 389.208C278.495 389.656 279.178 389.88 280.106 389.88C280.628 389.88 281.066 389.837 281.418 389.752C281.78 389.656 282.052 389.565 282.234 389.48L282.442 390.728C282.26 390.824 281.94 390.925 281.482 391.032C281.034 391.139 280.522 391.192 279.946 391.192C279.22 391.192 278.591 391.085 278.058 390.872C277.535 390.648 277.103 390.344 276.762 389.96C276.42 389.576 276.164 389.123 275.993 388.6C275.834 388.067 275.754 387.485 275.754 386.856ZM281.466 386.04C281.476 385.368 281.306 384.819 280.954 384.392C280.612 383.955 280.138 383.736 279.53 383.736C279.188 383.736 278.884 383.805 278.618 383.944C278.362 384.072 278.143 384.243 277.962 384.456C277.78 384.669 277.636 384.915 277.53 385.192C277.434 385.469 277.37 385.752 277.338 386.04H281.466Z" fill="#464665"/>
</svg>
