<svg
  width="426"
  height="345"
  viewBox="0 0 426 345"
  fill="none"
  xmlns="http://www.w3.org/2000/svg"
>
<path
    d="M233.986 1.81278C212.112 -1.01678 194.184 9.75965 174.881 27.901C159.217 42.6107 133.778 43.5807 132.276 67.0333C130.453 95.5832 177.766 97.8776 191.701 111.678C228.744 148.469 276.705 143.592 289.097 109.818C300.134 79.7563 282.166 65.7556 275.83 46.4102C266.662 18.5226 257.068 4.7962 233.986 1.81278Z"
    fill="#DBEEFE"
  />
<path
    d="M203.305 86.4924L181.658 113.651C180.498 115.096 178.813 116.022 176.973 116.228C175.133 116.434 173.287 115.901 171.837 114.748V114.748C170.393 113.585 169.467 111.897 169.26 110.052C169.054 108.207 169.584 106.356 170.735 104.901L192.382 77.7495"
    fill="white"
  />
<path
    d="M222.394 97.3157C242.023 97.3157 257.936 81.3739 257.936 61.7087C257.936 42.0434 242.023 26.1016 222.394 26.1016C202.766 26.1016 186.853 42.0434 186.853 61.7087C186.853 81.3739 202.766 97.3157 222.394 97.3157Z"
    fill="white"
  />
<path
    d="M206.53 93.0279L184.89 120.18C183.729 121.627 182.044 122.555 180.202 122.76C178.36 122.966 176.512 122.432 175.062 121.277V121.277C173.617 120.114 172.691 118.425 172.486 116.58C172.281 114.735 172.813 112.883 173.967 111.43L197.109 82.3116"
    fill="white"
  />
<path
    d="M191.086 31.1253C185.828 37.6986 182.955 45.8662 182.937 54.2898C182.918 62.7133 185.756 70.8933 190.986 77.4895C196.215 84.0857 203.526 88.7069 211.719 90.596C219.913 92.4851 228.505 91.53 236.086 87.8873C243.667 84.2445 249.788 78.1301 253.447 70.5459C257.106 62.9616 258.085 54.3573 256.224 46.1427C254.363 37.928 249.772 30.5902 243.203 25.3315C236.635 20.0728 228.479 17.2051 220.071 17.1982C214.503 17.1727 209.002 18.4127 203.981 20.8251C198.961 23.2374 194.552 26.7591 191.086 31.1253V31.1253ZM220.071 20.2351C227.774 20.2481 235.245 22.881 241.259 27.7028C247.274 32.5245 251.477 39.2493 253.179 46.7762C254.881 54.303 253.982 62.1857 250.628 69.1337C247.275 76.0817 241.666 81.6832 234.721 85.021C227.775 88.3588 219.904 89.2351 212.397 87.5065C204.889 85.7779 198.19 81.5467 193.396 75.5058C188.602 69.4649 185.997 61.9723 186.008 54.2548C186.019 46.5372 188.645 39.0521 193.457 33.025C196.651 29.0292 200.701 25.8048 205.309 23.5908C209.916 21.3768 214.961 20.2299 220.071 20.2351V20.2351Z"
    fill="#B4DCF8"
  />
<path
    d="M176.177 117.424C174.647 117.417 173.15 116.979 171.857 116.159C170.564 115.34 169.528 114.172 168.867 112.79C168.206 111.408 167.946 109.867 168.118 108.344C168.291 106.821 168.887 105.378 169.84 104.179L191.48 77.0271L193.283 78.4653L171.636 105.624C170.708 106.84 170.292 108.372 170.478 109.892C170.663 111.411 171.436 112.798 172.63 113.753C173.824 114.709 175.345 115.158 176.865 115.004C178.386 114.849 179.785 114.104 180.764 112.928L202.404 85.7767L204.207 87.2149L182.56 114.387C181.893 115.225 181.067 115.922 180.129 116.439C179.192 116.956 178.162 117.281 177.098 117.397C176.792 117.423 176.484 117.431 176.177 117.424Z"
    fill="#B4DCF8"
  />
<path
    d="M216.795 52.832L206.472 61.0526L208.263 63.3096L218.586 55.0889L216.795 52.832Z"
    fill="#78BCE4"
  />
<path
    d="M208.264 52.8296L206.473 55.0869L216.798 63.3057L218.588 61.0485L208.264 52.8296Z"
    fill="#78BCE4"
  />
<path
    d="M216.919 79.6025C216.56 79.6017 216.209 79.4886 215.917 79.2789C215.624 79.0692 215.404 78.7734 215.288 78.4327C215.171 78.0919 215.163 77.7231 215.265 77.3777C215.367 77.0323 215.574 76.7273 215.858 76.5053C218.599 74.4225 221.934 73.2723 225.374 73.223C228.814 73.1737 232.18 74.2277 234.98 76.2311C235.303 76.5137 235.509 76.9068 235.558 77.3335C235.607 77.7602 235.496 78.19 235.245 78.5386C234.995 78.8873 234.624 79.1299 234.204 79.219C233.785 79.3082 233.347 79.2374 232.977 79.0205C230.834 77.489 228.265 76.6701 225.633 76.6793C222.881 76.6629 220.202 77.5616 218.014 79.2346C217.702 79.4798 217.316 79.6097 216.919 79.6025V79.6025Z"
    fill="#78BCE4"
  />
<path
    d="M242.468 52.8352L232.145 61.0559L233.936 63.3128L244.259 55.0922L242.468 52.8352Z"
    fill="#78BCE4"
  />
<path
    d="M233.936 52.8271L232.146 55.0844L242.47 63.3032L244.261 61.0459L233.936 52.8271Z"
    fill="#78BCE4"
  />
<path
    d="M202.577 47.9354C202.261 47.9344 201.951 47.8465 201.681 47.6814C201.412 47.5162 201.192 47.2801 201.047 46.9988C200.902 46.7174 200.836 46.4015 200.858 46.0854C200.879 45.7694 200.987 45.4653 201.168 45.2062C201.522 44.7045 201.883 44.2162 202.27 43.7345C207.217 37.5095 214.415 33.4905 222.301 32.5501C222.526 32.5224 222.754 32.5394 222.972 32.6C223.191 32.6607 223.395 32.7639 223.574 32.9036C223.752 33.0434 223.901 33.217 224.013 33.4146C224.125 33.6122 224.196 33.8298 224.224 34.0551C224.252 34.2805 224.235 34.509 224.174 34.7278C224.113 34.9466 224.01 35.1512 223.871 35.3301C223.731 35.509 223.558 35.6586 223.361 35.7704C223.164 35.8822 222.946 35.954 222.722 35.9817C215.738 36.8231 209.367 40.3872 204.988 45.9019C204.647 46.3233 204.32 46.7581 204.013 47.1996C203.852 47.4303 203.637 47.6179 203.386 47.7462C203.136 47.8744 202.858 47.9394 202.577 47.9354V47.9354Z"
    fill="white"
  />
<path
    d="M133.146 187H130.285L123.264 175.623H123.186L123.234 176.258C123.326 177.469 123.371 178.576 123.371 179.578V187H121.252V172.723H124.084L131.086 184.041H131.145C131.132 183.891 131.105 183.348 131.066 182.41C131.027 181.466 131.008 180.73 131.008 180.203V172.723H133.146V187ZM146.252 181.58C146.252 183.344 145.799 184.721 144.895 185.711C143.99 186.701 142.73 187.195 141.115 187.195C140.106 187.195 139.214 186.967 138.439 186.512C137.665 186.056 137.069 185.402 136.652 184.549C136.236 183.696 136.027 182.706 136.027 181.58C136.027 179.829 136.477 178.462 137.375 177.479C138.273 176.495 139.54 176.004 141.174 176.004C142.736 176.004 143.973 176.508 144.885 177.518C145.796 178.52 146.252 179.874 146.252 181.58ZM138.391 181.58C138.391 184.074 139.312 185.32 141.154 185.32C142.977 185.32 143.889 184.074 143.889 181.58C143.889 179.113 142.971 177.879 141.135 177.879C140.171 177.879 139.471 178.198 139.035 178.836C138.605 179.474 138.391 180.389 138.391 181.58ZM163.195 187L161.77 183.035H156.311L154.914 187H152.453L157.795 172.664H160.334L165.676 187H163.195ZM161.154 181.023L159.816 177.137C159.719 176.876 159.582 176.466 159.406 175.906C159.237 175.346 159.12 174.936 159.055 174.676C158.879 175.477 158.622 176.352 158.283 177.303L156.994 181.023H161.154ZM171.672 187.195C170.038 187.195 168.794 186.72 167.941 185.77C167.095 184.812 166.672 183.442 166.672 181.658C166.672 179.842 167.115 178.445 168 177.469C168.892 176.492 170.178 176.004 171.857 176.004C172.997 176.004 174.022 176.215 174.934 176.639L174.24 178.484C173.27 178.107 172.469 177.918 171.838 177.918C169.969 177.918 169.035 179.158 169.035 181.639C169.035 182.85 169.266 183.761 169.729 184.373C170.197 184.979 170.881 185.281 171.779 185.281C172.801 185.281 173.768 185.027 174.68 184.52V186.521C174.27 186.762 173.83 186.935 173.361 187.039C172.899 187.143 172.336 187.195 171.672 187.195ZM181.574 187.195C179.94 187.195 178.697 186.72 177.844 185.77C176.997 184.812 176.574 183.442 176.574 181.658C176.574 179.842 177.017 178.445 177.902 177.469C178.794 176.492 180.08 176.004 181.76 176.004C182.899 176.004 183.924 176.215 184.836 176.639L184.143 178.484C183.173 178.107 182.372 177.918 181.74 177.918C179.872 177.918 178.938 179.158 178.938 181.639C178.938 182.85 179.169 183.761 179.631 184.373C180.1 184.979 180.783 185.281 181.682 185.281C182.704 185.281 183.671 185.027 184.582 184.52V186.521C184.172 186.762 183.732 186.935 183.264 187.039C182.801 187.143 182.238 187.195 181.574 187.195ZM196.701 181.58C196.701 183.344 196.249 184.721 195.344 185.711C194.439 186.701 193.179 187.195 191.564 187.195C190.555 187.195 189.663 186.967 188.889 186.512C188.114 186.056 187.518 185.402 187.102 184.549C186.685 183.696 186.477 182.706 186.477 181.58C186.477 179.829 186.926 178.462 187.824 177.479C188.723 176.495 189.989 176.004 191.623 176.004C193.186 176.004 194.423 176.508 195.334 177.518C196.245 178.52 196.701 179.874 196.701 181.58ZM188.84 181.58C188.84 184.074 189.761 185.32 191.604 185.32C193.426 185.32 194.338 184.074 194.338 181.58C194.338 179.113 193.42 177.879 191.584 177.879C190.62 177.879 189.921 178.198 189.484 178.836C189.055 179.474 188.84 180.389 188.84 181.58ZM206.965 187L206.643 185.584H206.525C206.206 186.085 205.751 186.479 205.158 186.766C204.572 187.052 203.902 187.195 203.146 187.195C201.838 187.195 200.861 186.87 200.217 186.219C199.572 185.568 199.25 184.581 199.25 183.26V176.199H201.564V182.859C201.564 183.686 201.734 184.308 202.072 184.725C202.411 185.135 202.941 185.34 203.664 185.34C204.628 185.34 205.334 185.053 205.783 184.48C206.239 183.901 206.467 182.934 206.467 181.58V176.199H208.771V187H206.965ZM221.545 187H219.24V180.359C219.24 179.526 219.071 178.904 218.732 178.494C218.4 178.084 217.87 177.879 217.141 177.879C216.171 177.879 215.461 178.165 215.012 178.738C214.562 179.311 214.338 180.271 214.338 181.619V187H212.043V176.199H213.84L214.162 177.615H214.279C214.605 177.101 215.067 176.704 215.666 176.424C216.265 176.144 216.929 176.004 217.658 176.004C220.249 176.004 221.545 177.322 221.545 179.959V187ZM228.762 185.34C229.322 185.34 229.882 185.252 230.441 185.076V186.805C230.188 186.915 229.859 187.007 229.455 187.078C229.058 187.156 228.645 187.195 228.215 187.195C226.04 187.195 224.953 186.049 224.953 183.758V177.938H223.479V176.922L225.061 176.082L225.842 173.797H227.258V176.199H230.334V177.938H227.258V183.719C227.258 184.272 227.395 184.682 227.668 184.949C227.948 185.21 228.312 185.34 228.762 185.34ZM239.865 183.924C239.865 184.979 239.481 185.789 238.713 186.355C237.945 186.915 236.844 187.195 235.412 187.195C233.973 187.195 232.818 186.977 231.945 186.541V184.559C233.215 185.145 234.396 185.438 235.49 185.438C236.903 185.438 237.609 185.011 237.609 184.158C237.609 183.885 237.531 183.657 237.375 183.475C237.219 183.292 236.962 183.104 236.604 182.908C236.245 182.713 235.747 182.492 235.109 182.244C233.866 181.762 233.023 181.281 232.58 180.799C232.144 180.317 231.926 179.692 231.926 178.924C231.926 177.999 232.297 177.283 233.039 176.775C233.788 176.261 234.803 176.004 236.086 176.004C237.355 176.004 238.557 176.261 239.689 176.775L238.947 178.504C237.782 178.022 236.802 177.781 236.008 177.781C234.797 177.781 234.191 178.126 234.191 178.816C234.191 179.155 234.348 179.441 234.66 179.676C234.979 179.91 235.669 180.232 236.73 180.643C237.622 180.988 238.27 181.303 238.674 181.59C239.077 181.876 239.377 182.208 239.572 182.586C239.768 182.957 239.865 183.403 239.865 183.924ZM250.109 187H247.795V172.723H255.852V174.695H250.109V179.158H255.49V181.141H250.109V187ZM267.775 181.58C267.775 183.344 267.323 184.721 266.418 185.711C265.513 186.701 264.253 187.195 262.639 187.195C261.63 187.195 260.738 186.967 259.963 186.512C259.188 186.056 258.592 185.402 258.176 184.549C257.759 183.696 257.551 182.706 257.551 181.58C257.551 179.829 258 178.462 258.898 177.479C259.797 176.495 261.063 176.004 262.697 176.004C264.26 176.004 265.497 176.508 266.408 177.518C267.32 178.52 267.775 179.874 267.775 181.58ZM259.914 181.58C259.914 184.074 260.835 185.32 262.678 185.32C264.501 185.32 265.412 184.074 265.412 181.58C265.412 179.113 264.494 177.879 262.658 177.879C261.695 177.879 260.995 178.198 260.559 178.836C260.129 179.474 259.914 180.389 259.914 181.58ZM278.039 187L277.717 185.584H277.6C277.281 186.085 276.825 186.479 276.232 186.766C275.646 187.052 274.976 187.195 274.221 187.195C272.912 187.195 271.936 186.87 271.291 186.219C270.646 185.568 270.324 184.581 270.324 183.26V176.199H272.639V182.859C272.639 183.686 272.808 184.308 273.146 184.725C273.485 185.135 274.016 185.34 274.738 185.34C275.702 185.34 276.408 185.053 276.857 184.48C277.313 183.901 277.541 182.934 277.541 181.58V176.199H279.846V187H278.039ZM292.619 187H290.314V180.359C290.314 179.526 290.145 178.904 289.807 178.494C289.475 178.084 288.944 177.879 288.215 177.879C287.245 177.879 286.535 178.165 286.086 178.738C285.637 179.311 285.412 180.271 285.412 181.619V187H283.117V176.199H284.914L285.236 177.615H285.354C285.679 177.101 286.141 176.704 286.74 176.424C287.339 176.144 288.003 176.004 288.732 176.004C291.324 176.004 292.619 177.322 292.619 179.959V187ZM299.455 187.195C298.107 187.195 297.056 186.707 296.301 185.73C295.546 184.754 295.168 183.383 295.168 181.619C295.168 179.848 295.549 178.471 296.311 177.488C297.079 176.499 298.14 176.004 299.494 176.004C300.913 176.004 301.994 176.528 302.736 177.576H302.854C302.743 176.801 302.688 176.189 302.688 175.74V171.805H304.992V187H303.195L302.795 185.584H302.688C301.952 186.658 300.874 187.195 299.455 187.195ZM300.07 185.34C301.014 185.34 301.701 185.076 302.131 184.549C302.561 184.015 302.782 183.152 302.795 181.961V181.639C302.795 180.278 302.574 179.311 302.131 178.738C301.688 178.165 300.995 177.879 300.051 177.879C299.243 177.879 298.622 178.208 298.186 178.865C297.749 179.516 297.531 180.447 297.531 181.658C297.531 182.856 297.743 183.771 298.166 184.402C298.589 185.027 299.224 185.34 300.07 185.34Z"
    fill="black"
  />
<path
    d="M10.0312 220V208.578H11.3594V218.797H16.3984V220H10.0312ZM25.5391 215.711C25.5391 217.107 25.1875 218.198 24.4844 218.984C23.7812 219.766 22.8099 220.156 21.5703 220.156C20.8047 220.156 20.125 219.977 19.5312 219.617C18.9375 219.258 18.4792 218.742 18.1562 218.07C17.8333 217.398 17.6719 216.612 17.6719 215.711C17.6719 214.315 18.0208 213.229 18.7188 212.453C19.4167 211.672 20.3854 211.281 21.625 211.281C22.8229 211.281 23.7734 211.68 24.4766 212.477C25.1849 213.273 25.5391 214.352 25.5391 215.711ZM19.0156 215.711C19.0156 216.805 19.2344 217.638 19.6719 218.211C20.1094 218.784 20.7526 219.07 21.6016 219.07C22.4505 219.07 23.0938 218.786 23.5312 218.219C23.974 217.646 24.1953 216.81 24.1953 215.711C24.1953 214.622 23.974 213.797 23.5312 213.234C23.0938 212.667 22.4453 212.383 21.5859 212.383C20.737 212.383 20.0964 212.661 19.6641 213.219C19.2318 213.776 19.0156 214.607 19.0156 215.711ZM35.2109 215.711C35.2109 217.107 34.8594 218.198 34.1562 218.984C33.4531 219.766 32.4818 220.156 31.2422 220.156C30.4766 220.156 29.7969 219.977 29.2031 219.617C28.6094 219.258 28.151 218.742 27.8281 218.07C27.5052 217.398 27.3438 216.612 27.3438 215.711C27.3438 214.315 27.6927 213.229 28.3906 212.453C29.0885 211.672 30.0573 211.281 31.2969 211.281C32.4948 211.281 33.4453 211.68 34.1484 212.477C34.8568 213.273 35.2109 214.352 35.2109 215.711ZM28.6875 215.711C28.6875 216.805 28.9062 217.638 29.3438 218.211C29.7812 218.784 30.4245 219.07 31.2734 219.07C32.1224 219.07 32.7656 218.786 33.2031 218.219C33.6458 217.646 33.8672 216.81 33.8672 215.711C33.8672 214.622 33.6458 213.797 33.2031 213.234C32.7656 212.667 32.1172 212.383 31.2578 212.383C30.4089 212.383 29.7682 212.661 29.3359 213.219C28.9036 213.776 28.6875 214.607 28.6875 215.711ZM38.7734 215.617C38.9974 215.299 39.3385 214.883 39.7969 214.367L42.5625 211.438H44.1016L40.6328 215.086L44.3438 220H42.7734L39.75 215.953L38.7734 216.797V220H37.4922V207.844H38.7734V214.289C38.7734 214.576 38.7526 215.018 38.7109 215.617H38.7734ZM51.4219 217.664C51.4219 218.461 51.125 219.076 50.5312 219.508C49.9375 219.94 49.1042 220.156 48.0312 220.156C46.8958 220.156 46.0104 219.977 45.375 219.617V218.414C45.7865 218.622 46.2266 218.786 46.6953 218.906C47.1693 219.026 47.625 219.086 48.0625 219.086C48.7396 219.086 49.2604 218.979 49.625 218.766C49.9896 218.547 50.1719 218.216 50.1719 217.773C50.1719 217.44 50.026 217.156 49.7344 216.922C49.4479 216.682 48.8854 216.401 48.0469 216.078C47.25 215.781 46.6823 215.523 46.3438 215.305C46.0104 215.081 45.7604 214.828 45.5938 214.547C45.4323 214.266 45.3516 213.93 45.3516 213.539C45.3516 212.841 45.6354 212.292 46.2031 211.891C46.7708 211.484 47.5495 211.281 48.5391 211.281C49.4609 211.281 50.362 211.469 51.2422 211.844L50.7812 212.898C49.9219 212.544 49.1432 212.367 48.4453 212.367C47.8307 212.367 47.3672 212.464 47.0547 212.656C46.7422 212.849 46.5859 213.115 46.5859 213.453C46.5859 213.682 46.6432 213.878 46.7578 214.039C46.8776 214.201 47.0677 214.354 47.3281 214.5C47.5885 214.646 48.0885 214.857 48.8281 215.133C49.8438 215.503 50.5286 215.875 50.8828 216.25C51.2422 216.625 51.4219 217.096 51.4219 217.664ZM58.9922 220H57.6953V207.844H58.9922V220ZM63.0391 220H61.7422V211.438H63.0391V220ZM61.6328 209.117C61.6328 208.82 61.7057 208.604 61.8516 208.469C61.9974 208.328 62.1797 208.258 62.3984 208.258C62.6068 208.258 62.7865 208.328 62.9375 208.469C63.0885 208.609 63.1641 208.826 63.1641 209.117C63.1641 209.409 63.0885 209.628 62.9375 209.773C62.7865 209.914 62.6068 209.984 62.3984 209.984C62.1797 209.984 61.9974 209.914 61.8516 209.773C61.7057 209.628 61.6328 209.409 61.6328 209.117ZM67.0703 215.617C67.2943 215.299 67.6354 214.883 68.0938 214.367L70.8594 211.438H72.3984L68.9297 215.086L72.6406 220H71.0703L68.0469 215.953L67.0703 216.797V220H65.7891V207.844H67.0703V214.289C67.0703 214.576 67.0495 215.018 67.0078 215.617H67.0703ZM77.8125 220.156C76.5469 220.156 75.5469 219.771 74.8125 219C74.0833 218.229 73.7188 217.159 73.7188 215.789C73.7188 214.409 74.0573 213.312 74.7344 212.5C75.4167 211.688 76.3307 211.281 77.4766 211.281C78.5495 211.281 79.3984 211.635 80.0234 212.344C80.6484 213.047 80.9609 213.977 80.9609 215.133V215.953H75.0625C75.0885 216.958 75.3411 217.721 75.8203 218.242C76.3047 218.763 76.9844 219.023 77.8594 219.023C78.7812 219.023 79.6927 218.831 80.5938 218.445V219.602C80.1354 219.799 79.7005 219.94 79.2891 220.023C78.8828 220.112 78.3906 220.156 77.8125 220.156ZM77.4609 212.367C76.7734 212.367 76.224 212.591 75.8125 213.039C75.4062 213.487 75.1667 214.107 75.0938 214.898H79.5703C79.5703 214.081 79.388 213.456 79.0234 213.023C78.6589 212.586 78.138 212.367 77.4609 212.367ZM85.9766 211.438H87.3672L89.2422 216.32C89.6536 217.435 89.9089 218.24 90.0078 218.734H90.0703C90.138 218.469 90.2786 218.016 90.4922 217.375C90.7109 216.729 91.4193 214.75 92.6172 211.438H94.0078L90.3281 221.188C89.9635 222.151 89.5365 222.833 89.0469 223.234C88.5625 223.641 87.9661 223.844 87.2578 223.844C86.862 223.844 86.4714 223.799 86.0859 223.711V222.672C86.3724 222.734 86.6927 222.766 87.0469 222.766C87.9375 222.766 88.5729 222.266 88.9531 221.266L89.4297 220.047L85.9766 211.438ZM102.789 215.711C102.789 217.107 102.438 218.198 101.734 218.984C101.031 219.766 100.06 220.156 98.8203 220.156C98.0547 220.156 97.375 219.977 96.7812 219.617C96.1875 219.258 95.7292 218.742 95.4062 218.07C95.0833 217.398 94.9219 216.612 94.9219 215.711C94.9219 214.315 95.2708 213.229 95.9688 212.453C96.6667 211.672 97.6354 211.281 98.875 211.281C100.073 211.281 101.023 211.68 101.727 212.477C102.435 213.273 102.789 214.352 102.789 215.711ZM96.2656 215.711C96.2656 216.805 96.4844 217.638 96.9219 218.211C97.3594 218.784 98.0026 219.07 98.8516 219.07C99.7005 219.07 100.344 218.786 100.781 218.219C101.224 217.646 101.445 216.81 101.445 215.711C101.445 214.622 101.224 213.797 100.781 213.234C100.344 212.667 99.6953 212.383 98.8359 212.383C97.987 212.383 97.3464 212.661 96.9141 213.219C96.4818 213.776 96.2656 214.607 96.2656 215.711ZM106.289 211.438V216.992C106.289 217.69 106.448 218.211 106.766 218.555C107.083 218.898 107.581 219.07 108.258 219.07C109.154 219.07 109.807 218.826 110.219 218.336C110.635 217.846 110.844 217.047 110.844 215.938V211.438H112.141V220H111.07L110.883 218.852H110.812C110.547 219.273 110.177 219.596 109.703 219.82C109.234 220.044 108.698 220.156 108.094 220.156C107.052 220.156 106.271 219.909 105.75 219.414C105.234 218.919 104.977 218.128 104.977 217.039V211.438H106.289ZM124.914 220V214.461C124.914 213.763 124.755 213.242 124.438 212.898C124.12 212.555 123.622 212.383 122.945 212.383C122.044 212.383 121.385 212.628 120.969 213.117C120.557 213.607 120.352 214.409 120.352 215.523V220H119.055V207.844H120.352V211.523C120.352 211.966 120.331 212.333 120.289 212.625H120.367C120.622 212.214 120.984 211.891 121.453 211.656C121.927 211.417 122.466 211.297 123.07 211.297C124.117 211.297 124.901 211.547 125.422 212.047C125.948 212.542 126.211 213.331 126.211 214.414V220H124.914ZM134.148 220L133.891 218.781H133.828C133.401 219.318 132.974 219.682 132.547 219.875C132.125 220.062 131.596 220.156 130.961 220.156C130.112 220.156 129.445 219.938 128.961 219.5C128.482 219.062 128.242 218.44 128.242 217.633C128.242 215.904 129.625 214.997 132.391 214.914L133.844 214.867V214.336C133.844 213.664 133.698 213.169 133.406 212.852C133.12 212.529 132.659 212.367 132.023 212.367C131.31 212.367 130.503 212.586 129.602 213.023L129.203 212.031C129.625 211.802 130.086 211.622 130.586 211.492C131.091 211.362 131.596 211.297 132.102 211.297C133.122 211.297 133.878 211.523 134.367 211.977C134.862 212.43 135.109 213.156 135.109 214.156V220H134.148ZM131.219 219.086C132.026 219.086 132.659 218.865 133.117 218.422C133.581 217.979 133.812 217.359 133.812 216.562V215.789L132.516 215.844C131.484 215.88 130.74 216.042 130.281 216.328C129.828 216.609 129.602 217.049 129.602 217.648C129.602 218.117 129.742 218.474 130.023 218.719C130.31 218.964 130.708 219.086 131.219 219.086ZM139.664 220L136.414 211.438H137.805L139.648 216.516C140.065 217.703 140.31 218.474 140.383 218.828H140.445C140.503 218.552 140.682 217.982 140.984 217.117C141.292 216.247 141.977 214.354 143.039 211.438H144.43L141.18 220H139.664ZM149.422 220.156C148.156 220.156 147.156 219.771 146.422 219C145.693 218.229 145.328 217.159 145.328 215.789C145.328 214.409 145.667 213.312 146.344 212.5C147.026 211.688 147.94 211.281 149.086 211.281C150.159 211.281 151.008 211.635 151.633 212.344C152.258 213.047 152.57 213.977 152.57 215.133V215.953H146.672C146.698 216.958 146.951 217.721 147.43 218.242C147.914 218.763 148.594 219.023 149.469 219.023C150.391 219.023 151.302 218.831 152.203 218.445V219.602C151.745 219.799 151.31 219.94 150.898 220.023C150.492 220.112 150 220.156 149.422 220.156ZM149.07 212.367C148.383 212.367 147.833 212.591 147.422 213.039C147.016 213.487 146.776 214.107 146.703 214.898H151.18C151.18 214.081 150.997 213.456 150.633 213.023C150.268 212.586 149.747 212.367 149.07 212.367ZM160.648 220V214.461C160.648 213.763 160.49 213.242 160.172 212.898C159.854 212.555 159.357 212.383 158.68 212.383C157.784 212.383 157.128 212.625 156.711 213.109C156.294 213.594 156.086 214.393 156.086 215.508V220H154.789V211.438H155.844L156.055 212.609H156.117C156.383 212.188 156.755 211.862 157.234 211.633C157.714 211.398 158.247 211.281 158.836 211.281C159.867 211.281 160.643 211.531 161.164 212.031C161.685 212.526 161.945 213.32 161.945 214.414V220H160.648ZM165.656 208.578L165.773 208.75C165.638 209.271 165.443 209.878 165.188 210.57C164.932 211.258 164.667 211.898 164.391 212.492H163.438C163.802 211.008 164.068 209.703 164.234 208.578H165.656ZM170.102 219.086C170.331 219.086 170.552 219.07 170.766 219.039C170.979 219.003 171.148 218.966 171.273 218.93V219.922C171.133 219.99 170.924 220.044 170.648 220.086C170.378 220.133 170.133 220.156 169.914 220.156C168.258 220.156 167.43 219.284 167.43 217.539V212.445H166.203V211.82L167.43 211.281L167.977 209.453H168.727V211.438H171.211V212.445H168.727V217.484C168.727 218 168.849 218.396 169.094 218.672C169.339 218.948 169.674 219.086 170.102 219.086ZM182.414 220L182.156 218.781H182.094C181.667 219.318 181.24 219.682 180.812 219.875C180.391 220.062 179.862 220.156 179.227 220.156C178.378 220.156 177.711 219.938 177.227 219.5C176.747 219.062 176.508 218.44 176.508 217.633C176.508 215.904 177.891 214.997 180.656 214.914L182.109 214.867V214.336C182.109 213.664 181.964 213.169 181.672 212.852C181.385 212.529 180.924 212.367 180.289 212.367C179.576 212.367 178.768 212.586 177.867 213.023L177.469 212.031C177.891 211.802 178.352 211.622 178.852 211.492C179.357 211.362 179.862 211.297 180.367 211.297C181.388 211.297 182.143 211.523 182.633 211.977C183.128 212.43 183.375 213.156 183.375 214.156V220H182.414ZM179.484 219.086C180.292 219.086 180.924 218.865 181.383 218.422C181.846 217.979 182.078 217.359 182.078 216.562V215.789L180.781 215.844C179.75 215.88 179.005 216.042 178.547 216.328C178.094 216.609 177.867 217.049 177.867 217.648C177.867 218.117 178.008 218.474 178.289 218.719C178.576 218.964 178.974 219.086 179.484 219.086ZM191.883 218.852H191.812C191.214 219.721 190.318 220.156 189.125 220.156C188.005 220.156 187.133 219.773 186.508 219.008C185.888 218.242 185.578 217.154 185.578 215.742C185.578 214.331 185.891 213.234 186.516 212.453C187.141 211.672 188.01 211.281 189.125 211.281C190.286 211.281 191.177 211.703 191.797 212.547H191.898L191.844 211.93L191.812 211.328V207.844H193.109V220H192.055L191.883 218.852ZM189.289 219.07C190.174 219.07 190.815 218.831 191.211 218.352C191.612 217.867 191.812 217.089 191.812 216.016V215.742C191.812 214.529 191.609 213.664 191.203 213.148C190.802 212.628 190.159 212.367 189.273 212.367C188.513 212.367 187.93 212.664 187.523 213.258C187.122 213.846 186.922 214.68 186.922 215.758C186.922 216.852 187.122 217.677 187.523 218.234C187.924 218.792 188.513 219.07 189.289 219.07ZM201.695 218.852H201.625C201.026 219.721 200.13 220.156 198.938 220.156C197.818 220.156 196.945 219.773 196.32 219.008C195.701 218.242 195.391 217.154 195.391 215.742C195.391 214.331 195.703 213.234 196.328 212.453C196.953 211.672 197.823 211.281 198.938 211.281C200.099 211.281 200.99 211.703 201.609 212.547H201.711L201.656 211.93L201.625 211.328V207.844H202.922V220H201.867L201.695 218.852ZM199.102 219.07C199.987 219.07 200.628 218.831 201.023 218.352C201.424 217.867 201.625 217.089 201.625 216.016V215.742C201.625 214.529 201.422 213.664 201.016 213.148C200.615 212.628 199.971 212.367 199.086 212.367C198.326 212.367 197.742 212.664 197.336 213.258C196.935 213.846 196.734 214.68 196.734 215.758C196.734 216.852 196.935 217.677 197.336 218.234C197.737 218.792 198.326 219.07 199.102 219.07ZM209.297 220.156C208.031 220.156 207.031 219.771 206.297 219C205.568 218.229 205.203 217.159 205.203 215.789C205.203 214.409 205.542 213.312 206.219 212.5C206.901 211.688 207.815 211.281 208.961 211.281C210.034 211.281 210.883 211.635 211.508 212.344C212.133 213.047 212.445 213.977 212.445 215.133V215.953H206.547C206.573 216.958 206.826 217.721 207.305 218.242C207.789 218.763 208.469 219.023 209.344 219.023C210.266 219.023 211.177 218.831 212.078 218.445V219.602C211.62 219.799 211.185 219.94 210.773 220.023C210.367 220.112 209.875 220.156 209.297 220.156ZM208.945 212.367C208.258 212.367 207.708 212.591 207.297 213.039C206.891 213.487 206.651 214.107 206.578 214.898H211.055C211.055 214.081 210.872 213.456 210.508 213.023C210.143 212.586 209.622 212.367 208.945 212.367ZM220.492 218.852H220.422C219.823 219.721 218.927 220.156 217.734 220.156C216.615 220.156 215.742 219.773 215.117 219.008C214.497 218.242 214.188 217.154 214.188 215.742C214.188 214.331 214.5 213.234 215.125 212.453C215.75 211.672 216.62 211.281 217.734 211.281C218.896 211.281 219.786 211.703 220.406 212.547H220.508L220.453 211.93L220.422 211.328V207.844H221.719V220H220.664L220.492 218.852ZM217.898 219.07C218.784 219.07 219.424 218.831 219.82 218.352C220.221 217.867 220.422 217.089 220.422 216.016V215.742C220.422 214.529 220.219 213.664 219.812 213.148C219.411 212.628 218.768 212.367 217.883 212.367C217.122 212.367 216.539 212.664 216.133 213.258C215.732 213.846 215.531 214.68 215.531 215.758C215.531 216.852 215.732 217.677 216.133 218.234C216.534 218.792 217.122 219.07 217.898 219.07ZM233.898 220L233.641 218.781H233.578C233.151 219.318 232.724 219.682 232.297 219.875C231.875 220.062 231.346 220.156 230.711 220.156C229.862 220.156 229.195 219.938 228.711 219.5C228.232 219.062 227.992 218.44 227.992 217.633C227.992 215.904 229.375 214.997 232.141 214.914L233.594 214.867V214.336C233.594 213.664 233.448 213.169 233.156 212.852C232.87 212.529 232.409 212.367 231.773 212.367C231.06 212.367 230.253 212.586 229.352 213.023L228.953 212.031C229.375 211.802 229.836 211.622 230.336 211.492C230.841 211.362 231.346 211.297 231.852 211.297C232.872 211.297 233.628 211.523 234.117 211.977C234.612 212.43 234.859 213.156 234.859 214.156V220H233.898ZM230.969 219.086C231.776 219.086 232.409 218.865 232.867 218.422C233.331 217.979 233.562 217.359 233.562 216.562V215.789L232.266 215.844C231.234 215.88 230.49 216.042 230.031 216.328C229.578 216.609 229.352 217.049 229.352 217.648C229.352 218.117 229.492 218.474 229.773 218.719C230.06 218.964 230.458 219.086 230.969 219.086ZM243.398 220V214.461C243.398 213.763 243.24 213.242 242.922 212.898C242.604 212.555 242.107 212.383 241.43 212.383C240.534 212.383 239.878 212.625 239.461 213.109C239.044 213.594 238.836 214.393 238.836 215.508V220H237.539V211.438H238.594L238.805 212.609H238.867C239.133 212.188 239.505 211.862 239.984 211.633C240.464 211.398 240.997 211.281 241.586 211.281C242.617 211.281 243.393 211.531 243.914 212.031C244.435 212.526 244.695 213.32 244.695 214.414V220H243.398ZM246.008 211.438H247.398L249.273 216.32C249.685 217.435 249.94 218.24 250.039 218.734H250.102C250.169 218.469 250.31 218.016 250.523 217.375C250.742 216.729 251.451 214.75 252.648 211.438H254.039L250.359 221.188C249.995 222.151 249.568 222.833 249.078 223.234C248.594 223.641 247.997 223.844 247.289 223.844C246.893 223.844 246.503 223.799 246.117 223.711V222.672C246.404 222.734 246.724 222.766 247.078 222.766C247.969 222.766 248.604 222.266 248.984 221.266L249.461 220.047L246.008 211.438ZM263.57 211.297C264.695 211.297 265.568 211.682 266.188 212.453C266.812 213.219 267.125 214.305 267.125 215.711C267.125 217.117 266.81 218.211 266.18 218.992C265.555 219.768 264.685 220.156 263.57 220.156C263.013 220.156 262.503 220.055 262.039 219.852C261.581 219.643 261.195 219.326 260.883 218.898H260.789L260.516 220H259.586V207.844H260.883V210.797C260.883 211.458 260.862 212.052 260.82 212.578H260.883C261.487 211.724 262.383 211.297 263.57 211.297ZM263.383 212.383C262.497 212.383 261.859 212.638 261.469 213.148C261.078 213.654 260.883 214.508 260.883 215.711C260.883 216.914 261.083 217.776 261.484 218.297C261.885 218.812 262.529 219.07 263.414 219.07C264.211 219.07 264.805 218.781 265.195 218.203C265.586 217.62 265.781 216.784 265.781 215.695C265.781 214.581 265.586 213.75 265.195 213.203C264.805 212.656 264.201 212.383 263.383 212.383ZM274.664 220L274.406 218.781H274.344C273.917 219.318 273.49 219.682 273.062 219.875C272.641 220.062 272.112 220.156 271.477 220.156C270.628 220.156 269.961 219.938 269.477 219.5C268.997 219.062 268.758 218.44 268.758 217.633C268.758 215.904 270.141 214.997 272.906 214.914L274.359 214.867V214.336C274.359 213.664 274.214 213.169 273.922 212.852C273.635 212.529 273.174 212.367 272.539 212.367C271.826 212.367 271.018 212.586 270.117 213.023L269.719 212.031C270.141 211.802 270.602 211.622 271.102 211.492C271.607 211.362 272.112 211.297 272.617 211.297C273.638 211.297 274.393 211.523 274.883 211.977C275.378 212.43 275.625 213.156 275.625 214.156V220H274.664ZM271.734 219.086C272.542 219.086 273.174 218.865 273.633 218.422C274.096 217.979 274.328 217.359 274.328 216.562V215.789L273.031 215.844C272 215.88 271.255 216.042 270.797 216.328C270.344 216.609 270.117 217.049 270.117 217.648C270.117 218.117 270.258 218.474 270.539 218.719C270.826 218.964 271.224 219.086 271.734 219.086ZM284.164 220V214.461C284.164 213.763 284.005 213.242 283.688 212.898C283.37 212.555 282.872 212.383 282.195 212.383C281.299 212.383 280.643 212.625 280.227 213.109C279.81 213.594 279.602 214.393 279.602 215.508V220H278.305V211.438H279.359L279.57 212.609H279.633C279.898 212.188 280.271 211.862 280.75 211.633C281.229 211.398 281.763 211.281 282.352 211.281C283.383 211.281 284.159 211.531 284.68 212.031C285.201 212.526 285.461 213.32 285.461 214.414V220H284.164ZM289.414 215.617C289.638 215.299 289.979 214.883 290.438 214.367L293.203 211.438H294.742L291.273 215.086L294.984 220H293.414L290.391 215.953L289.414 216.797V220H288.133V207.844H289.414V214.289C289.414 214.576 289.393 215.018 289.352 215.617H289.414ZM305.961 220L305.703 218.781H305.641C305.214 219.318 304.786 219.682 304.359 219.875C303.938 220.062 303.409 220.156 302.773 220.156C301.924 220.156 301.258 219.938 300.773 219.5C300.294 219.062 300.055 218.44 300.055 217.633C300.055 215.904 301.438 214.997 304.203 214.914L305.656 214.867V214.336C305.656 213.664 305.51 213.169 305.219 212.852C304.932 212.529 304.471 212.367 303.836 212.367C303.122 212.367 302.315 212.586 301.414 213.023L301.016 212.031C301.438 211.802 301.898 211.622 302.398 211.492C302.904 211.362 303.409 211.297 303.914 211.297C304.935 211.297 305.69 211.523 306.18 211.977C306.674 212.43 306.922 213.156 306.922 214.156V220H305.961ZM303.031 219.086C303.839 219.086 304.471 218.865 304.93 218.422C305.393 217.979 305.625 217.359 305.625 216.562V215.789L304.328 215.844C303.297 215.88 302.552 216.042 302.094 216.328C301.641 216.609 301.414 217.049 301.414 217.648C301.414 218.117 301.555 218.474 301.836 218.719C302.122 218.964 302.521 219.086 303.031 219.086ZM313.023 220.156C311.784 220.156 310.823 219.776 310.141 219.016C309.464 218.25 309.125 217.169 309.125 215.773C309.125 214.341 309.469 213.234 310.156 212.453C310.849 211.672 311.833 211.281 313.109 211.281C313.521 211.281 313.932 211.326 314.344 211.414C314.755 211.503 315.078 211.607 315.312 211.727L314.914 212.828C314.628 212.714 314.315 212.62 313.977 212.547C313.638 212.469 313.339 212.43 313.078 212.43C311.339 212.43 310.469 213.539 310.469 215.758C310.469 216.81 310.68 217.617 311.102 218.18C311.529 218.742 312.159 219.023 312.992 219.023C313.706 219.023 314.438 218.87 315.188 218.562V219.711C314.615 220.008 313.893 220.156 313.023 220.156ZM320.648 220.156C319.409 220.156 318.448 219.776 317.766 219.016C317.089 218.25 316.75 217.169 316.75 215.773C316.75 214.341 317.094 213.234 317.781 212.453C318.474 211.672 319.458 211.281 320.734 211.281C321.146 211.281 321.557 211.326 321.969 211.414C322.38 211.503 322.703 211.607 322.938 211.727L322.539 212.828C322.253 212.714 321.94 212.62 321.602 212.547C321.263 212.469 320.964 212.43 320.703 212.43C318.964 212.43 318.094 213.539 318.094 215.758C318.094 216.81 318.305 217.617 318.727 218.18C319.154 218.742 319.784 219.023 320.617 219.023C321.331 219.023 322.062 218.87 322.812 218.562V219.711C322.24 220.008 321.518 220.156 320.648 220.156ZM332.242 215.711C332.242 217.107 331.891 218.198 331.188 218.984C330.484 219.766 329.513 220.156 328.273 220.156C327.508 220.156 326.828 219.977 326.234 219.617C325.641 219.258 325.182 218.742 324.859 218.07C324.536 217.398 324.375 216.612 324.375 215.711C324.375 214.315 324.724 213.229 325.422 212.453C326.12 211.672 327.089 211.281 328.328 211.281C329.526 211.281 330.477 211.68 331.18 212.477C331.888 213.273 332.242 214.352 332.242 215.711ZM325.719 215.711C325.719 216.805 325.938 217.638 326.375 218.211C326.812 218.784 327.456 219.07 328.305 219.07C329.154 219.07 329.797 218.786 330.234 218.219C330.677 217.646 330.898 216.81 330.898 215.711C330.898 214.622 330.677 213.797 330.234 213.234C329.797 212.667 329.148 212.383 328.289 212.383C327.44 212.383 326.799 212.661 326.367 213.219C325.935 213.776 325.719 214.607 325.719 215.711ZM335.742 211.438V216.992C335.742 217.69 335.901 218.211 336.219 218.555C336.536 218.898 337.034 219.07 337.711 219.07C338.607 219.07 339.26 218.826 339.672 218.336C340.089 217.846 340.297 217.047 340.297 215.938V211.438H341.594V220H340.523L340.336 218.852H340.266C340 219.273 339.63 219.596 339.156 219.82C338.688 220.044 338.151 220.156 337.547 220.156C336.505 220.156 335.724 219.909 335.203 219.414C334.688 218.919 334.43 218.128 334.43 217.039V211.438H335.742ZM350.211 220V214.461C350.211 213.763 350.052 213.242 349.734 212.898C349.417 212.555 348.919 212.383 348.242 212.383C347.346 212.383 346.69 212.625 346.273 213.109C345.857 213.594 345.648 214.393 345.648 215.508V220H344.352V211.438H345.406L345.617 212.609H345.68C345.945 212.188 346.318 211.862 346.797 211.633C347.276 211.398 347.81 211.281 348.398 211.281C349.43 211.281 350.206 211.531 350.727 212.031C351.247 212.526 351.508 213.32 351.508 214.414V220H350.211ZM356.945 219.086C357.174 219.086 357.396 219.07 357.609 219.039C357.823 219.003 357.992 218.966 358.117 218.93V219.922C357.977 219.99 357.768 220.044 357.492 220.086C357.221 220.133 356.977 220.156 356.758 220.156C355.102 220.156 354.273 219.284 354.273 217.539V212.445H353.047V211.82L354.273 211.281L354.82 209.453H355.57V211.438H358.055V212.445H355.57V217.484C355.57 218 355.693 218.396 355.938 218.672C356.182 218.948 356.518 219.086 356.945 219.086ZM362.633 211.438H364.023L365.898 216.32C366.31 217.435 366.565 218.24 366.664 218.734H366.727C366.794 218.469 366.935 218.016 367.148 217.375C367.367 216.729 368.076 214.75 369.273 211.438H370.664L366.984 221.188C366.62 222.151 366.193 222.833 365.703 223.234C365.219 223.641 364.622 223.844 363.914 223.844C363.518 223.844 363.128 223.799 362.742 223.711V222.672C363.029 222.734 363.349 222.766 363.703 222.766C364.594 222.766 365.229 222.266 365.609 221.266L366.086 220.047L362.633 211.438ZM375.672 220.156C374.406 220.156 373.406 219.771 372.672 219C371.943 218.229 371.578 217.159 371.578 215.789C371.578 214.409 371.917 213.312 372.594 212.5C373.276 211.688 374.19 211.281 375.336 211.281C376.409 211.281 377.258 211.635 377.883 212.344C378.508 213.047 378.82 213.977 378.82 215.133V215.953H372.922C372.948 216.958 373.201 217.721 373.68 218.242C374.164 218.763 374.844 219.023 375.719 219.023C376.641 219.023 377.552 218.831 378.453 218.445V219.602C377.995 219.799 377.56 219.94 377.148 220.023C376.742 220.112 376.25 220.156 375.672 220.156ZM375.32 212.367C374.633 212.367 374.083 212.591 373.672 213.039C373.266 213.487 373.026 214.107 372.953 214.898H377.43C377.43 214.081 377.247 213.456 376.883 213.023C376.518 212.586 375.997 212.367 375.32 212.367ZM383.805 219.086C384.034 219.086 384.255 219.07 384.469 219.039C384.682 219.003 384.852 218.966 384.977 218.93V219.922C384.836 219.99 384.628 220.044 384.352 220.086C384.081 220.133 383.836 220.156 383.617 220.156C381.961 220.156 381.133 219.284 381.133 217.539V212.445H379.906V211.82L381.133 211.281L381.68 209.453H382.43V211.438H384.914V212.445H382.43V217.484C382.43 218 382.552 218.396 382.797 218.672C383.042 218.948 383.378 219.086 383.805 219.086ZM386.508 219.172C386.508 218.823 386.586 218.56 386.742 218.383C386.904 218.201 387.133 218.109 387.43 218.109C387.732 218.109 387.966 218.201 388.133 218.383C388.305 218.56 388.391 218.823 388.391 219.172C388.391 219.51 388.305 219.771 388.133 219.953C387.961 220.135 387.727 220.227 387.43 220.227C387.164 220.227 386.943 220.146 386.766 219.984C386.594 219.818 386.508 219.547 386.508 219.172ZM405.281 220H403.969L401.664 212.352C401.555 212.013 401.432 211.586 401.297 211.07C401.161 210.555 401.091 210.245 401.086 210.141C400.971 210.828 400.789 211.581 400.539 212.398L398.305 220H396.992L393.953 208.578H395.359L397.164 215.633C397.414 216.622 397.596 217.518 397.711 218.32C397.852 217.367 398.06 216.435 398.336 215.523L400.383 208.578H401.789L403.938 215.586C404.188 216.393 404.398 217.305 404.57 218.32C404.669 217.581 404.857 216.68 405.133 215.617L406.93 208.578H408.336L405.281 220ZM413.547 220.156C412.281 220.156 411.281 219.771 410.547 219C409.818 218.229 409.453 217.159 409.453 215.789C409.453 214.409 409.792 213.312 410.469 212.5C411.151 211.688 412.065 211.281 413.211 211.281C414.284 211.281 415.133 211.635 415.758 212.344C416.383 213.047 416.695 213.977 416.695 215.133V215.953H410.797C410.823 216.958 411.076 217.721 411.555 218.242C412.039 218.763 412.719 219.023 413.594 219.023C414.516 219.023 415.427 218.831 416.328 218.445V219.602C415.87 219.799 415.435 219.94 415.023 220.023C414.617 220.112 414.125 220.156 413.547 220.156ZM413.195 212.367C412.508 212.367 411.958 212.591 411.547 213.039C411.141 213.487 410.901 214.107 410.828 214.898H415.305C415.305 214.081 415.122 213.456 414.758 213.023C414.393 212.586 413.872 212.367 413.195 212.367ZM20.7969 242L20.5391 240.781H20.4766C20.0495 241.318 19.6224 241.682 19.1953 241.875C18.7734 242.062 18.2448 242.156 17.6094 242.156C16.7604 242.156 16.0938 241.938 15.6094 241.5C15.1302 241.062 14.8906 240.44 14.8906 239.633C14.8906 237.904 16.2734 236.997 19.0391 236.914L20.4922 236.867V236.336C20.4922 235.664 20.3464 235.169 20.0547 234.852C19.7682 234.529 19.3073 234.367 18.6719 234.367C17.9583 234.367 17.151 234.586 16.25 235.023L15.8516 234.031C16.2734 233.802 16.7344 233.622 17.2344 233.492C17.7396 233.362 18.2448 233.297 18.75 233.297C19.7708 233.297 20.526 233.523 21.0156 233.977C21.5104 234.43 21.7578 235.156 21.7578 236.156V242H20.7969ZM17.8672 241.086C18.6745 241.086 19.3073 240.865 19.7656 240.422C20.2292 239.979 20.4609 239.359 20.4609 238.562V237.789L19.1641 237.844C18.1328 237.88 17.388 238.042 16.9297 238.328C16.4766 238.609 16.25 239.049 16.25 239.648C16.25 240.117 16.3906 240.474 16.6719 240.719C16.9583 240.964 17.3568 241.086 17.8672 241.086ZM30.2656 240.852H30.1953C29.5964 241.721 28.7005 242.156 27.5078 242.156C26.388 242.156 25.5156 241.773 24.8906 241.008C24.2708 240.242 23.9609 239.154 23.9609 237.742C23.9609 236.331 24.2734 235.234 24.8984 234.453C25.5234 233.672 26.3932 233.281 27.5078 233.281C28.6693 233.281 29.5599 233.703 30.1797 234.547H30.2812L30.2266 233.93L30.1953 233.328V229.844H31.4922V242H30.4375L30.2656 240.852ZM27.6719 241.07C28.5573 241.07 29.1979 240.831 29.5938 240.352C29.9948 239.867 30.1953 239.089 30.1953 238.016V237.742C30.1953 236.529 29.9922 235.664 29.5859 235.148C29.1849 234.628 28.5417 234.367 27.6562 234.367C26.8958 234.367 26.3125 234.664 25.9062 235.258C25.5052 235.846 25.3047 236.68 25.3047 237.758C25.3047 238.852 25.5052 239.677 25.9062 240.234C26.3073 240.792 26.8958 241.07 27.6719 241.07ZM36.125 242L32.875 233.438H34.2656L36.1094 238.516C36.526 239.703 36.7708 240.474 36.8438 240.828H36.9062C36.9635 240.552 37.1432 239.982 37.4453 239.117C37.7526 238.247 38.4375 236.354 39.5 233.438H40.8906L37.6406 242H36.125ZM43.5625 242H42.2656V233.438H43.5625V242ZM42.1562 231.117C42.1562 230.82 42.2292 230.604 42.375 230.469C42.5208 230.328 42.7031 230.258 42.9219 230.258C43.1302 230.258 43.3099 230.328 43.4609 230.469C43.612 230.609 43.6875 230.826 43.6875 231.117C43.6875 231.409 43.612 231.628 43.4609 231.773C43.3099 231.914 43.1302 231.984 42.9219 231.984C42.7031 231.984 42.5208 231.914 42.375 231.773C42.2292 231.628 42.1562 231.409 42.1562 231.117ZM51.8359 239.664C51.8359 240.461 51.5391 241.076 50.9453 241.508C50.3516 241.94 49.5182 242.156 48.4453 242.156C47.3099 242.156 46.4245 241.977 45.7891 241.617V240.414C46.2005 240.622 46.6406 240.786 47.1094 240.906C47.5833 241.026 48.0391 241.086 48.4766 241.086C49.1536 241.086 49.6745 240.979 50.0391 240.766C50.4036 240.547 50.5859 240.216 50.5859 239.773C50.5859 239.44 50.4401 239.156 50.1484 238.922C49.862 238.682 49.2995 238.401 48.4609 238.078C47.6641 237.781 47.0964 237.523 46.7578 237.305C46.4245 237.081 46.1745 236.828 46.0078 236.547C45.8464 236.266 45.7656 235.93 45.7656 235.539C45.7656 234.841 46.0495 234.292 46.6172 233.891C47.1849 233.484 47.9635 233.281 48.9531 233.281C49.875 233.281 50.776 233.469 51.6562 233.844L51.1953 234.898C50.3359 234.544 49.5573 234.367 48.8594 234.367C48.2448 234.367 47.7812 234.464 47.4688 234.656C47.1562 234.849 47 235.115 47 235.453C47 235.682 47.0573 235.878 47.1719 236.039C47.2917 236.201 47.4818 236.354 47.7422 236.5C48.0026 236.646 48.5026 236.857 49.2422 237.133C50.2578 237.503 50.9427 237.875 51.2969 238.25C51.6562 238.625 51.8359 239.096 51.8359 239.664ZM57.5703 242.156C56.3047 242.156 55.3047 241.771 54.5703 241C53.8411 240.229 53.4766 239.159 53.4766 237.789C53.4766 236.409 53.8151 235.312 54.4922 234.5C55.1745 233.688 56.0885 233.281 57.2344 233.281C58.3073 233.281 59.1562 233.635 59.7812 234.344C60.4062 235.047 60.7188 235.977 60.7188 237.133V237.953H54.8203C54.8464 238.958 55.099 239.721 55.5781 240.242C56.0625 240.763 56.7422 241.023 57.6172 241.023C58.5391 241.023 59.4505 240.831 60.3516 240.445V241.602C59.8932 241.799 59.4583 241.94 59.0469 242.023C58.6406 242.112 58.1484 242.156 57.5703 242.156ZM57.2188 234.367C56.5312 234.367 55.9818 234.591 55.5703 235.039C55.1641 235.487 54.9245 236.107 54.8516 236.898H59.3281C59.3281 236.081 59.1458 235.456 58.7812 235.023C58.4167 234.586 57.8958 234.367 57.2188 234.367ZM68.3125 233.438V238.992C68.3125 239.69 68.4714 240.211 68.7891 240.555C69.1068 240.898 69.6042 241.07 70.2812 241.07C71.1771 241.07 71.8307 240.826 72.2422 240.336C72.6589 239.846 72.8672 239.047 72.8672 237.938V233.438H74.1641V242H73.0938L72.9062 240.852H72.8359C72.5703 241.273 72.2005 241.596 71.7266 241.82C71.2578 242.044 70.7214 242.156 70.1172 242.156C69.0755 242.156 68.2943 241.909 67.7734 241.414C67.2578 240.919 67 240.128 67 239.039V233.438H68.3125ZM82.4453 239.664C82.4453 240.461 82.1484 241.076 81.5547 241.508C80.9609 241.94 80.1276 242.156 79.0547 242.156C77.9193 242.156 77.0339 241.977 76.3984 241.617V240.414C76.8099 240.622 77.25 240.786 77.7188 240.906C78.1927 241.026 78.6484 241.086 79.0859 241.086C79.763 241.086 80.2839 240.979 80.6484 240.766C81.013 240.547 81.1953 240.216 81.1953 239.773C81.1953 239.44 81.0495 239.156 80.7578 238.922C80.4714 238.682 79.9089 238.401 79.0703 238.078C78.2734 237.781 77.7057 237.523 77.3672 237.305C77.0339 237.081 76.7839 236.828 76.6172 236.547C76.4557 236.266 76.375 235.93 76.375 235.539C76.375 234.841 76.6589 234.292 77.2266 233.891C77.7943 233.484 78.5729 233.281 79.5625 233.281C80.4844 233.281 81.3854 233.469 82.2656 233.844L81.8047 234.898C80.9453 234.544 80.1667 234.367 79.4688 234.367C78.8542 234.367 78.3906 234.464 78.0781 234.656C77.7656 234.849 77.6094 235.115 77.6094 235.453C77.6094 235.682 77.6667 235.878 77.7812 236.039C77.901 236.201 78.0911 236.354 78.3516 236.5C78.612 236.646 79.112 236.857 79.8516 237.133C80.8672 237.503 81.5521 237.875 81.9062 238.25C82.2656 238.625 82.4453 239.096 82.4453 239.664ZM85.8594 242H84.5625V233.438H85.8594V242ZM84.4531 231.117C84.4531 230.82 84.526 230.604 84.6719 230.469C84.8177 230.328 85 230.258 85.2188 230.258C85.4271 230.258 85.6068 230.328 85.7578 230.469C85.9089 230.609 85.9844 230.826 85.9844 231.117C85.9844 231.409 85.9089 231.628 85.7578 231.773C85.6068 231.914 85.4271 231.984 85.2188 231.984C85 231.984 84.8177 231.914 84.6719 231.773C84.526 231.628 84.4531 231.409 84.4531 231.117ZM94.4688 242V236.461C94.4688 235.763 94.3099 235.242 93.9922 234.898C93.6745 234.555 93.1771 234.383 92.5 234.383C91.6042 234.383 90.9479 234.625 90.5312 235.109C90.1146 235.594 89.9062 236.393 89.9062 237.508V242H88.6094V233.438H89.6641L89.875 234.609H89.9375C90.2031 234.188 90.5755 233.862 91.0547 233.633C91.5339 233.398 92.0677 233.281 92.6562 233.281C93.6875 233.281 94.4635 233.531 94.9844 234.031C95.5052 234.526 95.7656 235.32 95.7656 236.414V242H94.4688ZM105.445 233.438V234.258L103.859 234.445C104.005 234.628 104.135 234.867 104.25 235.164C104.365 235.456 104.422 235.786 104.422 236.156C104.422 236.995 104.135 237.664 103.562 238.164C102.99 238.664 102.203 238.914 101.203 238.914C100.948 238.914 100.708 238.893 100.484 238.852C99.9323 239.143 99.6562 239.51 99.6562 239.953C99.6562 240.188 99.7526 240.362 99.9453 240.477C100.138 240.586 100.469 240.641 100.938 240.641H102.453C103.38 240.641 104.091 240.836 104.586 241.227C105.086 241.617 105.336 242.185 105.336 242.93C105.336 243.878 104.956 244.599 104.195 245.094C103.435 245.594 102.326 245.844 100.867 245.844C99.7474 245.844 98.8828 245.635 98.2734 245.219C97.6693 244.802 97.3672 244.214 97.3672 243.453C97.3672 242.932 97.5339 242.482 97.8672 242.102C98.2005 241.721 98.6693 241.464 99.2734 241.328C99.0547 241.229 98.8698 241.076 98.7188 240.867C98.5729 240.659 98.5 240.417 98.5 240.141C98.5 239.828 98.5833 239.555 98.75 239.32C98.9167 239.086 99.1797 238.859 99.5391 238.641C99.0964 238.458 98.7344 238.148 98.4531 237.711C98.1771 237.273 98.0391 236.773 98.0391 236.211C98.0391 235.273 98.3203 234.552 98.8828 234.047C99.4453 233.536 100.242 233.281 101.273 233.281C101.721 233.281 102.125 233.333 102.484 233.438H105.445ZM98.6172 243.438C98.6172 243.901 98.8125 244.253 99.2031 244.492C99.5938 244.732 100.154 244.852 100.883 244.852C101.971 244.852 102.776 244.688 103.297 244.359C103.823 244.036 104.086 243.596 104.086 243.039C104.086 242.576 103.943 242.253 103.656 242.07C103.37 241.893 102.831 241.805 102.039 241.805H100.484C99.8958 241.805 99.4375 241.945 99.1094 242.227C98.7812 242.508 98.6172 242.911 98.6172 243.438ZM99.3203 236.18C99.3203 236.779 99.4896 237.232 99.8281 237.539C100.167 237.846 100.638 238 101.242 238C102.508 238 103.141 237.385 103.141 236.156C103.141 234.87 102.5 234.227 101.219 234.227C100.609 234.227 100.141 234.391 99.8125 234.719C99.4844 235.047 99.3203 235.534 99.3203 236.18ZM110 233.438H111.391L113.266 238.32C113.677 239.435 113.932 240.24 114.031 240.734H114.094C114.161 240.469 114.302 240.016 114.516 239.375C114.734 238.729 115.443 236.75 116.641 233.438H118.031L114.352 243.188C113.987 244.151 113.56 244.833 113.07 245.234C112.586 245.641 111.99 245.844 111.281 245.844C110.885 245.844 110.495 245.799 110.109 245.711V244.672C110.396 244.734 110.716 244.766 111.07 244.766C111.961 244.766 112.596 244.266 112.977 243.266L113.453 242.047L110 233.438ZM126.812 237.711C126.812 239.107 126.461 240.198 125.758 240.984C125.055 241.766 124.083 242.156 122.844 242.156C122.078 242.156 121.398 241.977 120.805 241.617C120.211 241.258 119.753 240.742 119.43 240.07C119.107 239.398 118.945 238.612 118.945 237.711C118.945 236.315 119.294 235.229 119.992 234.453C120.69 233.672 121.659 233.281 122.898 233.281C124.096 233.281 125.047 233.68 125.75 234.477C126.458 235.273 126.812 236.352 126.812 237.711ZM120.289 237.711C120.289 238.805 120.508 239.638 120.945 240.211C121.383 240.784 122.026 241.07 122.875 241.07C123.724 241.07 124.367 240.786 124.805 240.219C125.247 239.646 125.469 238.81 125.469 237.711C125.469 236.622 125.247 235.797 124.805 235.234C124.367 234.667 123.719 234.383 122.859 234.383C122.01 234.383 121.37 234.661 120.938 235.219C120.505 235.776 120.289 236.607 120.289 237.711ZM130.312 233.438V238.992C130.312 239.69 130.471 240.211 130.789 240.555C131.107 240.898 131.604 241.07 132.281 241.07C133.177 241.07 133.831 240.826 134.242 240.336C134.659 239.846 134.867 239.047 134.867 237.938V233.438H136.164V242H135.094L134.906 240.852H134.836C134.57 241.273 134.201 241.596 133.727 241.82C133.258 242.044 132.721 242.156 132.117 242.156C131.076 242.156 130.294 241.909 129.773 241.414C129.258 240.919 129 240.128 129 239.039V233.438H130.312ZM142.828 233.281C143.208 233.281 143.549 233.312 143.852 233.375L143.672 234.578C143.318 234.5 143.005 234.461 142.734 234.461C142.042 234.461 141.448 234.742 140.953 235.305C140.464 235.867 140.219 236.568 140.219 237.406V242H138.922V233.438H139.992L140.141 235.023H140.203C140.521 234.466 140.904 234.036 141.352 233.734C141.799 233.432 142.292 233.281 142.828 233.281ZM157 237.711C157 239.107 156.648 240.198 155.945 240.984C155.242 241.766 154.271 242.156 153.031 242.156C152.266 242.156 151.586 241.977 150.992 241.617C150.398 241.258 149.94 240.742 149.617 240.07C149.294 239.398 149.133 238.612 149.133 237.711C149.133 236.315 149.482 235.229 150.18 234.453C150.878 233.672 151.846 233.281 153.086 233.281C154.284 233.281 155.234 233.68 155.938 234.477C156.646 235.273 157 236.352 157 237.711ZM150.477 237.711C150.477 238.805 150.695 239.638 151.133 240.211C151.57 240.784 152.214 241.07 153.062 241.07C153.911 241.07 154.555 240.786 154.992 240.219C155.435 239.646 155.656 238.81 155.656 237.711C155.656 236.622 155.435 235.797 154.992 235.234C154.555 234.667 153.906 234.383 153.047 234.383C152.198 234.383 151.557 234.661 151.125 235.219C150.693 235.776 150.477 236.607 150.477 237.711ZM166.273 242L164.703 236.977C164.604 236.669 164.419 235.971 164.148 234.883H164.086C163.878 235.794 163.695 236.497 163.539 236.992L161.922 242H160.422L158.086 233.438H159.445C159.997 235.589 160.417 237.227 160.703 238.352C160.995 239.477 161.161 240.234 161.203 240.625H161.266C161.323 240.328 161.414 239.945 161.539 239.477C161.669 239.003 161.781 238.628 161.875 238.352L163.445 233.438H164.852L166.383 238.352C166.674 239.247 166.872 240 166.977 240.609H167.039C167.06 240.422 167.115 240.133 167.203 239.742C167.297 239.352 167.841 237.25 168.836 233.438H170.18L167.812 242H166.273ZM177.594 242V236.461C177.594 235.763 177.435 235.242 177.117 234.898C176.799 234.555 176.302 234.383 175.625 234.383C174.729 234.383 174.073 234.625 173.656 235.109C173.24 235.594 173.031 236.393 173.031 237.508V242H171.734V233.438H172.789L173 234.609H173.062C173.328 234.188 173.701 233.862 174.18 233.633C174.659 233.398 175.193 233.281 175.781 233.281C176.812 233.281 177.589 233.531 178.109 234.031C178.63 234.526 178.891 235.32 178.891 236.414V242H177.594ZM189.703 233.297C190.828 233.297 191.701 233.682 192.32 234.453C192.945 235.219 193.258 236.305 193.258 237.711C193.258 239.117 192.943 240.211 192.312 240.992C191.688 241.768 190.818 242.156 189.703 242.156C189.146 242.156 188.635 242.055 188.172 241.852C187.714 241.643 187.328 241.326 187.016 240.898H186.922L186.648 242H185.719V229.844H187.016V232.797C187.016 233.458 186.995 234.052 186.953 234.578H187.016C187.62 233.724 188.516 233.297 189.703 233.297ZM189.516 234.383C188.63 234.383 187.992 234.638 187.602 235.148C187.211 235.654 187.016 236.508 187.016 237.711C187.016 238.914 187.216 239.776 187.617 240.297C188.018 240.812 188.661 241.07 189.547 241.07C190.344 241.07 190.938 240.781 191.328 240.203C191.719 239.62 191.914 238.784 191.914 237.695C191.914 236.581 191.719 235.75 191.328 235.203C190.938 234.656 190.333 234.383 189.516 234.383ZM200.797 242L200.539 240.781H200.477C200.049 241.318 199.622 241.682 199.195 241.875C198.773 242.062 198.245 242.156 197.609 242.156C196.76 242.156 196.094 241.938 195.609 241.5C195.13 241.062 194.891 240.44 194.891 239.633C194.891 237.904 196.273 236.997 199.039 236.914L200.492 236.867V236.336C200.492 235.664 200.346 235.169 200.055 234.852C199.768 234.529 199.307 234.367 198.672 234.367C197.958 234.367 197.151 234.586 196.25 235.023L195.852 234.031C196.273 233.802 196.734 233.622 197.234 233.492C197.74 233.362 198.245 233.297 198.75 233.297C199.771 233.297 200.526 233.523 201.016 233.977C201.51 234.43 201.758 235.156 201.758 236.156V242H200.797ZM197.867 241.086C198.674 241.086 199.307 240.865 199.766 240.422C200.229 239.979 200.461 239.359 200.461 238.562V237.789L199.164 237.844C198.133 237.88 197.388 238.042 196.93 238.328C196.477 238.609 196.25 239.049 196.25 239.648C196.25 240.117 196.391 240.474 196.672 240.719C196.958 240.964 197.357 241.086 197.867 241.086ZM210.297 242V236.461C210.297 235.763 210.138 235.242 209.82 234.898C209.503 234.555 209.005 234.383 208.328 234.383C207.432 234.383 206.776 234.625 206.359 235.109C205.943 235.594 205.734 236.393 205.734 237.508V242H204.438V233.438H205.492L205.703 234.609H205.766C206.031 234.188 206.404 233.862 206.883 233.633C207.362 233.398 207.896 233.281 208.484 233.281C209.516 233.281 210.292 233.531 210.812 234.031C211.333 234.526 211.594 235.32 211.594 236.414V242H210.297ZM215.547 237.617C215.771 237.299 216.112 236.883 216.57 236.367L219.336 233.438H220.875L217.406 237.086L221.117 242H219.547L216.523 237.953L215.547 238.797V242H214.266V229.844H215.547V236.289C215.547 236.576 215.526 237.018 215.484 237.617H215.547ZM232.094 242L231.836 240.781H231.773C231.346 241.318 230.919 241.682 230.492 241.875C230.07 242.062 229.542 242.156 228.906 242.156C228.057 242.156 227.391 241.938 226.906 241.5C226.427 241.062 226.188 240.44 226.188 239.633C226.188 237.904 227.57 236.997 230.336 236.914L231.789 236.867V236.336C231.789 235.664 231.643 235.169 231.352 234.852C231.065 234.529 230.604 234.367 229.969 234.367C229.255 234.367 228.448 234.586 227.547 235.023L227.148 234.031C227.57 233.802 228.031 233.622 228.531 233.492C229.036 233.362 229.542 233.297 230.047 233.297C231.068 233.297 231.823 233.523 232.312 233.977C232.807 234.43 233.055 235.156 233.055 236.156V242H232.094ZM229.164 241.086C229.971 241.086 230.604 240.865 231.062 240.422C231.526 239.979 231.758 239.359 231.758 238.562V237.789L230.461 237.844C229.43 237.88 228.685 238.042 228.227 238.328C227.773 238.609 227.547 239.049 227.547 239.648C227.547 240.117 227.688 240.474 227.969 240.719C228.255 240.964 228.654 241.086 229.164 241.086ZM239.156 242.156C237.917 242.156 236.956 241.776 236.273 241.016C235.596 240.25 235.258 239.169 235.258 237.773C235.258 236.341 235.602 235.234 236.289 234.453C236.982 233.672 237.966 233.281 239.242 233.281C239.654 233.281 240.065 233.326 240.477 233.414C240.888 233.503 241.211 233.607 241.445 233.727L241.047 234.828C240.76 234.714 240.448 234.62 240.109 234.547C239.771 234.469 239.471 234.43 239.211 234.43C237.471 234.43 236.602 235.539 236.602 237.758C236.602 238.81 236.812 239.617 237.234 240.18C237.661 240.742 238.292 241.023 239.125 241.023C239.839 241.023 240.57 240.87 241.32 240.562V241.711C240.747 242.008 240.026 242.156 239.156 242.156ZM246.781 242.156C245.542 242.156 244.581 241.776 243.898 241.016C243.221 240.25 242.883 239.169 242.883 237.773C242.883 236.341 243.227 235.234 243.914 234.453C244.607 233.672 245.591 233.281 246.867 233.281C247.279 233.281 247.69 233.326 248.102 233.414C248.513 233.503 248.836 233.607 249.07 233.727L248.672 234.828C248.385 234.714 248.073 234.62 247.734 234.547C247.396 234.469 247.096 234.43 246.836 234.43C245.096 234.43 244.227 235.539 244.227 237.758C244.227 238.81 244.438 239.617 244.859 240.18C245.286 240.742 245.917 241.023 246.75 241.023C247.464 241.023 248.195 240.87 248.945 240.562V241.711C248.372 242.008 247.651 242.156 246.781 242.156ZM258.375 237.711C258.375 239.107 258.023 240.198 257.32 240.984C256.617 241.766 255.646 242.156 254.406 242.156C253.641 242.156 252.961 241.977 252.367 241.617C251.773 241.258 251.315 240.742 250.992 240.07C250.669 239.398 250.508 238.612 250.508 237.711C250.508 236.315 250.857 235.229 251.555 234.453C252.253 233.672 253.221 233.281 254.461 233.281C255.659 233.281 256.609 233.68 257.312 234.477C258.021 235.273 258.375 236.352 258.375 237.711ZM251.852 237.711C251.852 238.805 252.07 239.638 252.508 240.211C252.945 240.784 253.589 241.07 254.438 241.07C255.286 241.07 255.93 240.786 256.367 240.219C256.81 239.646 257.031 238.81 257.031 237.711C257.031 236.622 256.81 235.797 256.367 235.234C255.93 234.667 255.281 234.383 254.422 234.383C253.573 234.383 252.932 234.661 252.5 235.219C252.068 235.776 251.852 236.607 251.852 237.711ZM261.875 233.438V238.992C261.875 239.69 262.034 240.211 262.352 240.555C262.669 240.898 263.167 241.07 263.844 241.07C264.74 241.07 265.393 240.826 265.805 240.336C266.221 239.846 266.43 239.047 266.43 237.938V233.438H267.727V242H266.656L266.469 240.852H266.398C266.133 241.273 265.763 241.596 265.289 241.82C264.82 242.044 264.284 242.156 263.68 242.156C262.638 242.156 261.857 241.909 261.336 241.414C260.82 240.919 260.562 240.128 260.562 239.039V233.438H261.875ZM276.344 242V236.461C276.344 235.763 276.185 235.242 275.867 234.898C275.549 234.555 275.052 234.383 274.375 234.383C273.479 234.383 272.823 234.625 272.406 235.109C271.99 235.594 271.781 236.393 271.781 237.508V242H270.484V233.438H271.539L271.75 234.609H271.812C272.078 234.188 272.451 233.862 272.93 233.633C273.409 233.398 273.943 233.281 274.531 233.281C275.562 233.281 276.339 233.531 276.859 234.031C277.38 234.526 277.641 235.32 277.641 236.414V242H276.344ZM283.078 241.086C283.307 241.086 283.529 241.07 283.742 241.039C283.956 241.003 284.125 240.966 284.25 240.93V241.922C284.109 241.99 283.901 242.044 283.625 242.086C283.354 242.133 283.109 242.156 282.891 242.156C281.234 242.156 280.406 241.284 280.406 239.539V234.445H279.18V233.82L280.406 233.281L280.953 231.453H281.703V233.438H284.188V234.445H281.703V239.484C281.703 240 281.826 240.396 282.07 240.672C282.315 240.948 282.651 241.086 283.078 241.086ZM292.891 241.086C293.12 241.086 293.341 241.07 293.555 241.039C293.768 241.003 293.938 240.966 294.062 240.93V241.922C293.922 241.99 293.714 242.044 293.438 242.086C293.167 242.133 292.922 242.156 292.703 242.156C291.047 242.156 290.219 241.284 290.219 239.539V234.445H288.992V233.82L290.219 233.281L290.766 231.453H291.516V233.438H294V234.445H291.516V239.484C291.516 240 291.638 240.396 291.883 240.672C292.128 240.948 292.464 241.086 292.891 241.086ZM303.172 237.711C303.172 239.107 302.82 240.198 302.117 240.984C301.414 241.766 300.443 242.156 299.203 242.156C298.438 242.156 297.758 241.977 297.164 241.617C296.57 241.258 296.112 240.742 295.789 240.07C295.466 239.398 295.305 238.612 295.305 237.711C295.305 236.315 295.654 235.229 296.352 234.453C297.049 233.672 298.018 233.281 299.258 233.281C300.456 233.281 301.406 233.68 302.109 234.477C302.818 235.273 303.172 236.352 303.172 237.711ZM296.648 237.711C296.648 238.805 296.867 239.638 297.305 240.211C297.742 240.784 298.385 241.07 299.234 241.07C300.083 241.07 300.727 240.786 301.164 240.219C301.607 239.646 301.828 238.81 301.828 237.711C301.828 236.622 301.607 235.797 301.164 235.234C300.727 234.667 300.078 234.383 299.219 234.383C298.37 234.383 297.729 234.661 297.297 235.219C296.865 235.776 296.648 236.607 296.648 237.711ZM314.875 242L314.617 240.781H314.555C314.128 241.318 313.701 241.682 313.273 241.875C312.852 242.062 312.323 242.156 311.688 242.156C310.839 242.156 310.172 241.938 309.688 241.5C309.208 241.062 308.969 240.44 308.969 239.633C308.969 237.904 310.352 236.997 313.117 236.914L314.57 236.867V236.336C314.57 235.664 314.424 235.169 314.133 234.852C313.846 234.529 313.385 234.367 312.75 234.367C312.036 234.367 311.229 234.586 310.328 235.023L309.93 234.031C310.352 233.802 310.812 233.622 311.312 233.492C311.818 233.362 312.323 233.297 312.828 233.297C313.849 233.297 314.604 233.523 315.094 233.977C315.589 234.43 315.836 235.156 315.836 236.156V242H314.875ZM311.945 241.086C312.753 241.086 313.385 240.865 313.844 240.422C314.307 239.979 314.539 239.359 314.539 238.562V237.789L313.242 237.844C312.211 237.88 311.466 238.042 311.008 238.328C310.555 238.609 310.328 239.049 310.328 239.648C310.328 240.117 310.469 240.474 310.75 240.719C311.036 240.964 311.435 241.086 311.945 241.086ZM324.344 240.852H324.273C323.674 241.721 322.779 242.156 321.586 242.156C320.466 242.156 319.594 241.773 318.969 241.008C318.349 240.242 318.039 239.154 318.039 237.742C318.039 236.331 318.352 235.234 318.977 234.453C319.602 233.672 320.471 233.281 321.586 233.281C322.747 233.281 323.638 233.703 324.258 234.547H324.359L324.305 233.93L324.273 233.328V229.844H325.57V242H324.516L324.344 240.852ZM321.75 241.07C322.635 241.07 323.276 240.831 323.672 240.352C324.073 239.867 324.273 239.089 324.273 238.016V237.742C324.273 236.529 324.07 235.664 323.664 235.148C323.263 234.628 322.62 234.367 321.734 234.367C320.974 234.367 320.391 234.664 319.984 235.258C319.583 235.846 319.383 236.68 319.383 237.758C319.383 238.852 319.583 239.677 319.984 240.234C320.385 240.792 320.974 241.07 321.75 241.07ZM334.156 240.852H334.086C333.487 241.721 332.591 242.156 331.398 242.156C330.279 242.156 329.406 241.773 328.781 241.008C328.161 240.242 327.852 239.154 327.852 237.742C327.852 236.331 328.164 235.234 328.789 234.453C329.414 233.672 330.284 233.281 331.398 233.281C332.56 233.281 333.451 233.703 334.07 234.547H334.172L334.117 233.93L334.086 233.328V229.844H335.383V242H334.328L334.156 240.852ZM331.562 241.07C332.448 241.07 333.089 240.831 333.484 240.352C333.885 239.867 334.086 239.089 334.086 238.016V237.742C334.086 236.529 333.883 235.664 333.477 235.148C333.076 234.628 332.432 234.367 331.547 234.367C330.786 234.367 330.203 234.664 329.797 235.258C329.396 235.846 329.195 236.68 329.195 237.758C329.195 238.852 329.396 239.677 329.797 240.234C330.198 240.792 330.786 241.07 331.562 241.07ZM353.211 242V236.43C353.211 235.747 353.065 235.237 352.773 234.898C352.482 234.555 352.029 234.383 351.414 234.383C350.607 234.383 350.01 234.615 349.625 235.078C349.24 235.542 349.047 236.255 349.047 237.219V242H347.75V236.43C347.75 235.747 347.604 235.237 347.312 234.898C347.021 234.555 346.565 234.383 345.945 234.383C345.133 234.383 344.536 234.628 344.156 235.117C343.781 235.602 343.594 236.398 343.594 237.508V242H342.297V233.438H343.352L343.562 234.609H343.625C343.87 234.193 344.214 233.867 344.656 233.633C345.104 233.398 345.604 233.281 346.156 233.281C347.495 233.281 348.37 233.766 348.781 234.734H348.844C349.099 234.286 349.469 233.932 349.953 233.672C350.438 233.411 350.99 233.281 351.609 233.281C352.578 233.281 353.302 233.531 353.781 234.031C354.266 234.526 354.508 235.32 354.508 236.414V242H353.211ZM364.578 237.711C364.578 239.107 364.227 240.198 363.523 240.984C362.82 241.766 361.849 242.156 360.609 242.156C359.844 242.156 359.164 241.977 358.57 241.617C357.977 241.258 357.518 240.742 357.195 240.07C356.872 239.398 356.711 238.612 356.711 237.711C356.711 236.315 357.06 235.229 357.758 234.453C358.456 233.672 359.424 233.281 360.664 233.281C361.862 233.281 362.812 233.68 363.516 234.477C364.224 235.273 364.578 236.352 364.578 237.711ZM358.055 237.711C358.055 238.805 358.273 239.638 358.711 240.211C359.148 240.784 359.792 241.07 360.641 241.07C361.49 241.07 362.133 240.786 362.57 240.219C363.013 239.646 363.234 238.81 363.234 237.711C363.234 236.622 363.013 235.797 362.57 235.234C362.133 234.667 361.484 234.383 360.625 234.383C359.776 234.383 359.135 234.661 358.703 235.219C358.271 235.776 358.055 236.607 358.055 237.711ZM372.719 242V236.461C372.719 235.763 372.56 235.242 372.242 234.898C371.924 234.555 371.427 234.383 370.75 234.383C369.854 234.383 369.198 234.625 368.781 235.109C368.365 235.594 368.156 236.393 368.156 237.508V242H366.859V233.438H367.914L368.125 234.609H368.188C368.453 234.188 368.826 233.862 369.305 233.633C369.784 233.398 370.318 233.281 370.906 233.281C371.938 233.281 372.714 233.531 373.234 234.031C373.755 234.526 374.016 235.32 374.016 236.414V242H372.719ZM380.305 242.156C379.039 242.156 378.039 241.771 377.305 241C376.576 240.229 376.211 239.159 376.211 237.789C376.211 236.409 376.549 235.312 377.227 234.5C377.909 233.688 378.823 233.281 379.969 233.281C381.042 233.281 381.891 233.635 382.516 234.344C383.141 235.047 383.453 235.977 383.453 237.133V237.953H377.555C377.581 238.958 377.833 239.721 378.312 240.242C378.797 240.763 379.477 241.023 380.352 241.023C381.273 241.023 382.185 240.831 383.086 240.445V241.602C382.628 241.799 382.193 241.94 381.781 242.023C381.375 242.112 380.883 242.156 380.305 242.156ZM379.953 234.367C379.266 234.367 378.716 234.591 378.305 235.039C377.898 235.487 377.659 236.107 377.586 236.898H382.062C382.062 236.081 381.88 235.456 381.516 235.023C381.151 234.586 380.63 234.367 379.953 234.367ZM384.312 233.438H385.703L387.578 238.32C387.99 239.435 388.245 240.24 388.344 240.734H388.406C388.474 240.469 388.615 240.016 388.828 239.375C389.047 238.729 389.755 236.75 390.953 233.438H392.344L388.664 243.188C388.299 244.151 387.872 244.833 387.383 245.234C386.898 245.641 386.302 245.844 385.594 245.844C385.198 245.844 384.807 245.799 384.422 245.711V244.672C384.708 244.734 385.029 244.766 385.383 244.766C386.273 244.766 386.909 244.266 387.289 243.266L387.766 242.047L384.312 233.438ZM400.656 241.086C400.885 241.086 401.107 241.07 401.32 241.039C401.534 241.003 401.703 240.966 401.828 240.93V241.922C401.688 241.99 401.479 242.044 401.203 242.086C400.932 242.133 400.688 242.156 400.469 242.156C398.812 242.156 397.984 241.284 397.984 239.539V234.445H396.758V233.82L397.984 233.281L398.531 231.453H399.281V233.438H401.766V234.445H399.281V239.484C399.281 240 399.404 240.396 399.648 240.672C399.893 240.948 400.229 241.086 400.656 241.086ZM410.938 237.711C410.938 239.107 410.586 240.198 409.883 240.984C409.18 241.766 408.208 242.156 406.969 242.156C406.203 242.156 405.523 241.977 404.93 241.617C404.336 241.258 403.878 240.742 403.555 240.07C403.232 239.398 403.07 238.612 403.07 237.711C403.07 236.315 403.419 235.229 404.117 234.453C404.815 233.672 405.784 233.281 407.023 233.281C408.221 233.281 409.172 233.68 409.875 234.477C410.583 235.273 410.938 236.352 410.938 237.711ZM404.414 237.711C404.414 238.805 404.633 239.638 405.07 240.211C405.508 240.784 406.151 241.07 407 241.07C407.849 241.07 408.492 240.786 408.93 240.219C409.372 239.646 409.594 238.81 409.594 237.711C409.594 236.622 409.372 235.797 408.93 235.234C408.492 234.667 407.844 234.383 406.984 234.383C406.135 234.383 405.495 234.661 405.062 235.219C404.63 235.776 404.414 236.607 404.414 237.711ZM162.703 255.438H164.094L165.969 260.32C166.38 261.435 166.635 262.24 166.734 262.734H166.797C166.865 262.469 167.005 262.016 167.219 261.375C167.438 260.729 168.146 258.75 169.344 255.438H170.734L167.055 265.188C166.69 266.151 166.263 266.833 165.773 267.234C165.289 267.641 164.693 267.844 163.984 267.844C163.589 267.844 163.198 267.799 162.812 267.711V266.672C163.099 266.734 163.419 266.766 163.773 266.766C164.664 266.766 165.299 266.266 165.68 265.266L166.156 264.047L162.703 255.438ZM179.516 259.711C179.516 261.107 179.164 262.198 178.461 262.984C177.758 263.766 176.786 264.156 175.547 264.156C174.781 264.156 174.102 263.977 173.508 263.617C172.914 263.258 172.456 262.742 172.133 262.07C171.81 261.398 171.648 260.612 171.648 259.711C171.648 258.315 171.997 257.229 172.695 256.453C173.393 255.672 174.362 255.281 175.602 255.281C176.799 255.281 177.75 255.68 178.453 256.477C179.161 257.273 179.516 258.352 179.516 259.711ZM172.992 259.711C172.992 260.805 173.211 261.638 173.648 262.211C174.086 262.784 174.729 263.07 175.578 263.07C176.427 263.07 177.07 262.786 177.508 262.219C177.951 261.646 178.172 260.81 178.172 259.711C178.172 258.622 177.951 257.797 177.508 257.234C177.07 256.667 176.422 256.383 175.562 256.383C174.714 256.383 174.073 256.661 173.641 257.219C173.208 257.776 172.992 258.607 172.992 259.711ZM183.016 255.438V260.992C183.016 261.69 183.174 262.211 183.492 262.555C183.81 262.898 184.307 263.07 184.984 263.07C185.88 263.07 186.534 262.826 186.945 262.336C187.362 261.846 187.57 261.047 187.57 259.938V255.438H188.867V264H187.797L187.609 262.852H187.539C187.273 263.273 186.904 263.596 186.43 263.82C185.961 264.044 185.424 264.156 184.82 264.156C183.779 264.156 182.997 263.909 182.477 263.414C181.961 262.919 181.703 262.128 181.703 261.039V255.438H183.016ZM195.531 255.281C195.911 255.281 196.253 255.312 196.555 255.375L196.375 256.578C196.021 256.5 195.708 256.461 195.438 256.461C194.745 256.461 194.151 256.742 193.656 257.305C193.167 257.867 192.922 258.568 192.922 259.406V264H191.625V255.438H192.695L192.844 257.023H192.906C193.224 256.466 193.607 256.036 194.055 255.734C194.503 255.432 194.995 255.281 195.531 255.281ZM206.297 255.297C207.422 255.297 208.294 255.682 208.914 256.453C209.539 257.219 209.852 258.305 209.852 259.711C209.852 261.117 209.536 262.211 208.906 262.992C208.281 263.768 207.411 264.156 206.297 264.156C205.74 264.156 205.229 264.055 204.766 263.852C204.307 263.643 203.922 263.326 203.609 262.898H203.516L203.242 264H202.312V251.844H203.609V254.797C203.609 255.458 203.589 256.052 203.547 256.578H203.609C204.214 255.724 205.109 255.297 206.297 255.297ZM206.109 256.383C205.224 256.383 204.586 256.638 204.195 257.148C203.805 257.654 203.609 258.508 203.609 259.711C203.609 260.914 203.81 261.776 204.211 262.297C204.612 262.812 205.255 263.07 206.141 263.07C206.938 263.07 207.531 262.781 207.922 262.203C208.312 261.62 208.508 260.784 208.508 259.695C208.508 258.581 208.312 257.75 207.922 257.203C207.531 256.656 206.927 256.383 206.109 256.383ZM217.391 264L217.133 262.781H217.07C216.643 263.318 216.216 263.682 215.789 263.875C215.367 264.062 214.839 264.156 214.203 264.156C213.354 264.156 212.688 263.938 212.203 263.5C211.724 263.062 211.484 262.44 211.484 261.633C211.484 259.904 212.867 258.997 215.633 258.914L217.086 258.867V258.336C217.086 257.664 216.94 257.169 216.648 256.852C216.362 256.529 215.901 256.367 215.266 256.367C214.552 256.367 213.745 256.586 212.844 257.023L212.445 256.031C212.867 255.802 213.328 255.622 213.828 255.492C214.333 255.362 214.839 255.297 215.344 255.297C216.365 255.297 217.12 255.523 217.609 255.977C218.104 256.43 218.352 257.156 218.352 258.156V264H217.391ZM214.461 263.086C215.268 263.086 215.901 262.865 216.359 262.422C216.823 261.979 217.055 261.359 217.055 260.562V259.789L215.758 259.844C214.727 259.88 213.982 260.042 213.523 260.328C213.07 260.609 212.844 261.049 212.844 261.648C212.844 262.117 212.984 262.474 213.266 262.719C213.552 262.964 213.951 263.086 214.461 263.086ZM222.328 264H221.031V251.844H222.328V264ZM230.344 264L230.086 262.781H230.023C229.596 263.318 229.169 263.682 228.742 263.875C228.32 264.062 227.792 264.156 227.156 264.156C226.307 264.156 225.641 263.938 225.156 263.5C224.677 263.062 224.438 262.44 224.438 261.633C224.438 259.904 225.82 258.997 228.586 258.914L230.039 258.867V258.336C230.039 257.664 229.893 257.169 229.602 256.852C229.315 256.529 228.854 256.367 228.219 256.367C227.505 256.367 226.698 256.586 225.797 257.023L225.398 256.031C225.82 255.802 226.281 255.622 226.781 255.492C227.286 255.362 227.792 255.297 228.297 255.297C229.318 255.297 230.073 255.523 230.562 255.977C231.057 256.43 231.305 257.156 231.305 258.156V264H230.344ZM227.414 263.086C228.221 263.086 228.854 262.865 229.312 262.422C229.776 261.979 230.008 261.359 230.008 260.562V259.789L228.711 259.844C227.68 259.88 226.935 260.042 226.477 260.328C226.023 260.609 225.797 261.049 225.797 261.648C225.797 262.117 225.938 262.474 226.219 262.719C226.505 262.964 226.904 263.086 227.414 263.086ZM239.844 264V258.461C239.844 257.763 239.685 257.242 239.367 256.898C239.049 256.555 238.552 256.383 237.875 256.383C236.979 256.383 236.323 256.625 235.906 257.109C235.49 257.594 235.281 258.393 235.281 259.508V264H233.984V255.438H235.039L235.25 256.609H235.312C235.578 256.188 235.951 255.862 236.43 255.633C236.909 255.398 237.443 255.281 238.031 255.281C239.062 255.281 239.839 255.531 240.359 256.031C240.88 256.526 241.141 257.32 241.141 258.414V264H239.844ZM247.234 264.156C245.995 264.156 245.034 263.776 244.352 263.016C243.674 262.25 243.336 261.169 243.336 259.773C243.336 258.341 243.68 257.234 244.367 256.453C245.06 255.672 246.044 255.281 247.32 255.281C247.732 255.281 248.143 255.326 248.555 255.414C248.966 255.503 249.289 255.607 249.523 255.727L249.125 256.828C248.839 256.714 248.526 256.62 248.188 256.547C247.849 256.469 247.549 256.43 247.289 256.43C245.549 256.43 244.68 257.539 244.68 259.758C244.68 260.81 244.891 261.617 245.312 262.18C245.74 262.742 246.37 263.023 247.203 263.023C247.917 263.023 248.648 262.87 249.398 262.562V263.711C248.826 264.008 248.104 264.156 247.234 264.156ZM255.055 264.156C253.789 264.156 252.789 263.771 252.055 263C251.326 262.229 250.961 261.159 250.961 259.789C250.961 258.409 251.299 257.312 251.977 256.5C252.659 255.688 253.573 255.281 254.719 255.281C255.792 255.281 256.641 255.635 257.266 256.344C257.891 257.047 258.203 257.977 258.203 259.133V259.953H252.305C252.331 260.958 252.583 261.721 253.062 262.242C253.547 262.763 254.227 263.023 255.102 263.023C256.023 263.023 256.935 262.831 257.836 262.445V263.602C257.378 263.799 256.943 263.94 256.531 264.023C256.125 264.112 255.633 264.156 255.055 264.156ZM254.703 256.367C254.016 256.367 253.466 256.591 253.055 257.039C252.648 257.487 252.409 258.107 252.336 258.898H256.812C256.812 258.081 256.63 257.456 256.266 257.023C255.901 256.586 255.38 256.367 254.703 256.367ZM260.234 263.172C260.234 262.823 260.312 262.56 260.469 262.383C260.63 262.201 260.859 262.109 261.156 262.109C261.458 262.109 261.693 262.201 261.859 262.383C262.031 262.56 262.117 262.823 262.117 263.172C262.117 263.51 262.031 263.771 261.859 263.953C261.688 264.135 261.453 264.227 261.156 264.227C260.891 264.227 260.669 264.146 260.492 263.984C260.32 263.818 260.234 263.547 260.234 263.172Z"
    fill="black"
  />
<path
    d="M75 309C75 306.791 76.7909 305 79 305H220C222.209 305 224 306.791 224 309V341C224 343.209 222.209 345 220 345H79C76.7909 345 75 343.209 75 341V309Z"
    fill="black"
  />
<path
    d="M98.5195 330.5L97.5215 327.725H93.7002L92.7227 330.5H91L94.7393 320.465H96.5166L100.256 330.5H98.5195ZM97.0908 326.316L96.1543 323.596C96.0859 323.413 95.9902 323.126 95.8672 322.734C95.7487 322.342 95.6667 322.055 95.6211 321.873C95.498 322.434 95.318 323.047 95.0811 323.712L94.1787 326.316H97.0908ZM103.954 330.637C103.011 330.637 102.275 330.295 101.746 329.611C101.217 328.928 100.953 327.968 100.953 326.733C100.953 325.494 101.22 324.53 101.753 323.842C102.291 323.149 103.034 322.803 103.981 322.803C104.975 322.803 105.731 323.17 106.251 323.903H106.333C106.256 323.361 106.217 322.933 106.217 322.618V319.863H107.83V330.5H106.572L106.292 329.509H106.217C105.702 330.261 104.948 330.637 103.954 330.637ZM104.385 329.338C105.046 329.338 105.526 329.153 105.827 328.784C106.128 328.41 106.283 327.807 106.292 326.973V326.747C106.292 325.795 106.137 325.118 105.827 324.717C105.517 324.316 105.032 324.115 104.371 324.115C103.806 324.115 103.371 324.345 103.065 324.806C102.76 325.261 102.607 325.913 102.607 326.761C102.607 327.599 102.756 328.24 103.052 328.682C103.348 329.119 103.792 329.338 104.385 329.338ZM112.677 330.637C111.733 330.637 110.997 330.295 110.469 329.611C109.94 328.928 109.676 327.968 109.676 326.733C109.676 325.494 109.942 324.53 110.476 323.842C111.013 323.149 111.756 322.803 112.704 322.803C113.698 322.803 114.454 323.17 114.974 323.903H115.056C114.978 323.361 114.939 322.933 114.939 322.618V319.863H116.553V330.5H115.295L115.015 329.509H114.939C114.424 330.261 113.67 330.637 112.677 330.637ZM113.107 329.338C113.768 329.338 114.249 329.153 114.55 328.784C114.851 328.41 115.006 327.807 115.015 326.973V326.747C115.015 325.795 114.86 325.118 114.55 324.717C114.24 324.316 113.755 324.115 113.094 324.115C112.529 324.115 112.093 324.345 111.788 324.806C111.483 325.261 111.33 325.913 111.33 326.761C111.33 327.599 111.478 328.24 111.774 328.682C112.071 329.119 112.515 329.338 113.107 329.338ZM129.138 330.5H127.524V325.852C127.524 325.268 127.406 324.833 127.169 324.546C126.937 324.259 126.565 324.115 126.055 324.115C125.376 324.115 124.879 324.316 124.564 324.717C124.25 325.118 124.093 325.79 124.093 326.733V330.5H122.486V322.939H123.744L123.97 323.931H124.052C124.28 323.571 124.603 323.293 125.022 323.097C125.442 322.901 125.907 322.803 126.417 322.803C128.231 322.803 129.138 323.726 129.138 325.571V330.5ZM134.675 330.637C133.499 330.637 132.578 330.295 131.913 329.611C131.252 328.923 130.922 327.978 130.922 326.774C130.922 325.539 131.229 324.569 131.845 323.862C132.46 323.156 133.305 322.803 134.381 322.803C135.379 322.803 136.167 323.106 136.746 323.712C137.325 324.318 137.614 325.152 137.614 326.214V327.082H132.576C132.599 327.816 132.797 328.381 133.171 328.777C133.545 329.169 134.071 329.365 134.75 329.365C135.197 329.365 135.611 329.324 135.994 329.242C136.382 329.156 136.796 329.014 137.238 328.818V330.124C136.846 330.311 136.45 330.443 136.049 330.521C135.648 330.598 135.19 330.637 134.675 330.637ZM134.381 324.02C133.87 324.02 133.46 324.181 133.15 324.505C132.845 324.828 132.663 325.3 132.604 325.92H136.035C136.026 325.296 135.876 324.824 135.584 324.505C135.292 324.181 134.891 324.02 134.381 324.02ZM145.64 330.5L144.662 326.973C144.544 326.599 144.329 325.731 144.02 324.368H143.958C143.694 325.599 143.484 326.471 143.329 326.986L142.324 330.5H140.547L138.428 322.939H140.068L141.032 326.665C141.251 327.586 141.406 328.374 141.497 329.03H141.538C141.584 328.698 141.652 328.317 141.743 327.889C141.839 327.456 141.921 327.132 141.989 326.918L143.138 322.939H144.901L146.016 326.918C146.084 327.141 146.168 327.483 146.269 327.943C146.373 328.404 146.435 328.761 146.453 329.017H146.508C146.576 328.456 146.736 327.672 146.986 326.665L147.964 322.939H149.577L147.444 330.5H145.64ZM159.25 330.5L158.929 329.447H158.874C158.509 329.908 158.143 330.222 157.773 330.391C157.404 330.555 156.93 330.637 156.352 330.637C155.609 330.637 155.028 330.436 154.608 330.035C154.194 329.634 153.986 329.067 153.986 328.333C153.986 327.554 154.276 326.966 154.854 326.569C155.433 326.173 156.315 325.956 157.5 325.92L158.806 325.879V325.476C158.806 324.993 158.692 324.632 158.464 324.396C158.241 324.154 157.892 324.033 157.418 324.033C157.031 324.033 156.659 324.09 156.304 324.204C155.948 324.318 155.606 324.452 155.278 324.607L154.759 323.459C155.169 323.245 155.618 323.083 156.105 322.974C156.593 322.86 157.053 322.803 157.486 322.803C158.448 322.803 159.173 323.012 159.66 323.432C160.152 323.851 160.398 324.509 160.398 325.407V330.5H159.25ZM156.857 329.406C157.441 329.406 157.908 329.244 158.259 328.921C158.614 328.593 158.792 328.135 158.792 327.547V326.891L157.821 326.932C157.065 326.959 156.513 327.087 156.167 327.314C155.825 327.538 155.654 327.882 155.654 328.347C155.654 328.684 155.755 328.946 155.955 329.133C156.156 329.315 156.456 329.406 156.857 329.406ZM165.689 330.637C164.546 330.637 163.675 330.304 163.078 329.639C162.486 328.969 162.189 328.009 162.189 326.761C162.189 325.489 162.499 324.512 163.119 323.828C163.743 323.145 164.644 322.803 165.819 322.803C166.617 322.803 167.335 322.951 167.973 323.247L167.487 324.539C166.808 324.275 166.248 324.143 165.806 324.143C164.498 324.143 163.844 325.011 163.844 326.747C163.844 327.595 164.006 328.233 164.329 328.661C164.657 329.085 165.136 329.297 165.765 329.297C166.48 329.297 167.157 329.119 167.795 328.764V330.165C167.508 330.334 167.2 330.454 166.872 330.527C166.549 330.6 166.154 330.637 165.689 330.637ZM172.621 330.637C171.477 330.637 170.607 330.304 170.01 329.639C169.417 328.969 169.121 328.009 169.121 326.761C169.121 325.489 169.431 324.512 170.051 323.828C170.675 323.145 171.575 322.803 172.751 322.803C173.549 322.803 174.266 322.951 174.904 323.247L174.419 324.539C173.74 324.275 173.179 324.143 172.737 324.143C171.429 324.143 170.775 325.011 170.775 326.747C170.775 327.595 170.937 328.233 171.261 328.661C171.589 329.085 172.067 329.297 172.696 329.297C173.412 329.297 174.089 329.119 174.727 328.764V330.165C174.439 330.334 174.132 330.454 173.804 330.527C173.48 330.6 173.086 330.637 172.621 330.637ZM183.21 326.706C183.21 327.941 182.893 328.905 182.26 329.598C181.626 330.29 180.744 330.637 179.614 330.637C178.908 330.637 178.284 330.477 177.741 330.158C177.199 329.839 176.782 329.381 176.49 328.784C176.199 328.187 176.053 327.494 176.053 326.706C176.053 325.48 176.367 324.523 176.996 323.835C177.625 323.147 178.511 322.803 179.655 322.803C180.749 322.803 181.615 323.156 182.253 323.862C182.891 324.564 183.21 325.512 183.21 326.706ZM177.707 326.706C177.707 328.451 178.352 329.324 179.642 329.324C180.918 329.324 181.556 328.451 181.556 326.706C181.556 324.979 180.913 324.115 179.628 324.115C178.953 324.115 178.464 324.339 178.158 324.785C177.857 325.232 177.707 325.872 177.707 326.706ZM190.395 330.5L190.169 329.509H190.087C189.864 329.86 189.545 330.135 189.13 330.336C188.72 330.536 188.25 330.637 187.722 330.637C186.806 330.637 186.122 330.409 185.671 329.953C185.22 329.497 184.994 328.807 184.994 327.882V322.939H186.614V327.602C186.614 328.18 186.733 328.616 186.97 328.907C187.207 329.194 187.578 329.338 188.084 329.338C188.758 329.338 189.253 329.137 189.567 328.736C189.886 328.331 190.046 327.654 190.046 326.706V322.939H191.659V330.5H190.395ZM200.601 330.5H198.987V325.852C198.987 325.268 198.869 324.833 198.632 324.546C198.399 324.259 198.028 324.115 197.518 324.115C196.839 324.115 196.342 324.316 196.027 324.717C195.713 325.118 195.556 325.79 195.556 326.733V330.5H193.949V322.939H195.207L195.433 323.931H195.515C195.743 323.571 196.066 323.293 196.485 323.097C196.905 322.901 197.369 322.803 197.88 322.803C199.694 322.803 200.601 323.726 200.601 325.571V330.5ZM205.652 329.338C206.044 329.338 206.436 329.276 206.828 329.153V330.363C206.65 330.441 206.42 330.505 206.138 330.555C205.86 330.609 205.57 330.637 205.27 330.637C203.747 330.637 202.986 329.835 202.986 328.23V324.156H201.954V323.445L203.062 322.857L203.608 321.258H204.6V322.939H206.753V324.156H204.6V328.203C204.6 328.59 204.695 328.878 204.887 329.064C205.083 329.247 205.338 329.338 205.652 329.338Z"
    fill="white"
  />
<path
    d="M240 309C240 306.791 241.791 305 244 305H347C349.209 305 351 306.791 351 309V341C351 343.209 349.209 345 347 345H244C241.791 345 240 343.209 240 341V309Z"
    fill="white"
  />
<path
    d="M257.319 330.5V320.506H258.953V329.099H263.185V330.5H257.319ZM268.038 330.637C266.862 330.637 265.942 330.295 265.276 329.611C264.616 328.923 264.285 327.978 264.285 326.774C264.285 325.539 264.593 324.569 265.208 323.862C265.823 323.156 266.669 322.803 267.744 322.803C268.742 322.803 269.531 323.106 270.109 323.712C270.688 324.318 270.978 325.152 270.978 326.214V327.082H265.939C265.962 327.816 266.16 328.381 266.534 328.777C266.908 329.169 267.434 329.365 268.113 329.365C268.56 329.365 268.975 329.324 269.357 329.242C269.745 329.156 270.16 329.014 270.602 328.818V330.124C270.21 330.311 269.813 330.443 269.412 330.521C269.011 330.598 268.553 330.637 268.038 330.637ZM267.744 324.02C267.234 324.02 266.824 324.181 266.514 324.505C266.208 324.828 266.026 325.3 265.967 325.92H269.398C269.389 325.296 269.239 324.824 268.947 324.505C268.656 324.181 268.255 324.02 267.744 324.02ZM277.533 330.5L277.212 329.447H277.157C276.793 329.908 276.426 330.222 276.057 330.391C275.688 330.555 275.214 330.637 274.635 330.637C273.892 330.637 273.311 330.436 272.892 330.035C272.477 329.634 272.27 329.067 272.27 328.333C272.27 327.554 272.559 326.966 273.138 326.569C273.716 326.173 274.598 325.956 275.783 325.92L277.089 325.879V325.476C277.089 324.993 276.975 324.632 276.747 324.396C276.524 324.154 276.175 324.033 275.701 324.033C275.314 324.033 274.942 324.09 274.587 324.204C274.231 324.318 273.89 324.452 273.562 324.607L273.042 323.459C273.452 323.245 273.901 323.083 274.389 322.974C274.876 322.86 275.337 322.803 275.77 322.803C276.731 322.803 277.456 323.012 277.943 323.432C278.436 323.851 278.682 324.509 278.682 325.407V330.5H277.533ZM275.141 329.406C275.724 329.406 276.191 329.244 276.542 328.921C276.897 328.593 277.075 328.135 277.075 327.547V326.891L276.104 326.932C275.348 326.959 274.797 327.087 274.45 327.314C274.108 327.538 273.938 327.882 273.938 328.347C273.938 328.684 274.038 328.946 274.238 329.133C274.439 329.315 274.74 329.406 275.141 329.406ZM284.759 322.803C285.082 322.803 285.349 322.826 285.559 322.871L285.401 324.368C285.174 324.313 284.937 324.286 284.69 324.286C284.048 324.286 283.526 324.496 283.125 324.915C282.729 325.334 282.53 325.879 282.53 326.549V330.5H280.924V322.939H282.182L282.394 324.272H282.476C282.726 323.821 283.052 323.464 283.453 323.199C283.859 322.935 284.294 322.803 284.759 322.803ZM293.618 330.5H292.005V325.852C292.005 325.268 291.886 324.833 291.649 324.546C291.417 324.259 291.046 324.115 290.535 324.115C289.856 324.115 289.359 324.316 289.045 324.717C288.73 325.118 288.573 325.79 288.573 326.733V330.5H286.967V322.939H288.225L288.45 323.931H288.532C288.76 323.571 289.084 323.293 289.503 323.097C289.922 322.901 290.387 322.803 290.897 322.803C292.711 322.803 293.618 323.726 293.618 325.571V330.5ZM305.861 330.5H304.248V325.838C304.248 325.259 304.139 324.828 303.92 324.546C303.701 324.259 303.359 324.115 302.895 324.115C302.275 324.115 301.819 324.318 301.527 324.724C301.24 325.125 301.097 325.795 301.097 326.733V330.5H299.49V322.939H300.748L300.974 323.931H301.056C301.265 323.571 301.568 323.293 301.965 323.097C302.366 322.901 302.806 322.803 303.284 322.803C304.446 322.803 305.216 323.199 305.595 323.992H305.704C305.927 323.618 306.242 323.327 306.647 323.117C307.053 322.908 307.518 322.803 308.042 322.803C308.944 322.803 309.601 323.031 310.011 323.486C310.425 323.942 310.633 324.637 310.633 325.571V330.5H309.026V325.838C309.026 325.259 308.915 324.828 308.691 324.546C308.473 324.259 308.131 324.115 307.666 324.115C307.042 324.115 306.584 324.311 306.292 324.703C306.005 325.09 305.861 325.688 305.861 326.494V330.5ZM319.581 326.706C319.581 327.941 319.264 328.905 318.631 329.598C317.997 330.29 317.116 330.637 315.985 330.637C315.279 330.637 314.655 330.477 314.112 330.158C313.57 329.839 313.153 329.381 312.861 328.784C312.57 328.187 312.424 327.494 312.424 326.706C312.424 325.48 312.738 324.523 313.367 323.835C313.996 323.147 314.882 322.803 316.026 322.803C317.12 322.803 317.986 323.156 318.624 323.862C319.262 324.564 319.581 325.512 319.581 326.706ZM314.078 326.706C314.078 328.451 314.723 329.324 316.013 329.324C317.289 329.324 317.927 328.451 317.927 326.706C317.927 324.979 317.284 324.115 315.999 324.115C315.325 324.115 314.835 324.339 314.529 324.785C314.229 325.232 314.078 325.872 314.078 326.706ZM325.269 322.803C325.592 322.803 325.859 322.826 326.068 322.871L325.911 324.368C325.683 324.313 325.446 324.286 325.2 324.286C324.558 324.286 324.036 324.496 323.635 324.915C323.238 325.334 323.04 325.879 323.04 326.549V330.5H321.434V322.939H322.691L322.903 324.272H322.985C323.236 323.821 323.562 323.464 323.963 323.199C324.368 322.935 324.804 322.803 325.269 322.803ZM330.778 330.637C329.603 330.637 328.682 330.295 328.017 329.611C327.356 328.923 327.025 327.978 327.025 326.774C327.025 325.539 327.333 324.569 327.948 323.862C328.563 323.156 329.409 322.803 330.484 322.803C331.482 322.803 332.271 323.106 332.85 323.712C333.428 324.318 333.718 325.152 333.718 326.214V327.082H328.68C328.702 327.816 328.901 328.381 329.274 328.777C329.648 329.169 330.174 329.365 330.854 329.365C331.3 329.365 331.715 329.324 332.098 329.242C332.485 329.156 332.9 329.014 333.342 328.818V330.124C332.95 330.311 332.553 330.443 332.152 330.521C331.751 330.598 331.293 330.637 330.778 330.637ZM330.484 324.02C329.974 324.02 329.564 324.181 329.254 324.505C328.949 324.828 328.766 325.3 328.707 325.92H332.139C332.13 325.296 331.979 324.824 331.688 324.505C331.396 324.181 330.995 324.02 330.484 324.02Z"
    fill="black"
  />
<path
    d="M244 307H347V303H244V307ZM349 309V341H353V309H349ZM347 343H244V347H347V343ZM242 341V309H238V341H242ZM244 343C242.895 343 242 342.105 242 341H238C238 344.314 240.686 347 244 347V343ZM349 341C349 342.105 348.105 343 347 343V347C350.314 347 353 344.314 353 341H349ZM347 307C348.105 307 349 307.895 349 309H353C353 305.686 350.314 303 347 303V307ZM244 303C240.686 303 238 305.686 238 309H242C242 307.895 242.895 307 244 307V303Z"
    fill="black"
  />
</svg>
