<svg
  width="185"
  height="142"
  viewBox="0 0 185 142"
  fill="none"
  xmlns="http://www.w3.org/2000/svg"
>
<path
    d="M19.4824 136.965H16.6211L9.59961 125.588H9.52148L9.57031 126.223C9.66146 127.434 9.70703 128.54 9.70703 129.543V136.965H7.58789V122.688H10.4199L17.4219 134.006H17.4805C17.4674 133.856 17.4414 133.313 17.4023 132.375C17.3633 131.431 17.3438 130.695 17.3438 130.168V122.688H19.4824V136.965ZM32.5879 131.545C32.5879 133.309 32.1354 134.686 31.2305 135.676C30.3255 136.665 29.0658 137.16 27.4512 137.16C26.4421 137.16 25.5501 136.932 24.7754 136.477C24.0007 136.021 23.4049 135.367 22.9883 134.514C22.5716 133.661 22.3633 132.671 22.3633 131.545C22.3633 129.794 22.8125 128.427 23.7109 127.443C24.6094 126.46 25.8757 125.969 27.5098 125.969C29.0723 125.969 30.3092 126.473 31.2207 127.483C32.1322 128.485 32.5879 129.839 32.5879 131.545ZM24.7266 131.545C24.7266 134.039 25.6478 135.285 27.4902 135.285C29.3132 135.285 30.2246 134.039 30.2246 131.545C30.2246 129.078 29.3066 127.844 27.4707 127.844C26.5072 127.844 25.8073 128.163 25.3711 128.801C24.9414 129.439 24.7266 130.354 24.7266 131.545ZM43.0078 129.328H44.6289C45.7161 129.328 46.5039 129.126 46.9922 128.723C47.4805 128.319 47.7246 127.72 47.7246 126.926C47.7246 126.119 47.4609 125.539 46.9336 125.188C46.4062 124.836 45.612 124.66 44.5508 124.66H43.0078V129.328ZM43.0078 131.262V136.965H40.6738V122.688H44.707C46.5495 122.688 47.9134 123.033 48.7988 123.723C49.6842 124.413 50.127 125.455 50.127 126.848C50.127 128.625 49.2025 129.891 47.3535 130.647L51.3867 136.965H48.7305L45.3125 131.262H43.0078ZM57.9395 137.16C56.2598 137.16 54.9447 136.672 53.9941 135.695C53.0501 134.712 52.5781 133.361 52.5781 131.643C52.5781 129.878 53.0176 128.492 53.8965 127.483C54.7754 126.473 55.9831 125.969 57.5195 125.969C58.9453 125.969 60.0716 126.402 60.8984 127.268C61.7253 128.134 62.1387 129.325 62.1387 130.842V132.082H54.9414C54.974 133.13 55.2572 133.938 55.791 134.504C56.3249 135.064 57.0768 135.344 58.0469 135.344C58.6849 135.344 59.2773 135.285 59.8242 135.168C60.3776 135.044 60.9701 134.843 61.6016 134.563V136.428C61.0417 136.695 60.4753 136.884 59.9023 136.994C59.3294 137.105 58.6751 137.16 57.9395 137.16ZM57.5195 127.707C56.7904 127.707 56.2044 127.938 55.7617 128.401C55.3255 128.863 55.0651 129.537 54.9805 130.422H59.8828C59.8698 129.53 59.6549 128.856 59.2383 128.401C58.8216 127.938 58.2487 127.707 57.5195 127.707ZM73.8477 136.965H71.543V130.305C71.543 129.478 71.3867 128.863 71.0742 128.459C70.7617 128.049 70.2734 127.844 69.6094 127.844C68.724 127.844 68.0729 128.134 67.6562 128.713C67.2461 129.286 67.041 130.243 67.041 131.584V136.965H64.7461V126.164H66.543L66.8652 127.58H66.9824C67.2819 127.066 67.7148 126.669 68.2812 126.389C68.8542 126.109 69.4824 125.969 70.166 125.969C71.8262 125.969 72.9264 126.535 73.4668 127.668H73.623C73.9421 127.134 74.3913 126.718 74.9707 126.418C75.5501 126.119 76.2142 125.969 76.9629 125.969C78.252 125.969 79.1895 126.294 79.7754 126.945C80.3678 127.596 80.6641 128.589 80.6641 129.924V136.965H78.3691V130.305C78.3691 129.478 78.2096 128.863 77.8906 128.459C77.5781 128.049 77.0898 127.844 76.4258 127.844C75.5339 127.844 74.8796 128.124 74.4629 128.684C74.0527 129.237 73.8477 130.09 73.8477 131.242V136.965ZM86.1621 136.965H83.8672V126.164H86.1621V136.965ZM83.7305 123.303C83.7305 122.893 83.8411 122.577 84.0625 122.356C84.2904 122.134 84.6126 122.024 85.0293 122.024C85.4329 122.024 85.7454 122.134 85.9668 122.356C86.1947 122.577 86.3086 122.893 86.3086 123.303C86.3086 123.693 86.1947 124.003 85.9668 124.231C85.7454 124.452 85.4329 124.563 85.0293 124.563C84.6126 124.563 84.2904 124.452 84.0625 124.231C83.8411 124.003 83.7305 123.693 83.7305 123.303ZM98.9551 136.965H96.6504V130.324C96.6504 129.491 96.4811 128.869 96.1426 128.459C95.8105 128.049 95.2799 127.844 94.5508 127.844C93.5807 127.844 92.8711 128.13 92.4219 128.703C91.9727 129.276 91.748 130.236 91.748 131.584V136.965H89.4531V126.164H91.25L91.5723 127.58H91.6895C92.015 127.066 92.4772 126.669 93.0762 126.389C93.6751 126.109 94.3392 125.969 95.0684 125.969C97.6595 125.969 98.9551 127.287 98.9551 129.924V136.965ZM105.791 137.16C104.443 137.16 103.392 136.672 102.637 135.695C101.882 134.719 101.504 133.348 101.504 131.584C101.504 129.813 101.885 128.436 102.646 127.453C103.415 126.464 104.476 125.969 105.83 125.969C107.249 125.969 108.33 126.493 109.072 127.541H109.189C109.079 126.766 109.023 126.154 109.023 125.705V121.77H111.328V136.965H109.531L109.131 135.549H109.023C108.288 136.623 107.21 137.16 105.791 137.16ZM106.406 135.305C107.35 135.305 108.037 135.041 108.467 134.514C108.896 133.98 109.118 133.117 109.131 131.926V131.604C109.131 130.243 108.91 129.276 108.467 128.703C108.024 128.13 107.331 127.844 106.387 127.844C105.579 127.844 104.958 128.173 104.521 128.83C104.085 129.481 103.867 130.412 103.867 131.623C103.867 132.821 104.079 133.736 104.502 134.367C104.925 134.992 105.56 135.305 106.406 135.305ZM119.326 137.16C117.646 137.16 116.331 136.672 115.381 135.695C114.437 134.712 113.965 133.361 113.965 131.643C113.965 129.878 114.404 128.492 115.283 127.483C116.162 126.473 117.37 125.969 118.906 125.969C120.332 125.969 121.458 126.402 122.285 127.268C123.112 128.134 123.525 129.325 123.525 130.842V132.082H116.328C116.361 133.13 116.644 133.938 117.178 134.504C117.712 135.064 118.464 135.344 119.434 135.344C120.072 135.344 120.664 135.285 121.211 135.168C121.764 135.044 122.357 134.843 122.988 134.563V136.428C122.428 136.695 121.862 136.884 121.289 136.994C120.716 137.105 120.062 137.16 119.326 137.16ZM118.906 127.707C118.177 127.707 117.591 127.938 117.148 128.401C116.712 128.863 116.452 129.537 116.367 130.422H121.27C121.257 129.53 121.042 128.856 120.625 128.401C120.208 127.938 119.635 127.707 118.906 127.707ZM131.611 125.969C132.074 125.969 132.454 126.001 132.754 126.067L132.529 128.205C132.204 128.127 131.865 128.088 131.514 128.088C130.596 128.088 129.85 128.387 129.277 128.986C128.711 129.585 128.428 130.363 128.428 131.32V136.965H126.133V126.164H127.93L128.232 128.068H128.35C128.708 127.424 129.173 126.913 129.746 126.535C130.326 126.158 130.947 125.969 131.611 125.969ZM142.021 133.889C142.021 134.943 141.637 135.754 140.869 136.32C140.101 136.88 139.001 137.16 137.568 137.16C136.13 137.16 134.974 136.942 134.102 136.506V134.524C135.371 135.109 136.553 135.402 137.646 135.402C139.059 135.402 139.766 134.976 139.766 134.123C139.766 133.85 139.688 133.622 139.531 133.44C139.375 133.257 139.118 133.068 138.76 132.873C138.402 132.678 137.904 132.457 137.266 132.209C136.022 131.727 135.179 131.246 134.736 130.764C134.3 130.282 134.082 129.657 134.082 128.889C134.082 127.964 134.453 127.248 135.195 126.74C135.944 126.226 136.96 125.969 138.242 125.969C139.512 125.969 140.713 126.226 141.846 126.74L141.104 128.469C139.938 127.987 138.958 127.746 138.164 127.746C136.953 127.746 136.348 128.091 136.348 128.781C136.348 129.12 136.504 129.406 136.816 129.641C137.135 129.875 137.826 130.197 138.887 130.608C139.779 130.953 140.426 131.268 140.83 131.555C141.234 131.841 141.533 132.173 141.729 132.551C141.924 132.922 142.021 133.368 142.021 133.889ZM153.984 129.201L157.363 122.688H159.902L155.146 131.428V136.965H152.803V131.506L148.066 122.688H150.605L153.984 129.201ZM166.26 137.16C164.58 137.16 163.265 136.672 162.314 135.695C161.37 134.712 160.898 133.361 160.898 131.643C160.898 129.878 161.338 128.492 162.217 127.483C163.096 126.473 164.303 125.969 165.84 125.969C167.266 125.969 168.392 126.402 169.219 127.268C170.046 128.134 170.459 129.325 170.459 130.842V132.082H163.262C163.294 133.13 163.577 133.938 164.111 134.504C164.645 135.064 165.397 135.344 166.367 135.344C167.005 135.344 167.598 135.285 168.145 135.168C168.698 135.044 169.29 134.843 169.922 134.563V136.428C169.362 136.695 168.796 136.884 168.223 136.994C167.65 137.105 166.995 137.16 166.26 137.16ZM165.84 127.707C165.111 127.707 164.525 127.938 164.082 128.401C163.646 128.863 163.385 129.537 163.301 130.422H168.203C168.19 129.53 167.975 128.856 167.559 128.401C167.142 127.938 166.569 127.707 165.84 127.707ZM177.09 135.305C177.65 135.305 178.21 135.217 178.77 135.041V136.77C178.516 136.88 178.187 136.971 177.783 137.043C177.386 137.121 176.973 137.16 176.543 137.16C174.368 137.16 173.281 136.014 173.281 133.723V127.902H171.807V126.887L173.389 126.047L174.17 123.762H175.586V126.164H178.662V127.902H175.586V133.684C175.586 134.237 175.723 134.647 175.996 134.914C176.276 135.175 176.641 135.305 177.09 135.305Z"
    fill="black"
  />
<path
    d="M95.2709 10.2534C95.2709 10.2534 98.2373 29.5608 130.214 30.0937C158.612 30.5669 149.587 64.7532 139.506 75.5028C126.448 89.4279 100.857 85.7852 99.5138 101.993C98.1706 118.202 62.0928 111.909 62.7072 87.4714C63.4717 57.0719 47.0197 66.3156 38.6909 58.1841C32.7133 52.3481 34.768 25.3331 53.7149 22.2402C69.6584 19.6377 68.8318 12.8009 70.0994 7.73962C71.9274 0.440212 90.4102 -6.17198 95.2709 10.2534Z"
    fill="#DEE9FF"
  />
<path
    d="M125.353 78.9814C125.355 79.4719 125.261 79.958 125.076 80.4117C124.892 80.8654 124.621 81.2778 124.279 81.6253C123.937 81.9728 123.531 82.2486 123.083 82.4368C122.635 82.6251 122.156 82.722 121.671 82.7222L62.6098 82.8436C62.1253 82.8449 61.6452 82.7494 61.1971 82.5628C60.7491 82.3761 60.3417 82.1019 59.9985 81.7557C59.6552 81.4096 59.3827 80.9984 59.1966 80.5456C59.0105 80.0928 58.9144 79.6073 58.9138 79.1168L58.8308 37.0861L91.5221 16.3136C91.6683 16.2202 91.8376 16.1702 92.0105 16.1694C92.1835 16.1686 92.3532 16.2169 92.5003 16.3089L124.504 36.4695L125.27 36.9505V37.623L125.353 78.9814Z"
    fill="#208AF2"
  />
<path
    d="M120.534 19.9312H63.2152C63.0785 19.9312 62.9677 20.0433 62.9677 20.1817V82.2597C62.9677 82.3981 63.0785 82.5102 63.2152 82.5102H120.534C120.671 82.5102 120.782 82.3981 120.782 82.2597V20.1817C120.782 20.0433 120.671 19.9312 120.534 19.9312Z"
    fill="#699CFF"
  />
<path
    d="M121.612 82.6628L92.2969 60.0405C92.2733 60.0223 92.2543 59.9986 92.2415 59.9715C92.2287 59.9444 92.2224 59.9146 92.2231 59.8846C92.2239 59.8546 92.2317 59.8251 92.2459 59.7987C92.2601 59.7724 92.2803 59.7498 92.3048 59.7328L124.975 37.1329C125.003 37.1135 125.036 37.1021 125.07 37.1002C125.104 37.0982 125.138 37.1057 125.168 37.1217C125.198 37.1378 125.223 37.1619 125.241 37.1914C125.259 37.221 125.268 37.2548 125.268 37.2893L125.351 78.9612C125.353 79.9401 124.975 80.8807 124.299 81.5806C123.622 82.2805 122.702 82.6839 121.735 82.7039C121.69 82.7046 121.647 82.6901 121.612 82.6628V82.6628Z"
    fill="#A2BDFF"
  />
<path
    d="M62.6594 82.7819L91.8847 60.0414C91.9082 60.0231 91.9271 59.9994 91.9398 59.9722C91.9526 59.9451 91.9587 59.9153 91.9578 59.8852C91.957 59.8552 91.949 59.8258 91.9347 59.7995C91.9204 59.7731 91.9002 59.7506 91.8756 59.7337L59.117 37.2661C59.0888 37.2468 59.0559 37.2356 59.0218 37.2337C58.9878 37.2319 58.9539 37.2395 58.9238 37.2557C58.8937 37.2719 58.8685 37.296 58.851 37.3256C58.8334 37.3552 58.8242 37.3891 58.8242 37.4236L58.9067 79.0955C58.9087 80.0743 59.2901 81.0133 59.9689 81.7104C60.6477 82.4076 61.5697 82.8073 62.5367 82.8236C62.5811 82.824 62.6243 82.8093 62.6594 82.7819Z"
    fill="#A2BDFF"
  />
<path
    d="M121.666 82.7047L62.6053 82.8242C61.7118 82.8235 60.8488 82.4956 60.1755 81.9011C59.5022 81.3066 59.0642 80.4856 58.9423 79.5898C58.9222 79.437 58.9397 79.2816 58.9931 79.1374C59.0466 78.9931 59.1343 78.8644 59.2487 78.7626L91.4608 49.9188C91.629 49.7681 91.8458 49.6847 92.0704 49.6843C92.2951 49.6838 92.5121 49.7663 92.681 49.9163L125.006 78.6295C125.121 78.7308 125.21 78.8591 125.264 79.0032C125.318 79.1473 125.336 79.3026 125.316 79.4554C125.198 80.3517 124.763 81.1744 124.092 81.7716C123.421 82.3688 122.56 82.7002 121.666 82.7047V82.7047Z"
    fill="#418DF9"
  />
<path
    d="M77.6394 35.3425C78.7862 35.3425 79.7158 34.088 79.7158 32.5405C79.7158 30.993 78.7862 29.7385 77.6394 29.7385C76.4927 29.7385 75.563 30.993 75.563 32.5405C75.563 34.088 76.4927 35.3425 77.6394 35.3425Z"
    fill="white"
  />
<path
    d="M106.709 35.3425C107.856 35.3425 108.785 34.088 108.785 32.5405C108.785 30.993 107.856 29.7385 106.709 29.7385C105.562 29.7385 104.632 30.993 104.632 32.5405C104.632 34.088 105.562 35.3425 106.709 35.3425Z"
    fill="white"
  />
<path
    d="M100.019 44.6333C99.9485 44.6334 99.8796 44.6154 99.8183 44.5811C99.757 44.5467 99.7054 44.4972 99.6683 44.437C99.6466 44.4022 97.3884 40.8716 92.1399 40.429C89.9554 40.2449 87.8823 40.8605 85.9806 42.2596C85.1324 42.876 84.379 43.616 83.7448 44.4556C83.6817 44.5455 83.586 44.6065 83.4787 44.6252C83.3713 44.644 83.261 44.619 83.1718 44.5557C83.0826 44.4924 83.0217 44.396 83.0025 44.2875C82.9833 44.1789 83.0073 44.0671 83.0692 43.9764C83.1038 43.9263 83.9336 42.739 85.4709 41.6021C87.5143 40.0908 89.8443 39.3977 92.2083 39.5967C97.8861 40.0756 100.269 43.8348 100.368 43.9945C100.407 44.0577 100.428 44.1303 100.43 44.2048C100.432 44.2793 100.414 44.3529 100.379 44.4181C100.343 44.4833 100.291 44.5376 100.227 44.5755C100.164 44.6133 100.092 44.6333 100.018 44.6334L100.019 44.6333Z"
    fill="white"
  />
</svg>
