<svg
  width="207"
  height="325"
  viewBox="0 0 207 325"
  fill="none"
  xmlns="http://www.w3.org/2000/svg"
>
<circle cx="120.225" cy="86.899" r="86" fill="#F1F1F1" />
<path
    d="M111.967 188.713L1.98205 125.213C1.26461 124.799 1.0188 123.882 1.43301 123.164L8.68301 110.607C9.09723 109.89 10.0146 109.644 10.7321 110.058L12.0311 110.808C17.0532 113.708 23.4749 111.987 26.3744 106.965L47.8744 69.7257C59.6104 49.3982 85.603 42.4335 105.93 54.1696L106.18 53.7366L106.613 53.9866L108.988 49.8729C112.095 44.4922 118.975 42.6486 124.356 45.7552C129.737 48.8618 131.581 55.7421 128.474 61.1229L126.099 65.2366L126.532 65.4866L126.282 65.9196C144.696 76.5511 151.005 100.097 140.374 118.512L116.874 159.215C113.975 164.237 115.695 170.659 120.717 173.558C121.435 173.972 121.681 174.89 121.266 175.607L114.016 188.164C113.602 188.882 112.685 189.128 111.967 188.713Z"
    fill="#DDDDDD"
    stroke="black"
  />
<mask id="path-3-inside-1_898:484" fill="white">
<path
      d="M64.3179 165.245C62.1962 168.919 61.6212 173.287 62.7195 177.386C63.8178 181.485 66.4994 184.979 70.1743 187.101C73.8493 189.223 78.2166 189.798 82.3154 188.699C86.4143 187.601 89.909 184.919 92.0307 181.245L78.1743 173.245L64.3179 165.245Z"
    />
</mask>
<path
    d="M64.3179 165.245C62.1962 168.919 61.6212 173.287 62.7195 177.386C63.8178 181.485 66.4994 184.979 70.1743 187.101C73.8493 189.223 78.2166 189.798 82.3154 188.699C86.4143 187.601 89.909 184.919 92.0307 181.245L78.1743 173.245L64.3179 165.245Z"
    fill="#CCCCCC"
    stroke="black"
    stroke-width="2"
    mask="url(#path-3-inside-1_898:484)"
  />
<circle cx="60.7247" cy="24.399" r="6.5" fill="#CCCCCC" />
<circle cx="165.725" cy="105.399" r="6" fill="#CCCCCC" stroke="black" />
<circle cx="17.7247" cy="89.399" r="6" stroke="black" />
<path
    d="M30.0947 242.101H27.2334L20.2119 230.724H20.1338L20.1826 231.359C20.2738 232.57 20.3193 233.676 20.3193 234.679V242.101H18.2002V227.824H21.0322L28.0342 239.142H28.0928C28.0798 238.992 28.0537 238.449 28.0146 237.511C27.9756 236.567 27.9561 235.831 27.9561 235.304V227.824H30.0947V242.101ZM43.2002 236.681C43.2002 238.445 42.7477 239.822 41.8428 240.812C40.9378 241.801 39.6781 242.296 38.0635 242.296C37.0544 242.296 36.1624 242.068 35.3877 241.613C34.613 241.157 34.0173 240.503 33.6006 239.65C33.1839 238.797 32.9756 237.807 32.9756 236.681C32.9756 234.93 33.4248 233.563 34.3232 232.579C35.2217 231.596 36.488 231.105 38.1221 231.105C39.6846 231.105 40.9215 231.609 41.833 232.619C42.7445 233.621 43.2002 234.975 43.2002 236.681ZM35.3389 236.681C35.3389 239.175 36.2601 240.421 38.1025 240.421C39.9255 240.421 40.8369 239.175 40.8369 236.681C40.8369 234.214 39.9189 232.98 38.083 232.98C37.1195 232.98 36.4196 233.299 35.9834 233.937C35.5537 234.575 35.3389 235.49 35.3389 236.681ZM53.6201 234.464H55.2412C56.3285 234.464 57.1162 234.262 57.6045 233.859C58.0928 233.455 58.3369 232.856 58.3369 232.062C58.3369 231.255 58.0732 230.675 57.5459 230.324C57.0186 229.972 56.2243 229.796 55.1631 229.796H53.6201V234.464ZM53.6201 236.398V242.101H51.2861V227.824H55.3193C57.1618 227.824 58.5257 228.169 59.4111 228.859C60.2965 229.549 60.7393 230.591 60.7393 231.984C60.7393 233.761 59.8148 235.027 57.9658 235.783L61.999 242.101H59.3428L55.9248 236.398H53.6201ZM68.5518 242.296C66.8721 242.296 65.557 241.808 64.6064 240.831C63.6624 239.848 63.1904 238.497 63.1904 236.779C63.1904 235.014 63.6299 233.628 64.5088 232.619C65.3877 231.609 66.5954 231.105 68.1318 231.105C69.5576 231.105 70.6839 231.538 71.5107 232.404C72.3376 233.27 72.751 234.461 72.751 235.978V237.218H65.5537C65.5863 238.266 65.8695 239.074 66.4033 239.64C66.9372 240.2 67.6891 240.48 68.6592 240.48C69.2972 240.48 69.8896 240.421 70.4365 240.304C70.9899 240.18 71.5824 239.979 72.2139 239.699V241.564C71.654 241.831 71.0876 242.02 70.5146 242.13C69.9417 242.241 69.2874 242.296 68.5518 242.296ZM68.1318 232.843C67.4027 232.843 66.8167 233.074 66.374 233.536C65.9378 233.999 65.6774 234.673 65.5928 235.558H70.4951C70.4821 234.666 70.2673 233.992 69.8506 233.536C69.4339 233.074 68.861 232.843 68.1318 232.843ZM84.46 242.101H82.1553V235.441C82.1553 234.614 81.999 233.999 81.6865 233.595C81.374 233.185 80.8857 232.98 80.2217 232.98C79.3363 232.98 78.6852 233.27 78.2686 233.849C77.8584 234.422 77.6533 235.379 77.6533 236.72V242.101H75.3584V231.3H77.1553L77.4775 232.716H77.5947C77.8942 232.202 78.3271 231.805 78.8936 231.525C79.4665 231.245 80.0947 231.105 80.7783 231.105C82.4385 231.105 83.5387 231.671 84.0791 232.804H84.2354C84.5544 232.27 85.0036 231.854 85.583 231.554C86.1624 231.255 86.8265 231.105 87.5752 231.105C88.8643 231.105 89.8018 231.43 90.3877 232.081C90.9801 232.732 91.2764 233.725 91.2764 235.06V242.101H88.9814V235.441C88.9814 234.614 88.8219 233.999 88.5029 233.595C88.1904 233.185 87.7021 232.98 87.0381 232.98C86.1462 232.98 85.4919 233.26 85.0752 233.82C84.665 234.373 84.46 235.226 84.46 236.378V242.101ZM96.7744 242.101H94.4795V231.3H96.7744V242.101ZM94.3428 228.439C94.3428 228.029 94.4535 227.713 94.6748 227.492C94.9027 227.27 95.2249 227.16 95.6416 227.16C96.0452 227.16 96.3577 227.27 96.5791 227.492C96.807 227.713 96.9209 228.029 96.9209 228.439C96.9209 228.829 96.807 229.139 96.5791 229.367C96.3577 229.588 96.0452 229.699 95.6416 229.699C95.2249 229.699 94.9027 229.588 94.6748 229.367C94.4535 229.139 94.3428 228.829 94.3428 228.439ZM109.567 242.101H107.263V235.46C107.263 234.627 107.093 234.005 106.755 233.595C106.423 233.185 105.892 232.98 105.163 232.98C104.193 232.98 103.483 233.266 103.034 233.839C102.585 234.412 102.36 235.372 102.36 236.72V242.101H100.065V231.3H101.862L102.185 232.716H102.302C102.627 232.202 103.09 231.805 103.688 231.525C104.287 231.245 104.951 231.105 105.681 231.105C108.272 231.105 109.567 232.423 109.567 235.06V242.101ZM116.403 242.296C115.056 242.296 114.004 241.808 113.249 240.831C112.494 239.855 112.116 238.484 112.116 236.72C112.116 234.949 112.497 233.572 113.259 232.589C114.027 231.6 115.088 231.105 116.442 231.105C117.862 231.105 118.942 231.629 119.685 232.677H119.802C119.691 231.902 119.636 231.29 119.636 230.841V226.906H121.94V242.101H120.144L119.743 240.685H119.636C118.9 241.759 117.823 242.296 116.403 242.296ZM117.019 240.441C117.963 240.441 118.649 240.177 119.079 239.65C119.509 239.116 119.73 238.253 119.743 237.062V236.74C119.743 235.379 119.522 234.412 119.079 233.839C118.636 233.266 117.943 232.98 116.999 232.98C116.192 232.98 115.57 233.309 115.134 233.966C114.698 234.617 114.479 235.548 114.479 236.759C114.479 237.957 114.691 238.872 115.114 239.503C115.537 240.128 116.172 240.441 117.019 240.441ZM129.938 242.296C128.259 242.296 126.944 241.808 125.993 240.831C125.049 239.848 124.577 238.497 124.577 236.779C124.577 235.014 125.017 233.628 125.896 232.619C126.774 231.609 127.982 231.105 129.519 231.105C130.944 231.105 132.071 231.538 132.897 232.404C133.724 233.27 134.138 234.461 134.138 235.978V237.218H126.94C126.973 238.266 127.256 239.074 127.79 239.64C128.324 240.2 129.076 240.48 130.046 240.48C130.684 240.48 131.276 240.421 131.823 240.304C132.377 240.18 132.969 239.979 133.601 239.699V241.564C133.041 241.831 132.474 242.02 131.901 242.13C131.328 242.241 130.674 242.296 129.938 242.296ZM129.519 232.843C128.789 232.843 128.203 233.074 127.761 233.536C127.325 233.999 127.064 234.673 126.979 235.558H131.882C131.869 234.666 131.654 233.992 131.237 233.536C130.821 233.074 130.248 232.843 129.519 232.843ZM142.224 231.105C142.686 231.105 143.067 231.137 143.366 231.203L143.142 233.341C142.816 233.263 142.478 233.224 142.126 233.224C141.208 233.224 140.463 233.523 139.89 234.122C139.323 234.721 139.04 235.499 139.04 236.456V242.101H136.745V231.3H138.542L138.845 233.204H138.962C139.32 232.56 139.785 232.049 140.358 231.671C140.938 231.294 141.56 231.105 142.224 231.105ZM152.634 239.025C152.634 240.079 152.25 240.89 151.481 241.456C150.713 242.016 149.613 242.296 148.181 242.296C146.742 242.296 145.586 242.078 144.714 241.642V239.66C145.983 240.245 147.165 240.538 148.259 240.538C149.672 240.538 150.378 240.112 150.378 239.259C150.378 238.986 150.3 238.758 150.144 238.576C149.987 238.393 149.73 238.204 149.372 238.009C149.014 237.814 148.516 237.592 147.878 237.345C146.634 236.863 145.791 236.382 145.349 235.9C144.912 235.418 144.694 234.793 144.694 234.025C144.694 233.1 145.065 232.384 145.808 231.876C146.556 231.362 147.572 231.105 148.854 231.105C150.124 231.105 151.325 231.362 152.458 231.876L151.716 233.605C150.55 233.123 149.571 232.882 148.776 232.882C147.565 232.882 146.96 233.227 146.96 233.917C146.96 234.256 147.116 234.542 147.429 234.777C147.748 235.011 148.438 235.333 149.499 235.744C150.391 236.089 151.039 236.404 151.442 236.691C151.846 236.977 152.146 237.309 152.341 237.687C152.536 238.058 152.634 238.504 152.634 239.025ZM164.597 234.337L167.976 227.824H170.515L165.759 236.564V242.101H163.415V236.642L158.679 227.824H161.218L164.597 234.337ZM176.872 242.296C175.192 242.296 173.877 241.808 172.927 240.831C171.983 239.848 171.511 238.497 171.511 236.779C171.511 235.014 171.95 233.628 172.829 232.619C173.708 231.609 174.916 231.105 176.452 231.105C177.878 231.105 179.004 231.538 179.831 232.404C180.658 233.27 181.071 234.461 181.071 235.978V237.218H173.874C173.907 238.266 174.19 239.074 174.724 239.64C175.257 240.2 176.009 240.48 176.979 240.48C177.618 240.48 178.21 240.421 178.757 240.304C179.31 240.18 179.903 239.979 180.534 239.699V241.564C179.974 241.831 179.408 242.02 178.835 242.13C178.262 242.241 177.608 242.296 176.872 242.296ZM176.452 232.843C175.723 232.843 175.137 233.074 174.694 233.536C174.258 233.999 173.998 234.673 173.913 235.558H178.815C178.802 234.666 178.588 233.992 178.171 233.536C177.754 233.074 177.181 232.843 176.452 232.843ZM187.702 240.441C188.262 240.441 188.822 240.353 189.382 240.177V241.906C189.128 242.016 188.799 242.107 188.396 242.179C187.998 242.257 187.585 242.296 187.155 242.296C184.981 242.296 183.894 241.15 183.894 238.859V233.038H182.419V232.023L184.001 231.183L184.782 228.898H186.198V231.3H189.274V233.038H186.198V238.82C186.198 239.373 186.335 239.783 186.608 240.05C186.888 240.311 187.253 240.441 187.702 240.441Z"
    fill="black"
  />
</svg>
