<svg
  width="335"
  height="275"
  viewBox="0 0 335 275"
  fill="none"
  xmlns="http://www.w3.org/2000/svg"
>
<path
    d="M98.3595 228.111C97.9515 227.427 97.4955 226.695 96.9915 225.915C96.4875 225.123 95.9655 224.331 95.4255 223.539C94.8855 222.735 94.3335 221.961 93.7695 221.217C93.2175 220.461 92.6895 219.783 92.1855 219.183V228.111H89.9535V215.637H91.8075C92.2875 216.141 92.8035 216.741 93.3555 217.437C93.9075 218.121 94.4595 218.835 95.0115 219.579C95.5755 220.323 96.1155 221.073 96.6315 221.829C97.1595 222.573 97.6275 223.269 98.0355 223.917V215.637H100.285V228.111H98.3595ZM111.684 223.395C111.684 224.139 111.576 224.817 111.36 225.429C111.144 226.041 110.838 226.563 110.442 226.995C110.046 227.427 109.566 227.763 109.002 228.003C108.45 228.243 107.838 228.363 107.166 228.363C106.494 228.363 105.882 228.243 105.33 228.003C104.778 227.763 104.304 227.427 103.908 226.995C103.512 226.563 103.2 226.041 102.972 225.429C102.756 224.817 102.648 224.139 102.648 223.395C102.648 222.651 102.756 221.979 102.972 221.379C103.2 220.767 103.512 220.245 103.908 219.813C104.316 219.381 104.796 219.051 105.348 218.823C105.9 218.583 106.506 218.463 107.166 218.463C107.826 218.463 108.432 218.583 108.984 218.823C109.548 219.051 110.028 219.381 110.424 219.813C110.82 220.245 111.126 220.767 111.342 221.379C111.57 221.979 111.684 222.651 111.684 223.395ZM109.452 223.395C109.452 222.459 109.248 221.721 108.84 221.181C108.444 220.629 107.886 220.353 107.166 220.353C106.446 220.353 105.882 220.629 105.474 221.181C105.078 221.721 104.88 222.459 104.88 223.395C104.88 224.343 105.078 225.093 105.474 225.645C105.882 226.197 106.446 226.473 107.166 226.473C107.886 226.473 108.444 226.197 108.84 225.645C109.248 225.093 109.452 224.343 109.452 223.395ZM121.675 215.511C123.475 215.511 124.849 215.841 125.797 216.501C126.757 217.161 127.237 218.169 127.237 219.525C127.237 221.217 126.403 222.363 124.735 222.963C124.963 223.239 125.221 223.575 125.509 223.971C125.797 224.367 126.091 224.799 126.391 225.267C126.691 225.723 126.979 226.197 127.255 226.689C127.531 227.169 127.777 227.643 127.993 228.111H125.455C125.227 227.679 124.981 227.247 124.717 226.815C124.453 226.371 124.183 225.945 123.907 225.537C123.643 225.117 123.379 224.727 123.115 224.367C122.851 223.995 122.605 223.665 122.377 223.377C122.209 223.389 122.065 223.395 121.945 223.395C121.825 223.395 121.711 223.395 121.603 223.395H120.505V228.111H118.237V215.817C118.789 215.697 119.377 215.619 120.001 215.583C120.625 215.535 121.183 215.511 121.675 215.511ZM121.837 217.473C121.357 217.473 120.913 217.491 120.505 217.527V221.559H121.495C122.047 221.559 122.533 221.529 122.953 221.469C123.373 221.409 123.721 221.301 123.997 221.145C124.285 220.989 124.501 220.779 124.645 220.515C124.789 220.251 124.861 219.915 124.861 219.507C124.861 219.123 124.789 218.799 124.645 218.535C124.501 218.271 124.291 218.061 124.015 217.905C123.751 217.749 123.433 217.641 123.061 217.581C122.689 217.509 122.281 217.473 121.837 217.473ZM129.12 223.449C129.12 222.621 129.24 221.895 129.48 221.271C129.732 220.647 130.062 220.131 130.47 219.723C130.878 219.303 131.346 218.991 131.874 218.787C132.402 218.571 132.942 218.463 133.494 218.463C134.79 218.463 135.798 218.865 136.518 219.669C137.25 220.473 137.616 221.673 137.616 223.269C137.616 223.389 137.61 223.527 137.598 223.683C137.598 223.827 137.592 223.959 137.58 224.079H131.37C131.43 224.835 131.694 225.423 132.162 225.843C132.642 226.251 133.332 226.455 134.232 226.455C134.76 226.455 135.24 226.407 135.672 226.311C136.116 226.215 136.464 226.113 136.716 226.005L137.004 227.787C136.884 227.847 136.716 227.913 136.5 227.985C136.296 228.045 136.056 228.099 135.78 228.147C135.516 228.207 135.228 228.255 134.916 228.291C134.604 228.327 134.286 228.345 133.962 228.345C133.134 228.345 132.414 228.225 131.802 227.985C131.19 227.733 130.686 227.391 130.29 226.959C129.894 226.515 129.6 225.999 129.408 225.411C129.216 224.811 129.12 224.157 129.12 223.449ZM135.438 222.477C135.438 222.177 135.396 221.895 135.312 221.631C135.228 221.355 135.102 221.121 134.934 220.929C134.778 220.725 134.58 220.569 134.34 220.461C134.112 220.341 133.836 220.281 133.512 220.281C133.176 220.281 132.882 220.347 132.63 220.479C132.378 220.599 132.162 220.761 131.982 220.965C131.814 221.169 131.682 221.403 131.586 221.667C131.49 221.931 131.424 222.201 131.388 222.477H135.438ZM145.29 223.161C145.29 222.177 145.164 221.469 144.912 221.037C144.672 220.593 144.216 220.371 143.544 220.371C143.304 220.371 143.04 220.389 142.752 220.425C142.464 220.461 142.248 220.491 142.104 220.515V228.111H139.926V219.003C140.346 218.883 140.892 218.769 141.564 218.661C142.248 218.553 142.968 218.499 143.724 218.499C144.372 218.499 144.9 218.583 145.308 218.751C145.728 218.919 146.076 219.141 146.352 219.417C146.484 219.321 146.652 219.219 146.856 219.111C147.06 219.003 147.288 218.907 147.54 218.823C147.792 218.727 148.056 218.649 148.332 218.589C148.62 218.529 148.908 218.499 149.196 218.499C149.928 218.499 150.528 218.607 150.996 218.823C151.476 219.027 151.848 219.321 152.112 219.705C152.388 220.077 152.574 220.533 152.67 221.073C152.778 221.601 152.832 222.183 152.832 222.819V228.111H150.654V223.161C150.654 222.177 150.534 221.469 150.294 221.037C150.054 220.593 149.592 220.371 148.908 220.371C148.56 220.371 148.23 220.431 147.918 220.551C147.606 220.659 147.372 220.767 147.216 220.875C147.312 221.175 147.378 221.493 147.414 221.829C147.45 222.165 147.468 222.525 147.468 222.909V228.111H145.29V223.161ZM157.696 228.111H155.518V218.697H157.696V228.111ZM157.93 215.943C157.93 216.351 157.798 216.675 157.534 216.915C157.27 217.155 156.958 217.275 156.598 217.275C156.226 217.275 155.908 217.155 155.644 216.915C155.38 216.675 155.248 216.351 155.248 215.943C155.248 215.523 155.38 215.193 155.644 214.953C155.908 214.713 156.226 214.593 156.598 214.593C156.958 214.593 157.27 214.713 157.534 214.953C157.798 215.193 157.93 215.523 157.93 215.943ZM160.474 219.003C160.894 218.883 161.44 218.769 162.112 218.661C162.784 218.553 163.528 218.499 164.344 218.499C165.112 218.499 165.754 218.607 166.27 218.823C166.786 219.027 167.194 219.321 167.494 219.705C167.806 220.077 168.022 220.533 168.142 221.073C168.274 221.601 168.34 222.183 168.34 222.819V228.111H166.162V223.161C166.162 222.657 166.126 222.231 166.054 221.883C165.994 221.523 165.886 221.235 165.73 221.019C165.586 220.791 165.382 220.629 165.118 220.533C164.866 220.425 164.554 220.371 164.182 220.371C163.906 220.371 163.618 220.389 163.318 220.425C163.018 220.461 162.796 220.491 162.652 220.515V228.111H160.474V219.003ZM172.714 223.377C172.714 224.337 172.942 225.093 173.398 225.645C173.854 226.185 174.484 226.455 175.288 226.455C175.636 226.455 175.93 226.443 176.17 226.419C176.422 226.383 176.626 226.347 176.782 226.311V220.911C176.59 220.779 176.332 220.659 176.008 220.551C175.696 220.431 175.36 220.371 175 220.371C174.208 220.371 173.626 220.641 173.254 221.181C172.894 221.721 172.714 222.453 172.714 223.377ZM178.96 227.823C178.528 227.955 177.982 228.075 177.322 228.183C176.674 228.291 175.99 228.345 175.27 228.345C174.526 228.345 173.86 228.231 173.272 228.003C172.684 227.775 172.18 227.451 171.76 227.031C171.352 226.599 171.034 226.083 170.806 225.483C170.59 224.871 170.482 224.187 170.482 223.431C170.482 222.687 170.572 222.015 170.752 221.415C170.944 220.803 171.22 220.281 171.58 219.849C171.94 219.417 172.378 219.087 172.894 218.859C173.41 218.619 174.004 218.499 174.676 218.499C175.132 218.499 175.534 218.553 175.882 218.661C176.23 218.769 176.53 218.889 176.782 219.021V214.503L178.96 214.143V227.823ZM181.204 223.449C181.204 222.621 181.324 221.895 181.564 221.271C181.816 220.647 182.146 220.131 182.554 219.723C182.962 219.303 183.43 218.991 183.958 218.787C184.486 218.571 185.026 218.463 185.578 218.463C186.874 218.463 187.882 218.865 188.602 219.669C189.334 220.473 189.7 221.673 189.7 223.269C189.7 223.389 189.694 223.527 189.682 223.683C189.682 223.827 189.676 223.959 189.664 224.079H183.454C183.514 224.835 183.778 225.423 184.246 225.843C184.726 226.251 185.416 226.455 186.316 226.455C186.844 226.455 187.324 226.407 187.756 226.311C188.2 226.215 188.548 226.113 188.8 226.005L189.088 227.787C188.968 227.847 188.8 227.913 188.584 227.985C188.38 228.045 188.14 228.099 187.864 228.147C187.6 228.207 187.312 228.255 187 228.291C186.688 228.327 186.37 228.345 186.046 228.345C185.218 228.345 184.498 228.225 183.886 227.985C183.274 227.733 182.77 227.391 182.374 226.959C181.978 226.515 181.684 225.999 181.492 225.411C181.3 224.811 181.204 224.157 181.204 223.449ZM187.522 222.477C187.522 222.177 187.48 221.895 187.396 221.631C187.312 221.355 187.186 221.121 187.018 220.929C186.862 220.725 186.664 220.569 186.424 220.461C186.196 220.341 185.92 220.281 185.596 220.281C185.26 220.281 184.966 220.347 184.714 220.479C184.462 220.599 184.246 220.761 184.066 220.965C183.898 221.169 183.766 221.403 183.67 221.667C183.574 221.931 183.508 222.201 183.472 222.477H187.522ZM197.374 220.659C197.194 220.599 196.942 220.539 196.618 220.479C196.306 220.407 195.94 220.371 195.52 220.371C195.28 220.371 195.022 220.395 194.746 220.443C194.482 220.491 194.296 220.533 194.188 220.569V228.111H192.01V219.147C192.43 218.991 192.952 218.847 193.576 218.715C194.212 218.571 194.914 218.499 195.682 218.499C195.826 218.499 195.994 218.511 196.186 218.535C196.378 218.547 196.57 218.571 196.762 218.607C196.954 218.631 197.14 218.667 197.32 218.715C197.5 218.751 197.644 218.787 197.752 218.823L197.374 220.659ZM201.627 226.545C202.203 226.545 202.623 226.479 202.887 226.347C203.151 226.203 203.283 225.963 203.283 225.627C203.283 225.315 203.139 225.057 202.851 224.853C202.575 224.649 202.113 224.427 201.465 224.187C201.069 224.043 200.703 223.893 200.367 223.737C200.043 223.569 199.761 223.377 199.521 223.161C199.281 222.945 199.089 222.687 198.945 222.387C198.813 222.075 198.747 221.697 198.747 221.253C198.747 220.389 199.065 219.711 199.701 219.219C200.337 218.715 201.201 218.463 202.293 218.463C202.845 218.463 203.373 218.517 203.877 218.625C204.381 218.721 204.759 218.817 205.011 218.913L204.615 220.677C204.375 220.569 204.069 220.473 203.697 220.389C203.325 220.293 202.893 220.245 202.401 220.245C201.957 220.245 201.597 220.323 201.321 220.479C201.045 220.623 200.907 220.851 200.907 221.163C200.907 221.319 200.931 221.457 200.979 221.577C201.039 221.697 201.135 221.811 201.267 221.919C201.399 222.015 201.573 222.117 201.789 222.225C202.005 222.321 202.269 222.423 202.581 222.531C203.097 222.723 203.535 222.915 203.895 223.107C204.255 223.287 204.549 223.497 204.777 223.737C205.017 223.965 205.191 224.229 205.299 224.529C205.407 224.829 205.461 225.189 205.461 225.609C205.461 226.509 205.125 227.193 204.453 227.661C203.793 228.117 202.845 228.345 201.609 228.345C200.781 228.345 200.115 228.273 199.611 228.129C199.107 227.997 198.753 227.889 198.549 227.805L198.927 225.987C199.251 226.119 199.635 226.245 200.079 226.365C200.535 226.485 201.051 226.545 201.627 226.545Z"
    fill="#34343F"
  />
<path
    d="M163 180.056C212.475 180.056 252.583 139.948 252.583 90.4722C252.583 40.9967 212.475 0.888885 163 0.888885C113.524 0.888885 73.4166 40.9967 73.4166 90.4722C73.4166 139.948 113.524 180.056 163 180.056Z"
    fill="url(#paint0_linear_1:746)"
  />
<path
    d="M216.75 180.056H109.25V64.1944C114.317 64.1887 119.175 62.1735 122.757 58.5907C126.34 55.0079 128.355 50.1501 128.361 45.0833H197.639C197.634 47.5933 198.126 50.0794 199.088 52.3978C200.05 54.7162 201.462 56.8209 203.242 58.5901C205.011 60.3711 207.116 61.7836 209.435 62.7455C211.753 63.7075 214.24 64.2 216.75 64.1944V180.056Z"
    fill="white"
  />
<path
    d="M163 122.722C178.832 122.722 191.667 109.888 191.667 94.0556C191.667 78.2234 178.832 65.3889 163 65.3889C147.168 65.3889 134.333 78.2234 134.333 94.0556C134.333 109.888 147.168 122.722 163 122.722Z"
    fill="#4285F4"
  />
<path
    d="M173.135 107.569L163 97.4341L152.865 107.569L149.486 104.191L159.622 94.0557L149.486 83.9205L152.865 80.5421L163 90.6773L173.135 80.5421L176.514 83.9205L166.378 94.0557L176.514 104.191L173.135 107.569Z"
    fill="white"
  />
<path
    d="M178.528 129.889H147.472C145.493 129.889 143.889 131.493 143.889 133.472C143.889 135.451 145.493 137.056 147.472 137.056H178.528C180.507 137.056 182.111 135.451 182.111 133.472C182.111 131.493 180.507 129.889 178.528 129.889Z"
    fill="#DFEAFB"
  />
<path
    d="M189.278 144.222H136.722C134.743 144.222 133.139 145.827 133.139 147.806C133.139 149.785 134.743 151.389 136.722 151.389H189.278C191.257 151.389 192.861 149.785 192.861 147.806C192.861 145.827 191.257 144.222 189.278 144.222Z"
    fill="#DFEAFB"
  />
<path
    d="M71.6511 249.194V245.302C71.0071 244.304 70.4005 243.319 69.8311 242.348C69.2618 241.378 68.7251 240.426 68.2211 239.492H69.8171C70.1718 240.258 70.5685 241.037 71.0071 241.83C71.4458 242.614 71.8985 243.37 72.3651 244.098C72.8225 243.37 73.2705 242.614 73.7091 241.83C74.1478 241.037 74.5491 240.258 74.9131 239.492H76.4251C75.9211 240.426 75.3845 241.378 74.8151 242.348C74.2458 243.31 73.6438 244.285 73.0091 245.274V249.194H71.6511ZM83.3667 245.554C83.3667 246.133 83.2827 246.656 83.1147 247.122C82.9467 247.589 82.7087 247.99 82.4007 248.326C82.1021 248.662 81.7427 248.924 81.3227 249.11C80.9027 249.288 80.4454 249.376 79.9507 249.376C79.4561 249.376 78.9987 249.288 78.5787 249.11C78.1587 248.924 77.7947 248.662 77.4867 248.326C77.1881 247.99 76.9547 247.589 76.7867 247.122C76.6187 246.656 76.5347 246.133 76.5347 245.554C76.5347 244.985 76.6187 244.467 76.7867 244C76.9547 243.524 77.1881 243.118 77.4867 242.782C77.7947 242.446 78.1587 242.19 78.5787 242.012C78.9987 241.826 79.4561 241.732 79.9507 241.732C80.4454 241.732 80.9027 241.826 81.3227 242.012C81.7427 242.19 82.1021 242.446 82.4007 242.782C82.7087 243.118 82.9467 243.524 83.1147 244C83.2827 244.467 83.3667 244.985 83.3667 245.554ZM82.0087 245.554C82.0087 244.733 81.8221 244.084 81.4487 243.608C81.0847 243.123 80.5854 242.88 79.9507 242.88C79.3161 242.88 78.8121 243.123 78.4387 243.608C78.0747 244.084 77.8927 244.733 77.8927 245.554C77.8927 246.376 78.0747 247.029 78.4387 247.514C78.8121 247.99 79.3161 248.228 79.9507 248.228C80.5854 248.228 81.0847 247.99 81.4487 247.514C81.8221 247.029 82.0087 246.376 82.0087 245.554ZM90.9946 248.984C90.6959 249.059 90.2992 249.138 89.8046 249.222C89.3192 249.306 88.7546 249.348 88.1106 249.348C87.5506 249.348 87.0792 249.269 86.6966 249.11C86.3139 248.942 86.0059 248.709 85.7726 248.41C85.5392 248.112 85.3712 247.762 85.2686 247.36C85.1659 246.95 85.1146 246.497 85.1146 246.002V241.914H86.4166V245.722C86.4166 246.609 86.5566 247.244 86.8366 247.626C87.1166 248.009 87.5879 248.2 88.2506 248.2C88.3906 248.2 88.5352 248.196 88.6846 248.186C88.8339 248.177 88.9739 248.168 89.1046 248.158C89.2352 248.14 89.3519 248.126 89.4546 248.116C89.5666 248.098 89.6459 248.079 89.6926 248.06V241.914H90.9946V248.984ZM99.6418 249.362C99.0538 249.362 98.5358 249.269 98.0878 249.082C97.6492 248.896 97.2758 248.634 96.9678 248.298C96.6692 247.962 96.4452 247.566 96.2958 247.108C96.1465 246.642 96.0718 246.128 96.0718 245.568C96.0718 245.008 96.1512 244.495 96.3098 244.028C96.4778 243.562 96.7112 243.16 97.0098 242.824C97.3085 242.479 97.6725 242.213 98.1018 242.026C98.5405 241.83 99.0258 241.732 99.5578 241.732C99.8845 241.732 100.211 241.76 100.538 241.816C100.865 241.872 101.177 241.961 101.476 242.082L101.182 243.188C100.986 243.095 100.757 243.02 100.496 242.964C100.244 242.908 99.9732 242.88 99.6838 242.88C98.9558 242.88 98.3958 243.109 98.0038 243.566C97.6212 244.024 97.4298 244.691 97.4298 245.568C97.4298 245.96 97.4718 246.32 97.5558 246.646C97.6492 246.973 97.7892 247.253 97.9758 247.486C98.1718 247.72 98.4192 247.902 98.7178 248.032C99.0165 248.154 99.3805 248.214 99.8098 248.214C100.155 248.214 100.468 248.182 100.748 248.116C101.028 248.051 101.247 247.981 101.406 247.906L101.588 248.998C101.513 249.045 101.406 249.092 101.266 249.138C101.126 249.176 100.967 249.208 100.79 249.236C100.613 249.274 100.421 249.302 100.216 249.32C100.02 249.348 99.8285 249.362 99.6418 249.362ZM105.45 248.256C105.758 248.256 106.028 248.252 106.262 248.242C106.504 248.224 106.705 248.196 106.864 248.158V245.988C106.77 245.942 106.616 245.904 106.402 245.876C106.196 245.839 105.944 245.82 105.646 245.82C105.45 245.82 105.24 245.834 105.016 245.862C104.801 245.89 104.6 245.951 104.414 246.044C104.236 246.128 104.087 246.25 103.966 246.408C103.844 246.558 103.784 246.758 103.784 247.01C103.784 247.477 103.933 247.804 104.232 247.99C104.53 248.168 104.936 248.256 105.45 248.256ZM105.338 241.732C105.86 241.732 106.299 241.802 106.654 241.942C107.018 242.073 107.307 242.264 107.522 242.516C107.746 242.759 107.904 243.053 107.998 243.398C108.091 243.734 108.138 244.108 108.138 244.518V249.068C108.026 249.087 107.867 249.115 107.662 249.152C107.466 249.18 107.242 249.208 106.99 249.236C106.738 249.264 106.462 249.288 106.164 249.306C105.874 249.334 105.585 249.348 105.296 249.348C104.885 249.348 104.507 249.306 104.162 249.222C103.816 249.138 103.518 249.008 103.266 248.83C103.014 248.644 102.818 248.401 102.678 248.102C102.538 247.804 102.468 247.444 102.468 247.024C102.468 246.623 102.547 246.278 102.706 245.988C102.874 245.699 103.098 245.466 103.378 245.288C103.658 245.111 103.984 244.98 104.358 244.896C104.731 244.812 105.123 244.77 105.534 244.77C105.664 244.77 105.8 244.78 105.94 244.798C106.08 244.808 106.21 244.826 106.332 244.854C106.462 244.873 106.574 244.892 106.668 244.91C106.761 244.929 106.826 244.943 106.864 244.952V244.588C106.864 244.374 106.84 244.164 106.794 243.958C106.747 243.744 106.663 243.557 106.542 243.398C106.42 243.23 106.252 243.1 106.038 243.006C105.832 242.904 105.562 242.852 105.226 242.852C104.796 242.852 104.418 242.885 104.092 242.95C103.774 243.006 103.536 243.067 103.378 243.132L103.224 242.054C103.392 241.98 103.672 241.91 104.064 241.844C104.456 241.77 104.88 241.732 105.338 241.732ZM110.3 242.124C110.599 242.05 110.995 241.97 111.49 241.886C111.985 241.802 112.554 241.76 113.198 241.76C113.777 241.76 114.257 241.844 114.64 242.012C115.023 242.171 115.326 242.4 115.55 242.698C115.783 242.988 115.947 243.338 116.04 243.748C116.133 244.159 116.18 244.612 116.18 245.106V249.194H114.878V245.386C114.878 244.938 114.845 244.556 114.78 244.238C114.724 243.921 114.626 243.664 114.486 243.468C114.346 243.272 114.159 243.132 113.926 243.048C113.693 242.955 113.403 242.908 113.058 242.908C112.918 242.908 112.773 242.913 112.624 242.922C112.475 242.932 112.33 242.946 112.19 242.964C112.059 242.974 111.938 242.988 111.826 243.006C111.723 243.025 111.649 243.039 111.602 243.048V249.194H110.3V242.124ZM124.043 248.256C124.351 248.256 124.622 248.252 124.855 248.242C125.098 248.224 125.299 248.196 125.457 248.158V245.988C125.364 245.942 125.21 245.904 124.995 245.876C124.79 245.839 124.538 245.82 124.239 245.82C124.043 245.82 123.833 245.834 123.609 245.862C123.395 245.89 123.194 245.951 123.007 246.044C122.83 246.128 122.681 246.25 122.559 246.408C122.438 246.558 122.377 246.758 122.377 247.01C122.377 247.477 122.527 247.804 122.825 247.99C123.124 248.168 123.53 248.256 124.043 248.256ZM123.931 241.732C124.454 241.732 124.893 241.802 125.247 241.942C125.611 242.073 125.901 242.264 126.115 242.516C126.339 242.759 126.498 243.053 126.591 243.398C126.685 243.734 126.731 244.108 126.731 244.518V249.068C126.619 249.087 126.461 249.115 126.255 249.152C126.059 249.18 125.835 249.208 125.583 249.236C125.331 249.264 125.056 249.288 124.757 249.306C124.468 249.334 124.179 249.348 123.889 249.348C123.479 249.348 123.101 249.306 122.755 249.222C122.41 249.138 122.111 249.008 121.859 248.83C121.607 248.644 121.411 248.401 121.271 248.102C121.131 247.804 121.061 247.444 121.061 247.024C121.061 246.623 121.141 246.278 121.299 245.988C121.467 245.699 121.691 245.466 121.971 245.288C122.251 245.111 122.578 244.98 122.951 244.896C123.325 244.812 123.717 244.77 124.127 244.77C124.258 244.77 124.393 244.78 124.533 244.798C124.673 244.808 124.804 244.826 124.925 244.854C125.056 244.873 125.168 244.892 125.261 244.91C125.355 244.929 125.42 244.943 125.457 244.952V244.588C125.457 244.374 125.434 244.164 125.387 243.958C125.341 243.744 125.257 243.557 125.135 243.398C125.014 243.23 124.846 243.1 124.631 243.006C124.426 242.904 124.155 242.852 123.819 242.852C123.39 242.852 123.012 242.885 122.685 242.95C122.368 243.006 122.13 243.067 121.971 243.132L121.817 242.054C121.985 241.98 122.265 241.91 122.657 241.844C123.049 241.77 123.474 241.732 123.931 241.732ZM133.598 243.454C133.439 243.324 133.211 243.198 132.912 243.076C132.613 242.955 132.287 242.894 131.932 242.894C131.559 242.894 131.237 242.964 130.966 243.104C130.705 243.235 130.49 243.422 130.322 243.664C130.154 243.898 130.033 244.178 129.958 244.504C129.883 244.831 129.846 245.181 129.846 245.554C129.846 246.404 130.056 247.062 130.476 247.528C130.896 247.986 131.456 248.214 132.156 248.214C132.511 248.214 132.805 248.2 133.038 248.172C133.281 248.135 133.467 248.098 133.598 248.06V243.454ZM133.598 238.554L134.9 238.33V248.984C134.601 249.068 134.219 249.152 133.752 249.236C133.285 249.32 132.749 249.362 132.142 249.362C131.582 249.362 131.078 249.274 130.63 249.096C130.182 248.919 129.799 248.667 129.482 248.34C129.165 248.014 128.917 247.617 128.74 247.15C128.572 246.674 128.488 246.142 128.488 245.554C128.488 244.994 128.558 244.481 128.698 244.014C128.847 243.548 129.062 243.146 129.342 242.81C129.622 242.474 129.963 242.213 130.364 242.026C130.775 241.84 131.241 241.746 131.764 241.746C132.184 241.746 132.553 241.802 132.87 241.914C133.197 242.026 133.439 242.134 133.598 242.236V238.554ZM141.842 243.454C141.683 243.324 141.455 243.198 141.156 243.076C140.857 242.955 140.531 242.894 140.176 242.894C139.803 242.894 139.481 242.964 139.21 243.104C138.949 243.235 138.734 243.422 138.566 243.664C138.398 243.898 138.277 244.178 138.202 244.504C138.127 244.831 138.09 245.181 138.09 245.554C138.09 246.404 138.3 247.062 138.72 247.528C139.14 247.986 139.7 248.214 140.4 248.214C140.755 248.214 141.049 248.2 141.282 248.172C141.525 248.135 141.711 248.098 141.842 248.06V243.454ZM141.842 238.554L143.144 238.33V248.984C142.845 249.068 142.463 249.152 141.996 249.236C141.529 249.32 140.993 249.362 140.386 249.362C139.826 249.362 139.322 249.274 138.874 249.096C138.426 248.919 138.043 248.667 137.726 248.34C137.409 248.014 137.161 247.617 136.984 247.15C136.816 246.674 136.732 246.142 136.732 245.554C136.732 244.994 136.802 244.481 136.942 244.014C137.091 243.548 137.306 243.146 137.586 242.81C137.866 242.474 138.207 242.213 138.608 242.026C139.019 241.84 139.485 241.746 140.008 241.746C140.428 241.746 140.797 241.802 141.114 241.914C141.441 242.026 141.683 242.134 141.842 242.236V238.554ZM151.31 241.76C151.422 241.76 151.548 241.77 151.688 241.788C151.838 241.798 151.982 241.816 152.122 241.844C152.262 241.863 152.388 241.886 152.5 241.914C152.622 241.933 152.71 241.952 152.766 241.97L152.542 243.104C152.44 243.067 152.267 243.025 152.024 242.978C151.791 242.922 151.488 242.894 151.114 242.894C150.872 242.894 150.629 242.922 150.386 242.978C150.153 243.025 149.999 243.058 149.924 243.076V249.194H148.622V242.222C148.93 242.11 149.313 242.008 149.77 241.914C150.228 241.812 150.741 241.76 151.31 241.76ZM153.617 245.568C153.617 244.924 153.71 244.364 153.897 243.888C154.083 243.403 154.331 243.002 154.639 242.684C154.947 242.367 155.301 242.129 155.703 241.97C156.104 241.812 156.515 241.732 156.935 241.732C157.915 241.732 158.666 242.04 159.189 242.656C159.711 243.263 159.973 244.192 159.973 245.442C159.973 245.498 159.973 245.573 159.973 245.666C159.973 245.75 159.968 245.83 159.959 245.904H154.975C155.031 246.66 155.25 247.234 155.633 247.626C156.015 248.018 156.613 248.214 157.425 248.214C157.882 248.214 158.265 248.177 158.573 248.102C158.89 248.018 159.128 247.939 159.287 247.864L159.469 248.956C159.31 249.04 159.03 249.129 158.629 249.222C158.237 249.316 157.789 249.362 157.285 249.362C156.65 249.362 156.099 249.269 155.633 249.082C155.175 248.886 154.797 248.62 154.499 248.284C154.2 247.948 153.976 247.552 153.827 247.094C153.687 246.628 153.617 246.119 153.617 245.568ZM158.615 244.854C158.624 244.266 158.475 243.786 158.167 243.412C157.868 243.03 157.453 242.838 156.921 242.838C156.622 242.838 156.356 242.899 156.123 243.02C155.899 243.132 155.707 243.282 155.549 243.468C155.39 243.655 155.264 243.87 155.171 244.112C155.087 244.355 155.031 244.602 155.003 244.854H158.615ZM161.843 242.124C162.142 242.05 162.534 241.97 163.019 241.886C163.514 241.802 164.083 241.76 164.727 241.76C165.194 241.76 165.586 241.826 165.903 241.956C166.22 242.078 166.486 242.26 166.701 242.502C166.766 242.456 166.869 242.39 167.009 242.306C167.149 242.222 167.322 242.143 167.527 242.068C167.732 241.984 167.961 241.914 168.213 241.858C168.465 241.793 168.736 241.76 169.025 241.76C169.585 241.76 170.042 241.844 170.397 242.012C170.752 242.171 171.027 242.4 171.223 242.698C171.428 242.997 171.564 243.352 171.629 243.762C171.704 244.173 171.741 244.621 171.741 245.106V249.194H170.439V245.386C170.439 244.957 170.416 244.588 170.369 244.28C170.332 243.972 170.252 243.716 170.131 243.51C170.019 243.305 169.86 243.156 169.655 243.062C169.459 242.96 169.202 242.908 168.885 242.908C168.446 242.908 168.082 242.969 167.793 243.09C167.513 243.202 167.322 243.305 167.219 243.398C167.294 243.641 167.35 243.907 167.387 244.196C167.424 244.486 167.443 244.789 167.443 245.106V249.194H166.141V245.386C166.141 244.957 166.118 244.588 166.071 244.28C166.024 243.972 165.94 243.716 165.819 243.51C165.707 243.305 165.548 243.156 165.343 243.062C165.147 242.96 164.895 242.908 164.587 242.908C164.456 242.908 164.316 242.913 164.167 242.922C164.018 242.932 163.873 242.946 163.733 242.964C163.602 242.974 163.481 242.988 163.369 243.006C163.257 243.025 163.182 243.039 163.145 243.048V249.194H161.843V242.124ZM175.204 249.194H173.902V241.914H175.204V249.194ZM174.546 240.598C174.312 240.598 174.112 240.524 173.944 240.374C173.785 240.216 173.706 240.006 173.706 239.744C173.706 239.483 173.785 239.278 173.944 239.128C174.112 238.97 174.312 238.89 174.546 238.89C174.779 238.89 174.975 238.97 175.134 239.128C175.302 239.278 175.386 239.483 175.386 239.744C175.386 240.006 175.302 240.216 175.134 240.374C174.975 240.524 174.779 240.598 174.546 240.598ZM177.443 242.124C177.741 242.05 178.138 241.97 178.633 241.886C179.127 241.802 179.697 241.76 180.341 241.76C180.919 241.76 181.4 241.844 181.783 242.012C182.165 242.171 182.469 242.4 182.693 242.698C182.926 242.988 183.089 243.338 183.183 243.748C183.276 244.159 183.323 244.612 183.323 245.106V249.194H182.021V245.386C182.021 244.938 181.988 244.556 181.923 244.238C181.867 243.921 181.769 243.664 181.629 243.468C181.489 243.272 181.302 243.132 181.069 243.048C180.835 242.955 180.546 242.908 180.201 242.908C180.061 242.908 179.916 242.913 179.767 242.922C179.617 242.932 179.473 242.946 179.333 242.964C179.202 242.974 179.081 242.988 178.969 243.006C178.866 243.025 178.791 243.039 178.745 243.048V249.194H177.443V242.124ZM190.186 243.454C190.027 243.324 189.798 243.198 189.5 243.076C189.201 242.955 188.874 242.894 188.52 242.894C188.146 242.894 187.824 242.964 187.554 243.104C187.292 243.235 187.078 243.422 186.91 243.664C186.742 243.898 186.62 244.178 186.546 244.504C186.471 244.831 186.434 245.181 186.434 245.554C186.434 246.404 186.644 247.062 187.064 247.528C187.484 247.986 188.044 248.214 188.744 248.214C189.098 248.214 189.392 248.2 189.626 248.172C189.868 248.135 190.055 248.098 190.186 248.06V243.454ZM190.186 238.554L191.488 238.33V248.984C191.189 249.068 190.806 249.152 190.34 249.236C189.873 249.32 189.336 249.362 188.73 249.362C188.17 249.362 187.666 249.274 187.218 249.096C186.77 248.919 186.387 248.667 186.07 248.34C185.752 248.014 185.505 247.617 185.328 247.15C185.16 246.674 185.076 246.142 185.076 245.554C185.076 244.994 185.146 244.481 185.286 244.014C185.435 243.548 185.65 243.146 185.93 242.81C186.21 242.474 186.55 242.213 186.952 242.026C187.362 241.84 187.829 241.746 188.352 241.746C188.772 241.746 189.14 241.802 189.458 241.914C189.784 242.026 190.027 242.134 190.186 242.236V238.554ZM193.32 245.568C193.32 244.924 193.413 244.364 193.6 243.888C193.787 243.403 194.034 243.002 194.342 242.684C194.65 242.367 195.005 242.129 195.406 241.97C195.807 241.812 196.218 241.732 196.638 241.732C197.618 241.732 198.369 242.04 198.892 242.656C199.415 243.263 199.676 244.192 199.676 245.442C199.676 245.498 199.676 245.573 199.676 245.666C199.676 245.75 199.671 245.83 199.662 245.904H194.678C194.734 246.66 194.953 247.234 195.336 247.626C195.719 248.018 196.316 248.214 197.128 248.214C197.585 248.214 197.968 248.177 198.276 248.102C198.593 248.018 198.831 247.939 198.99 247.864L199.172 248.956C199.013 249.04 198.733 249.129 198.332 249.222C197.94 249.316 197.492 249.362 196.988 249.362C196.353 249.362 195.803 249.269 195.336 249.082C194.879 248.886 194.501 248.62 194.202 248.284C193.903 247.948 193.679 247.552 193.53 247.094C193.39 246.628 193.32 246.119 193.32 245.568ZM198.318 244.854C198.327 244.266 198.178 243.786 197.87 243.412C197.571 243.03 197.156 242.838 196.624 242.838C196.325 242.838 196.059 242.899 195.826 243.02C195.602 243.132 195.411 243.282 195.252 243.468C195.093 243.655 194.967 243.87 194.874 244.112C194.79 244.355 194.734 244.602 194.706 244.854H198.318ZM204.234 241.76C204.346 241.76 204.472 241.77 204.612 241.788C204.762 241.798 204.906 241.816 205.046 241.844C205.186 241.863 205.312 241.886 205.424 241.914C205.546 241.933 205.634 241.952 205.69 241.97L205.466 243.104C205.364 243.067 205.191 243.025 204.948 242.978C204.715 242.922 204.412 242.894 204.038 242.894C203.796 242.894 203.553 242.922 203.31 242.978C203.077 243.025 202.923 243.058 202.848 243.076V249.194H201.546V242.222C201.854 242.11 202.237 242.008 202.694 241.914C203.152 241.812 203.665 241.76 204.234 241.76ZM208.641 248.256C209.173 248.256 209.565 248.186 209.817 248.046C210.078 247.906 210.209 247.682 210.209 247.374C210.209 247.057 210.083 246.805 209.831 246.618C209.579 246.432 209.163 246.222 208.585 245.988C208.305 245.876 208.034 245.764 207.773 245.652C207.521 245.531 207.301 245.391 207.115 245.232C206.928 245.074 206.779 244.882 206.667 244.658C206.555 244.434 206.499 244.159 206.499 243.832C206.499 243.188 206.737 242.68 207.213 242.306C207.689 241.924 208.337 241.732 209.159 241.732C209.364 241.732 209.569 241.746 209.775 241.774C209.98 241.793 210.171 241.821 210.349 241.858C210.526 241.886 210.68 241.919 210.811 241.956C210.951 241.994 211.058 242.026 211.133 242.054L210.895 243.174C210.755 243.1 210.535 243.025 210.237 242.95C209.938 242.866 209.579 242.824 209.159 242.824C208.795 242.824 208.477 242.899 208.207 243.048C207.936 243.188 207.801 243.412 207.801 243.72C207.801 243.879 207.829 244.019 207.885 244.14C207.95 244.262 208.043 244.374 208.165 244.476C208.295 244.57 208.454 244.658 208.641 244.742C208.827 244.826 209.051 244.915 209.313 245.008C209.658 245.139 209.966 245.27 210.237 245.4C210.507 245.522 210.736 245.666 210.923 245.834C211.119 246.002 211.268 246.208 211.371 246.45C211.473 246.684 211.525 246.973 211.525 247.318C211.525 247.99 211.273 248.499 210.769 248.844C210.274 249.19 209.565 249.362 208.641 249.362C207.997 249.362 207.493 249.306 207.129 249.194C206.765 249.092 206.517 249.012 206.387 248.956L206.625 247.836C206.774 247.892 207.012 247.976 207.339 248.088C207.665 248.2 208.099 248.256 208.641 248.256ZM217.653 241.914H220.411V243.006H217.653V246.366C217.653 246.73 217.681 247.034 217.737 247.276C217.793 247.51 217.877 247.696 217.989 247.836C218.101 247.967 218.241 248.06 218.409 248.116C218.577 248.172 218.773 248.2 218.997 248.2C219.389 248.2 219.702 248.158 219.935 248.074C220.178 247.981 220.346 247.916 220.439 247.878L220.691 248.956C220.56 249.022 220.332 249.101 220.005 249.194C219.678 249.297 219.305 249.348 218.885 249.348C218.39 249.348 217.98 249.288 217.653 249.166C217.336 249.036 217.079 248.844 216.883 248.592C216.687 248.34 216.547 248.032 216.463 247.668C216.388 247.295 216.351 246.866 216.351 246.38V239.884L217.653 239.66V241.914ZM228.302 245.554C228.302 246.133 228.218 246.656 228.05 247.122C227.882 247.589 227.644 247.99 227.336 248.326C227.038 248.662 226.678 248.924 226.258 249.11C225.838 249.288 225.381 249.376 224.886 249.376C224.392 249.376 223.934 249.288 223.514 249.11C223.094 248.924 222.73 248.662 222.422 248.326C222.124 247.99 221.89 247.589 221.722 247.122C221.554 246.656 221.47 246.133 221.47 245.554C221.47 244.985 221.554 244.467 221.722 244C221.89 243.524 222.124 243.118 222.422 242.782C222.73 242.446 223.094 242.19 223.514 242.012C223.934 241.826 224.392 241.732 224.886 241.732C225.381 241.732 225.838 241.826 226.258 242.012C226.678 242.19 227.038 242.446 227.336 242.782C227.644 243.118 227.882 243.524 228.05 244C228.218 244.467 228.302 244.985 228.302 245.554ZM226.944 245.554C226.944 244.733 226.758 244.084 226.384 243.608C226.02 243.123 225.521 242.88 224.886 242.88C224.252 242.88 223.748 243.123 223.374 243.608C223.01 244.084 222.828 244.733 222.828 245.554C222.828 246.376 223.01 247.029 223.374 247.514C223.748 247.99 224.252 248.228 224.886 248.228C225.521 248.228 226.02 247.99 226.384 247.514C226.758 247.029 226.944 246.376 226.944 245.554ZM234.676 249.194H233.374V241.914H234.676V249.194ZM234.018 240.598C233.785 240.598 233.584 240.524 233.416 240.374C233.258 240.216 233.178 240.006 233.178 239.744C233.178 239.483 233.258 239.278 233.416 239.128C233.584 238.97 233.785 238.89 234.018 238.89C234.252 238.89 234.448 238.97 234.606 239.128C234.774 239.278 234.858 239.483 234.858 239.744C234.858 240.006 234.774 240.216 234.606 240.374C234.448 240.524 234.252 240.598 234.018 240.598ZM238.133 241.914H240.891V243.006H238.133V246.366C238.133 246.73 238.161 247.034 238.217 247.276C238.273 247.51 238.357 247.696 238.469 247.836C238.581 247.967 238.721 248.06 238.889 248.116C239.057 248.172 239.253 248.2 239.477 248.2C239.869 248.2 240.182 248.158 240.415 248.074C240.658 247.981 240.826 247.916 240.919 247.878L241.171 248.956C241.041 249.022 240.812 249.101 240.485 249.194C240.159 249.297 239.785 249.348 239.365 249.348C238.871 249.348 238.46 249.288 238.133 249.166C237.816 249.036 237.559 248.844 237.363 248.592C237.167 248.34 237.027 248.032 236.943 247.668C236.869 247.295 236.831 246.866 236.831 246.38V239.884L238.133 239.66V241.914ZM242.005 245.568C242.005 244.924 242.099 244.364 242.285 243.888C242.472 243.403 242.719 243.002 243.027 242.684C243.335 242.367 243.69 242.129 244.091 241.97C244.493 241.812 244.903 241.732 245.323 241.732C246.303 241.732 247.055 242.04 247.577 242.656C248.1 243.263 248.361 244.192 248.361 245.442C248.361 245.498 248.361 245.573 248.361 245.666C248.361 245.75 248.357 245.83 248.347 245.904H243.363C243.419 246.66 243.639 247.234 244.021 247.626C244.404 248.018 245.001 248.214 245.813 248.214C246.271 248.214 246.653 248.177 246.961 248.102C247.279 248.018 247.517 247.939 247.675 247.864L247.857 248.956C247.699 249.04 247.419 249.129 247.017 249.222C246.625 249.316 246.177 249.362 245.673 249.362C245.039 249.362 244.488 249.269 244.021 249.082C243.564 248.886 243.186 248.62 242.887 248.284C242.589 247.948 242.365 247.552 242.215 247.094C242.075 246.628 242.005 246.119 242.005 245.568ZM247.003 244.854C247.013 244.266 246.863 243.786 246.555 243.412C246.257 243.03 245.841 242.838 245.309 242.838C245.011 242.838 244.745 242.899 244.511 243.02C244.287 243.132 244.096 243.282 243.937 243.468C243.779 243.655 243.653 243.87 243.559 244.112C243.475 244.355 243.419 244.602 243.391 244.854H247.003ZM250.232 242.124C250.53 242.05 250.922 241.97 251.408 241.886C251.902 241.802 252.472 241.76 253.116 241.76C253.582 241.76 253.974 241.826 254.292 241.956C254.609 242.078 254.875 242.26 255.09 242.502C255.155 242.456 255.258 242.39 255.398 242.306C255.538 242.222 255.71 242.143 255.916 242.068C256.121 241.984 256.35 241.914 256.602 241.858C256.854 241.793 257.124 241.76 257.414 241.76C257.974 241.76 258.431 241.844 258.786 242.012C259.14 242.171 259.416 242.4 259.612 242.698C259.817 242.997 259.952 243.352 260.018 243.762C260.092 244.173 260.13 244.621 260.13 245.106V249.194H258.828V245.386C258.828 244.957 258.804 244.588 258.758 244.28C258.72 243.972 258.641 243.716 258.52 243.51C258.408 243.305 258.249 243.156 258.044 243.062C257.848 242.96 257.591 242.908 257.274 242.908C256.835 242.908 256.471 242.969 256.182 243.09C255.902 243.202 255.71 243.305 255.608 243.398C255.682 243.641 255.738 243.907 255.776 244.196C255.813 244.486 255.832 244.789 255.832 245.106V249.194H254.53V245.386C254.53 244.957 254.506 244.588 254.46 244.28C254.413 243.972 254.329 243.716 254.208 243.51C254.096 243.305 253.937 243.156 253.732 243.062C253.536 242.96 253.284 242.908 252.976 242.908C252.845 242.908 252.705 242.913 252.556 242.922C252.406 242.932 252.262 242.946 252.122 242.964C251.991 242.974 251.87 242.988 251.758 243.006C251.646 243.025 251.571 243.039 251.534 243.048V249.194H250.232V242.124ZM263.984 248.256C264.516 248.256 264.908 248.186 265.16 248.046C265.422 247.906 265.552 247.682 265.552 247.374C265.552 247.057 265.426 246.805 265.174 246.618C264.922 246.432 264.507 246.222 263.928 245.988C263.648 245.876 263.378 245.764 263.116 245.652C262.864 245.531 262.645 245.391 262.458 245.232C262.272 245.074 262.122 244.882 262.01 244.658C261.898 244.434 261.842 244.159 261.842 243.832C261.842 243.188 262.08 242.68 262.556 242.306C263.032 241.924 263.681 241.732 264.502 241.732C264.708 241.732 264.913 241.746 265.118 241.774C265.324 241.793 265.515 241.821 265.692 241.858C265.87 241.886 266.024 241.919 266.154 241.956C266.294 241.994 266.402 242.026 266.476 242.054L266.238 243.174C266.098 243.1 265.879 243.025 265.58 242.95C265.282 242.866 264.922 242.824 264.502 242.824C264.138 242.824 263.821 242.899 263.55 243.048C263.28 243.188 263.144 243.412 263.144 243.72C263.144 243.879 263.172 244.019 263.228 244.14C263.294 244.262 263.387 244.374 263.508 244.476C263.639 244.57 263.798 244.658 263.984 244.742C264.171 244.826 264.395 244.915 264.656 245.008C265.002 245.139 265.31 245.27 265.58 245.4C265.851 245.522 266.08 245.666 266.266 245.834C266.462 246.002 266.612 246.208 266.714 246.45C266.817 246.684 266.868 246.973 266.868 247.318C266.868 247.99 266.616 248.499 266.112 248.844C265.618 249.19 264.908 249.362 263.984 249.362C263.34 249.362 262.836 249.306 262.472 249.194C262.108 249.092 261.861 249.012 261.73 248.956L261.968 247.836C262.118 247.892 262.356 247.976 262.682 248.088C263.009 248.2 263.443 248.256 263.984 248.256Z"
    fill="#464665"
  />
<defs>
<linearGradient
      id="paint0_linear_1:746"
      x1="163"
      y1="0.888885"
      x2="163"
      y2="180.056"
      gradientUnits="userSpaceOnUse"
    >
<stop stop-color="#E3ECFA" />
<stop offset="1" stop-color="#DAE7FF" />
</linearGradient>
</defs>
</svg>
