<svg width="538" height="501" viewBox="0 0 538 501" fill="none" xmlns="http://www.w3.org/2000/svg">
<path d="M269 500.634C417.565 500.634 538 434.332 538 352.543C538 270.755 417.565 204.452 269 204.452C120.435 204.452 0 270.755 0 352.543C0 434.332 120.435 500.634 269 500.634Z" fill="#F5F5F5"/>
<path d="M295.012 243.791C309.372 251.696 309.372 264.512 295.012 272.418C280.651 280.324 257.384 280.324 243.035 272.418C228.687 264.512 228.675 251.696 243.035 243.791C257.395 235.885 280.698 235.885 295.012 243.791Z" fill="#E0E0E0"/>
<path d="M496.531 377.485C508.696 384.166 508.696 395.044 496.531 401.747C484.366 408.45 464.647 408.428 452.482 401.747C440.317 395.066 440.317 384.188 452.482 377.485C464.647 370.782 484.366 370.793 496.531 377.485Z" fill="#E0E0E0"/>
<path d="M336.574 383.286C357.063 394.565 357.063 412.86 336.574 424.139C316.085 435.419 282.87 435.419 262.392 424.139C241.914 412.86 241.903 394.565 262.392 383.286C282.881 372.007 316.096 372.007 336.574 383.286Z" fill="#E0E0E0"/>
<path d="M58.0473 376.004C96.5742 397.16 158.965 397.16 197.457 376.004C235.948 354.848 235.984 320.431 197.457 299.241C158.93 278.052 96.5392 278.085 58.0473 299.241C19.5553 320.397 19.5436 354.781 58.0473 376.004Z" fill="#E0E0E0"/>
<path d="M277.196 361.774L388.107 300.733C388.961 300.316 389.908 300.099 390.868 300.099C391.828 300.099 392.774 300.316 393.629 300.733L487.249 352.287C488.779 353.122 488.779 354.514 487.249 355.316L376.339 416.367C375.484 416.779 374.54 416.994 373.583 416.994C372.626 416.994 371.682 416.779 370.828 416.367L363.193 412.169L312.22 384.143L277.196 364.802C275.655 363.978 275.655 362.575 277.196 361.774Z" fill="#E0E0E0"/>
<path d="M209.412 300.355C209.412 288.697 201.239 277.05 185.128 268.153C152.742 250.338 100.229 250.338 67.8425 268.153C51.6962 277.061 43.6055 288.697 43.5588 300.355V335.128C43.5588 346.82 51.6495 358.511 67.8425 367.419C100.229 385.235 152.742 385.235 185.128 367.419C201.321 358.511 209.412 346.82 209.412 335.128V300.355Z" fill="#BBE1FA"/>
<path d="M209.412 300.355C209.412 288.697 201.239 277.05 185.128 268.153C152.742 250.338 100.229 250.338 67.8425 268.153C51.6962 277.061 43.6055 288.697 43.5588 300.355V335.128C43.5588 346.82 51.6495 358.511 67.8425 367.419C100.229 385.235 152.742 385.235 185.128 367.419C201.321 358.511 209.412 346.82 209.412 335.128V300.355Z" fill="#BBE1FA"/>
<path d="M67.8425 332.734C100.229 350.55 152.742 350.55 185.128 332.734C217.514 314.919 217.514 285.969 185.128 268.153C152.742 250.338 100.229 250.338 67.8425 268.153C35.4565 285.969 35.4565 314.897 67.8425 332.734Z" fill="#BBE1FA"/>
<path opacity="0.3" d="M67.8425 332.734C100.229 350.55 152.742 350.55 185.128 332.734C217.514 314.919 217.514 285.969 185.128 268.153C152.742 250.338 100.229 250.338 67.8425 268.153C35.4565 285.969 35.4565 314.897 67.8425 332.734Z" fill="#BBE1FA"/>
<path opacity="0.1" d="M186.412 366.673C185.992 366.918 185.572 367.174 185.128 367.419C152.742 385.235 100.229 385.235 67.8542 367.419C58.2341 362.13 51.4977 355.895 47.5983 349.214V314.552C51.5094 321.232 58.2691 327.446 67.8542 332.735C68.7765 333.236 69.7222 333.737 70.6795 334.215V334.349C70.6795 334.349 72.2556 362.676 103.731 371.45C145.27 383.041 183.984 367.675 186.412 366.673Z" fill="#BBE1FA"/>
<path opacity="0.1" d="M58.1407 326.31C53.9295 323.021 50.3707 319.038 47.6333 314.552V349.214C50.3547 353.724 53.9154 357.724 58.1407 361.017V326.31Z" fill="#BBE1FA"/>
<path d="M196.091 265.581C196.091 258.221 189.658 250.471 178.462 244.303C164.989 236.887 146.041 232.634 126.485 232.634C106.93 232.634 87.9582 236.887 74.5088 244.303C63.3009 250.471 56.8798 258.221 56.8798 265.581V300.444C56.8798 307.804 63.3126 315.554 74.5088 321.722C87.9815 329.138 106.93 333.403 126.485 333.403C146.041 333.403 165.012 329.138 178.462 321.722C189.669 315.554 196.091 307.804 196.091 300.444V265.581Z" fill="#263238"/>
<path d="M178.462 286.86C164.989 294.286 146.041 298.54 126.485 298.54C106.93 298.54 87.9582 294.286 74.5088 286.86C63.3126 280.702 56.8798 272.941 56.8798 265.581V300.444C56.8798 307.804 63.3126 315.554 74.5088 321.722C87.9815 329.138 106.93 333.403 126.485 333.403C146.041 333.403 165.012 329.138 178.462 321.722C189.669 315.554 196.091 307.804 196.091 300.444V265.581C196.091 272.941 189.634 280.691 178.462 286.86ZM58.6427 305.967C58.1643 304.846 57.8235 303.677 57.6269 302.482C57.9272 303.174 58.2663 303.85 58.6427 304.508V305.967ZM58.6427 302.092C58.1643 300.971 57.8235 299.802 57.6269 298.607C57.925 299.3 58.2641 299.977 58.6427 300.633V302.092ZM58.6427 298.217C58.1643 297.096 57.8235 295.927 57.6269 294.732C57.925 295.425 58.2641 296.102 58.6427 296.758V298.217ZM58.6427 294.353C58.1658 293.232 57.825 292.063 57.6269 290.868C57.9273 291.557 58.2664 292.23 58.6427 292.883V294.353ZM58.6427 290.478C58.1658 289.357 57.825 288.188 57.6269 286.993C57.9273 287.682 58.2664 288.355 58.6427 289.009V290.478ZM58.6427 286.603C58.1658 285.482 57.825 284.313 57.6269 283.118C57.9272 283.811 58.2663 284.487 58.6427 285.145V286.603ZM58.6427 282.729C58.1643 281.608 57.8235 280.439 57.6269 279.243C57.9265 279.943 58.2656 280.627 58.6427 281.292V282.729ZM58.6427 278.854C58.1643 277.733 57.8235 276.564 57.6269 275.369C57.9272 276.061 58.2663 276.737 58.6427 277.395V278.854ZM58.6427 274.979C58.1643 273.858 57.8235 272.689 57.6269 271.494C57.9258 272.179 58.2649 272.849 58.6427 273.498V274.979ZM65.3207 314.696C63.1344 312.788 61.2611 310.577 59.7634 308.138V306.267C61.3402 308.482 63.2078 310.495 65.3207 312.258V314.696ZM65.3207 310.821C63.1344 308.913 61.2611 306.702 59.7634 304.263V302.448C61.3436 304.657 63.2109 306.666 65.3207 308.427V310.821ZM65.3207 306.947C63.1344 305.038 61.2611 302.827 59.7634 300.388V298.529C61.3436 300.738 63.2109 302.747 65.3207 304.508V306.947ZM65.3207 303.072C63.1317 301.166 61.258 298.955 59.7634 296.513V294.654C61.3406 296.865 63.2082 298.874 65.3207 300.633V303.072ZM65.3207 299.197C63.129 297.293 61.255 295.082 59.7634 292.638V290.779C61.3432 292.992 63.2105 295.004 65.3207 296.769V299.197ZM65.3207 295.333C63.1313 293.423 61.2576 291.208 59.7634 288.764V286.86C61.3432 289.072 63.2105 291.085 65.3207 292.85V295.333ZM65.3207 291.458C63.1313 289.548 61.2576 287.333 59.7634 284.889V283.029C61.3432 285.242 63.2105 287.255 65.3207 289.02V291.458ZM65.3207 287.583C63.1344 285.675 61.2611 283.464 59.7634 281.025V279.154C61.3432 281.367 63.2105 283.38 65.3207 285.145V287.583ZM65.3207 283.708C63.1344 281.8 61.2611 279.589 59.7634 277.15V275.279C61.3386 277.502 63.2063 279.523 65.3207 281.292V283.708ZM75.2209 321.5L74.7773 321.266C71.8096 319.671 69.0103 317.806 66.4181 315.698V313.215C68.8587 315.14 71.4678 316.861 74.2169 318.36C74.5438 318.549 74.894 318.716 75.2209 318.894V321.5ZM75.2209 317.625L74.7773 317.391C71.8072 315.778 69.0077 313.895 66.4181 311.768V309.296C68.8616 311.217 71.4704 312.937 74.2169 314.44L75.2209 314.963V317.625ZM75.2209 313.75C75.0692 313.672 74.9174 313.605 74.7773 313.516C71.8072 311.903 69.0077 310.02 66.4181 307.893V305.421C68.8616 307.342 71.4704 309.063 74.2169 310.565L75.2209 311.089V313.75ZM75.2209 309.875C75.0692 309.797 74.9174 309.73 74.7773 309.641C71.8096 308.046 69.0103 306.182 66.4181 304.074V301.602C68.8587 303.526 71.4678 305.247 74.2169 306.746L75.2209 307.269V309.875ZM75.2209 306.011L74.7773 305.777C71.8123 304.157 69.0136 302.274 66.4181 300.154V297.671C68.8587 299.596 71.4678 301.317 74.2169 302.816L75.2209 303.339V306.011ZM75.2209 302.136L74.7773 301.903C71.8072 300.29 69.0077 298.407 66.4181 296.279V293.796C68.8587 295.721 71.4678 297.442 74.2169 298.941L75.2209 299.464V302.136ZM75.2209 298.261L74.7773 298.028C71.8096 296.433 69.0103 294.568 66.4181 292.46V289.977C68.8587 291.902 71.4678 293.623 74.2169 295.122L75.2209 295.645V298.261ZM75.2209 294.387L74.7773 294.153C71.8072 292.54 69.0077 290.657 66.4181 288.53V286.047C68.8587 287.971 71.4678 289.692 74.2169 291.191C74.5438 291.38 74.894 291.547 75.2209 291.725V294.387ZM75.2209 290.512L74.7773 290.278C71.8102 288.658 69.0147 286.767 66.4298 284.633V282.15C68.87 284.078 71.4791 285.802 74.2286 287.305L75.2326 287.828L75.2209 290.512ZM83.8136 325.441C81.2567 324.46 78.7584 323.344 76.33 322.101V319.44C78.7628 320.675 81.2606 321.79 83.8136 322.78V325.441ZM83.8136 321.566C81.2567 320.585 78.7584 319.47 76.33 318.226V315.565C78.7628 316.8 81.2606 317.915 83.8136 318.905V321.566ZM83.8136 317.692C81.2546 316.714 78.756 315.599 76.33 314.351V311.69C78.7604 312.93 81.2585 314.045 83.8136 315.03V317.692ZM83.8136 313.828C81.2567 312.846 78.7584 311.731 76.33 310.487V307.815C78.7604 309.055 81.2585 310.17 83.8136 311.155V313.828ZM83.8136 309.953C81.2567 308.971 78.7584 307.856 76.33 306.612V303.94C78.7604 305.18 81.2585 306.295 83.8136 307.281V309.953ZM83.8136 306.078C81.2567 305.096 78.7584 303.981 76.33 302.738V300.065C78.7604 301.305 81.2585 302.42 83.8136 303.406V306.078ZM83.8136 302.203C81.2567 301.222 78.7584 300.106 76.33 298.863V296.202C78.7616 297.422 81.2597 298.519 83.8136 299.486V302.203ZM83.8136 298.328C81.2567 297.347 78.7584 296.231 76.33 294.988V292.327C78.7628 293.562 81.2606 294.677 83.8136 295.667V298.328ZM83.8136 294.453C81.2567 293.472 78.7584 292.357 76.33 291.113V288.452C78.7628 289.687 81.2606 290.802 83.8136 291.792V294.453ZM93.387 328.592C90.4566 327.78 87.6196 326.878 84.9227 325.864V323.136C87.6313 324.131 90.4527 325.022 93.387 325.809V328.592ZM93.387 324.717C90.4566 323.916 87.6196 323.003 84.9227 321.989V319.261C87.6313 320.249 90.4527 321.143 93.387 321.945V324.717ZM93.387 320.843C90.4566 320.041 87.6196 319.128 84.9227 318.126V315.387C87.6391 316.411 90.4644 317.294 93.3987 318.037L93.387 320.843ZM93.387 316.968C90.4566 316.166 87.6196 315.253 84.9227 314.251V311.512C87.6313 312.514 90.4527 313.408 93.387 314.195V316.968ZM93.387 313.093C90.4566 312.291 87.6196 311.389 84.9227 310.376V307.637C87.6313 308.639 90.4527 309.533 93.387 310.32V313.093ZM93.387 309.218C90.4566 308.416 87.6196 307.514 84.9227 306.501V303.773C87.6313 304.76 90.4527 305.651 93.387 306.445V309.218ZM93.387 305.343C90.4566 304.541 87.6196 303.64 84.9227 302.626V299.898C87.6313 300.893 90.4527 301.784 93.387 302.571V305.343ZM93.387 301.479C90.4566 300.667 87.6196 299.765 84.9227 298.751V296.023C87.6313 297.011 90.4527 297.901 93.387 298.696V301.479ZM93.387 297.605C90.4566 296.803 87.6196 295.89 84.9227 294.877V292.149C87.6313 293.136 90.4527 294.03 93.387 294.832V297.605ZM103.743 330.897C100.579 330.34 97.4849 329.672 94.4961 328.893V326.12C97.4849 326.889 100.579 327.546 103.743 328.102V330.897ZM103.743 327.022C100.579 326.466 97.4849 325.798 94.4961 325.018V322.246C97.4849 323.014 100.579 323.671 103.743 324.228V327.022ZM103.743 323.147C100.579 322.591 97.4849 321.923 94.4961 321.143V318.371C97.4849 319.139 100.579 319.807 103.743 320.353V323.147ZM103.743 319.284C100.579 318.716 97.4849 318.048 94.4961 317.268V314.496C97.4849 315.275 100.579 315.932 103.743 316.478V319.284ZM103.743 315.409C100.579 314.852 97.4849 314.173 94.4961 313.393V310.621C97.4849 311.4 100.579 312.057 103.743 312.603V315.409ZM103.743 311.534C100.579 310.977 97.4849 310.309 94.4961 309.519V306.746C97.4849 307.526 100.579 308.182 103.743 308.739V311.534ZM103.743 307.659C100.579 307.102 97.4849 306.434 94.4961 305.655V302.871C97.4849 303.651 100.579 304.308 103.743 304.864V307.659ZM103.743 303.784C100.579 303.228 97.4849 302.559 94.4961 301.78V299.007C97.4849 299.776 100.579 300.433 103.743 300.989V303.784ZM103.743 299.909C100.579 299.353 97.4849 298.685 94.4961 297.905V295.133C97.4849 295.901 100.579 296.558 103.743 297.115V299.909ZM114.659 332.334C111.331 332.044 108.051 331.632 104.852 331.098V328.303C108.051 328.826 111.331 329.238 114.659 329.528V332.334ZM114.659 328.459C111.331 328.169 108.051 327.757 104.852 327.223V324.428C108.051 324.951 111.331 325.363 114.659 325.653V328.459ZM114.659 324.595C111.331 324.294 108.051 323.882 104.852 323.348V320.553C108.051 321.088 111.331 321.488 114.659 321.778V324.595ZM114.659 320.72C111.331 320.42 108.051 320.008 104.852 319.473V316.678C108.051 317.213 111.331 317.614 114.659 317.903V320.72ZM114.659 316.845C111.331 316.545 108.051 316.144 104.852 315.609V312.803C108.051 313.338 111.331 313.739 114.659 314.039V316.845ZM114.659 312.97C111.331 312.681 108.051 312.269 104.852 311.734V308.94C108.051 309.463 111.331 309.864 114.659 310.164V312.97ZM114.659 309.096C111.331 308.806 108.051 308.394 104.852 307.86V305.065C108.051 305.588 111.331 306 114.659 306.29V309.096ZM114.659 305.221C111.331 304.931 108.051 304.519 104.852 303.985V301.19C108.051 301.713 111.331 302.125 114.659 302.415V305.221ZM114.659 301.346C111.331 301.056 108.051 300.644 104.852 300.11V297.315C108.051 297.838 111.331 298.25 114.659 298.54V301.346ZM125.913 332.857C122.504 332.857 119.107 332.701 115.768 332.434V329.628C119.107 329.895 122.504 330.029 125.913 330.051V332.857ZM125.913 328.982C122.504 328.982 119.107 328.837 115.768 328.57V325.753C119.107 326.02 122.504 326.154 125.913 326.176V328.982ZM125.913 325.118C122.504 325.118 119.107 324.962 115.768 324.695V321.878C119.107 322.145 122.504 322.29 125.913 322.301V325.118ZM125.913 321.243C122.504 321.243 119.107 321.088 115.768 320.82V318.037C119.107 318.304 122.504 318.449 125.913 318.46V321.243ZM125.913 317.369C122.504 317.369 119.107 317.213 115.768 316.945V314.128C119.107 314.396 122.504 314.54 125.913 314.552V317.369ZM125.913 313.494C122.504 313.494 119.107 313.338 115.768 313.071V310.242C119.107 310.498 122.504 310.643 125.913 310.654V313.494ZM125.913 309.619C122.504 309.619 119.107 309.463 115.768 309.196V306.39C119.107 306.657 122.504 306.791 125.913 306.802V309.619ZM125.913 305.744C122.504 305.744 119.107 305.588 115.768 305.321V302.515C119.107 302.782 122.504 302.916 125.913 302.938V305.744ZM125.913 301.869C122.504 301.869 119.107 301.724 115.768 301.457V298.64C119.107 298.907 122.504 299.041 125.913 299.063V301.869ZM137.179 332.434C133.84 332.701 130.443 332.846 127.034 332.857V330.051C130.443 330.051 133.84 329.895 137.179 329.628V332.434ZM137.179 328.57C133.84 328.837 130.443 328.971 127.034 328.982V326.176C130.443 326.176 133.84 326.02 137.179 325.753V328.57ZM137.179 324.695C133.84 324.962 130.443 325.096 127.034 325.118V322.301C130.443 322.301 133.84 322.145 137.179 321.878V324.695ZM137.179 320.82C133.84 321.088 130.443 321.221 127.034 321.243V318.426C130.443 318.426 133.84 318.271 137.179 318.003V320.82ZM137.179 316.945C133.84 317.213 130.443 317.357 127.034 317.369V314.552C130.443 314.552 133.84 314.396 137.179 314.128V316.945ZM137.179 313.071C133.84 313.338 130.443 313.483 127.034 313.494V310.677C130.443 310.677 133.84 310.521 137.179 310.265V313.071ZM137.179 309.196C133.84 309.463 130.443 309.608 127.034 309.619V306.802C130.443 306.802 133.84 306.657 137.179 306.39V309.196ZM137.179 305.321C133.84 305.588 130.443 305.733 127.034 305.744V302.938C130.443 302.938 133.84 302.782 137.179 302.515V305.321ZM137.179 301.457C133.84 301.724 130.443 301.858 127.034 301.869V299.108C130.443 299.108 133.84 298.952 137.179 298.685V301.457ZM148.095 331.098C144.896 331.632 141.616 332.044 138.288 332.334V329.528C141.616 329.238 144.896 328.826 148.095 328.303V331.098ZM148.095 327.223C144.896 327.757 141.616 328.169 138.288 328.459V325.653C141.616 325.363 144.896 324.951 148.095 324.428V327.223ZM148.095 323.348C144.896 323.882 141.616 324.294 138.288 324.595V321.778C141.616 321.488 144.896 321.088 148.095 320.553V323.348ZM148.095 319.473C144.896 320.008 141.616 320.42 138.288 320.72V317.903C141.616 317.614 144.896 317.213 148.095 316.678V319.473ZM148.095 315.609C144.896 316.144 141.616 316.545 138.288 316.845V314.039C141.616 313.739 144.896 313.338 148.095 312.803V315.609ZM148.095 311.734C144.896 312.269 141.616 312.681 138.288 312.97V310.164C141.616 309.864 144.896 309.463 148.095 308.94V311.734ZM148.095 307.86C144.896 308.394 141.616 308.806 138.288 309.096V306.29C141.616 306 144.896 305.588 148.095 305.065V307.86ZM148.095 303.985C144.896 304.519 141.616 304.931 138.288 305.221V302.448C141.616 302.159 144.896 301.747 148.095 301.223V303.985ZM148.095 300.11C144.896 300.644 141.616 301.056 138.288 301.346V298.54C141.616 298.25 144.896 297.838 148.095 297.315V300.11ZM158.451 328.893C155.462 329.672 152.368 330.34 149.204 330.897V328.058C152.368 327.501 155.462 326.844 158.451 326.076V328.893ZM158.451 325.018C155.462 325.798 152.368 326.466 149.204 327.022V324.228C152.368 323.671 155.462 323.014 158.451 322.246V325.018ZM158.451 321.143C155.462 321.923 152.368 322.591 149.204 323.147V320.353C152.368 319.807 155.462 319.139 158.451 318.371V321.143ZM158.451 317.268C155.462 318.048 152.368 318.716 149.204 319.284V316.478C152.368 315.932 155.462 315.275 158.451 314.496V317.268ZM158.451 313.393C155.462 314.173 152.368 314.852 149.204 315.409V312.603C152.368 312.057 155.462 311.4 158.451 310.621V313.393ZM158.451 309.519C155.462 310.309 152.368 310.977 149.204 311.534V308.739C152.368 308.182 155.462 307.526 158.451 306.746V309.519ZM158.451 305.655C155.462 306.434 152.368 307.102 149.204 307.659V304.864C152.368 304.308 155.462 303.651 158.451 302.871V305.655ZM158.451 301.78C155.462 302.559 152.368 303.228 149.204 303.784V300.989C152.368 300.433 155.462 299.776 158.451 299.007V301.78ZM158.451 297.905C155.462 298.685 152.368 299.353 149.204 299.909V297.115C152.368 296.558 155.462 295.901 158.451 295.133V297.905ZM168.036 325.831C165.339 326.844 162.502 327.746 159.572 328.548V325.831C162.498 325.037 165.32 324.146 168.036 323.159V325.831ZM168.036 321.956C165.339 322.969 162.502 323.882 159.572 324.684V321.912C162.498 321.11 165.32 320.215 168.036 319.228V321.956ZM168.036 318.092C165.339 319.094 162.502 320.008 159.572 320.809V318.037C162.498 317.25 165.32 316.355 168.036 315.353V318.092ZM168.036 314.217C165.339 315.22 162.502 316.133 159.572 316.934V314.162C162.498 313.368 165.32 312.473 168.036 311.478V314.217ZM168.036 310.343C165.339 311.356 162.502 312.258 159.572 313.059V310.287C162.498 309.5 165.32 308.606 168.036 307.603V310.343ZM168.036 306.468C165.339 307.481 162.502 308.383 159.572 309.185V306.412C162.498 305.625 165.32 304.731 168.036 303.729V306.468ZM168.036 302.593C165.339 303.606 162.502 304.508 159.572 305.31V302.537C162.498 301.743 165.32 300.852 168.036 299.865V302.593ZM168.036 298.718C165.339 299.731 162.502 300.633 159.572 301.435V298.662C162.498 297.875 165.32 296.985 168.036 295.99V298.718ZM168.036 294.843C165.339 295.856 162.502 296.769 159.572 297.571V294.799C162.498 293.997 165.32 293.102 168.036 292.115V294.843ZM176.629 322.045C174.2 323.289 171.702 324.404 169.145 325.386V322.713C171.698 321.723 174.196 320.608 176.629 319.373V322.045ZM176.629 318.17C174.2 319.414 171.702 320.529 169.145 321.511V318.783C171.698 317.792 174.196 316.678 176.629 315.442V318.17ZM176.629 314.295C174.203 315.544 171.704 316.659 169.145 317.636V314.908C171.7 313.922 174.198 312.807 176.629 311.567V314.295ZM176.629 310.432C174.2 311.675 171.702 312.79 169.145 313.772V311.033C171.7 310.047 174.198 308.932 176.629 307.693V310.432ZM176.629 306.557C174.2 307.8 171.702 308.916 169.145 309.897V307.158C171.7 306.172 174.198 305.057 176.629 303.818V306.557ZM176.629 302.682C174.2 303.926 171.702 305.041 169.145 306.022V303.339C171.7 302.353 174.198 301.238 176.629 299.998V302.682ZM176.629 298.807C174.2 300.051 171.702 301.166 169.145 302.147V299.408C171.699 298.441 174.197 297.345 176.629 296.124V298.807ZM176.629 294.932C174.2 296.176 171.702 297.291 169.145 298.273V295.545C171.698 294.554 174.196 293.439 176.629 292.204V294.932ZM176.629 291.057C174.2 292.301 171.702 293.416 169.145 294.398V291.67C171.698 290.679 174.196 289.565 176.629 288.329V291.057ZM186.541 315.609C183.948 317.717 181.149 319.582 178.181 321.177L177.738 321.41V318.749C178.065 318.571 178.415 318.404 178.742 318.215C181.491 316.716 184.1 314.995 186.541 313.071V315.609ZM186.541 311.734C183.951 313.862 181.151 315.745 178.181 317.357L177.738 317.591V314.93L178.742 314.407C181.489 312.9 184.097 311.176 186.541 309.251V311.734ZM186.541 307.86C183.951 309.987 181.151 311.87 178.181 313.483C178.041 313.572 177.889 313.638 177.738 313.716V311.055L178.742 310.532C181.488 309.029 184.097 307.308 186.541 305.388V307.86ZM186.541 303.985C183.948 306.093 181.149 307.957 178.181 309.552C178.041 309.641 177.889 309.708 177.738 309.786V307.125L178.742 306.601C181.491 305.102 184.1 303.381 186.541 301.457V303.985ZM186.541 300.121C183.945 302.241 181.146 304.124 178.181 305.744L177.738 305.978V303.305L178.742 302.782C181.491 301.283 184.1 299.562 186.541 297.638V300.121ZM186.541 296.246C183.951 298.373 181.151 300.256 178.181 301.869L177.738 302.103V299.431L178.742 298.907C181.491 297.408 184.1 295.687 186.541 293.763V296.246ZM186.541 292.371C183.948 294.479 181.149 296.344 178.181 297.939L177.738 298.172V295.5L178.742 294.977C181.491 293.478 184.1 291.757 186.541 289.833V292.371ZM186.541 288.496C183.951 290.624 181.151 292.507 178.181 294.119L177.738 294.353V291.692C178.065 291.514 178.415 291.347 178.742 291.158C181.491 289.659 184.1 287.938 186.541 286.013V288.496ZM186.541 284.621C183.951 286.749 181.151 288.632 178.181 290.245L177.738 290.478V287.817L178.742 287.294C181.489 285.787 184.097 284.063 186.541 282.138V284.621ZM193.219 308.093C191.717 310.546 189.84 312.771 187.65 314.696V312.247C189.76 310.479 191.631 308.466 193.219 306.256V308.093ZM193.219 304.219C191.713 306.655 189.836 308.866 187.65 310.777V308.338C189.763 306.573 191.634 304.56 193.219 302.348V304.219ZM193.219 300.344C191.713 302.781 189.836 304.991 187.65 306.902V304.463C189.76 302.699 191.631 300.691 193.219 298.484V300.344ZM193.219 296.469C191.713 298.906 189.836 301.116 187.65 303.027V300.589C189.76 298.824 191.631 296.816 193.219 294.609V296.469ZM193.219 292.594C191.719 295.035 189.841 297.246 187.65 299.152V296.714C189.763 294.952 191.634 292.943 193.219 290.734V292.594ZM193.219 288.719C191.716 291.161 189.839 293.376 187.65 295.289V292.85C189.76 291.082 191.631 289.07 193.219 286.86V288.719ZM193.219 284.844C191.716 287.287 189.839 289.501 187.65 291.414V288.975C189.76 287.207 191.631 285.195 193.219 282.985V284.844ZM193.219 280.98C191.713 283.417 189.836 285.627 187.65 287.539V285.1C189.76 283.332 191.631 281.32 193.219 279.11V280.98ZM194.386 273.487C194.765 272.83 195.104 272.154 195.402 271.46C195.205 272.655 194.864 273.825 194.386 274.945V273.487ZM194.386 277.362C194.762 276.704 195.101 276.027 195.402 275.335C195.205 276.53 194.864 277.7 194.386 278.82V277.362ZM194.386 281.237C194.762 280.579 195.101 279.902 195.402 279.21C195.205 280.405 194.864 281.575 194.386 282.695V281.237ZM194.386 285.1C194.765 284.447 195.104 283.775 195.402 283.085C195.204 284.28 194.863 285.449 194.386 286.57V285.1ZM194.386 288.975C194.762 288.321 195.101 287.648 195.402 286.96C195.204 288.155 194.863 289.324 194.386 290.445V288.975ZM194.386 292.85C194.762 292.196 195.101 291.523 195.402 290.835C195.205 292.026 194.864 293.192 194.386 294.309V292.85ZM194.386 296.725C194.765 296.068 195.104 295.392 195.402 294.698C195.205 295.894 194.864 297.063 194.386 298.184V296.725ZM194.386 300.6C194.765 299.943 195.104 299.267 195.402 298.573C195.205 299.768 194.864 300.938 194.386 302.058V300.6ZM194.386 304.475C194.762 303.817 195.101 303.14 195.402 302.448C195.205 303.643 194.864 304.813 194.386 305.933V304.475ZM193.219 275.235V277.106C191.713 279.542 189.836 281.753 187.65 283.664V281.292C189.765 279.517 191.636 277.492 193.219 275.268V275.235Z" fill="#455A64"/>
<path d="M209.411 173.687C209.411 157.207 190.848 137.198 167.954 128.981C145.06 120.763 107.922 120.763 85.0628 128.981C62.2034 137.198 43.6054 157.207 43.6054 173.687V265.581C43.6054 277.273 51.6961 288.964 67.8891 297.872C100.275 315.687 152.788 315.687 185.174 297.872C201.368 288.964 209.458 277.262 209.458 265.581V203.516L209.411 173.687Z" fill="#BBE1FA"/>
<path opacity="0.3" d="M70.7028 207.97C101.513 226.899 151.458 226.899 182.268 207.97C213.077 189.041 213.077 158.332 182.268 139.392C151.458 120.452 101.513 120.463 70.7028 139.392C39.8929 158.321 39.8929 189.03 70.7028 207.97Z" fill="white"/>
<path opacity="0.3" d="M74.3103 202.615C103.124 220.33 149.846 220.33 178.66 202.615C207.473 184.899 207.473 156.183 178.66 138.479C149.846 120.775 103.124 120.763 74.3103 138.479C45.4968 156.194 45.4968 184.899 74.3103 202.615Z" fill="white"/>
<path opacity="0.1" d="M178.859 301.001L167.009 299.286C142.872 295.789 120.529 285.055 103.215 268.64C85.9002 252.225 74.5134 230.98 70.7028 207.981C55.2687 198.495 47.5633 186.057 47.5983 173.62V279.667C51.4977 286.347 58.2341 292.594 67.8425 297.894C98.2204 314.607 146.286 315.643 178.859 301.001Z" fill="#BBE1FA"/>
<path opacity="0.1" d="M58.1408 197.905C51.1359 190.411 47.5751 182.004 47.6334 173.609V279.655C50.3579 284.164 53.9181 288.163 58.1408 291.458V197.905Z" fill="#BBE1FA"/>
<path d="M144.453 171.727V168.609H143.577C142.449 166.778 140.813 165.279 138.849 164.278C131.365 160.169 119.258 160.169 111.775 164.278C109.832 165.287 108.217 166.785 107.105 168.609H106.229V171.727C106.229 174.433 108.097 177.127 111.833 179.187C119.305 183.296 131.424 183.296 138.895 179.187C142.585 177.127 144.453 174.399 144.453 171.727Z" fill="#0F4C75"/>
<path d="M111.775 176.058C104.303 171.939 104.303 165.269 111.775 161.149C119.247 157.029 131.365 157.04 138.849 161.149C146.332 165.258 146.321 171.939 138.849 176.058C131.377 180.178 119.247 180.167 111.775 176.058Z" fill="#455A64"/>
<path d="M125.213 174.332C122.811 174.373 120.439 173.825 118.324 172.74C115.429 171.148 114.425 168.654 115.791 166.416C115.927 166.233 116.129 166.104 116.359 166.056C116.588 166.008 116.828 166.042 117.032 166.153C117.236 166.265 117.39 166.444 117.462 166.658C117.535 166.871 117.522 167.102 117.426 167.306C116.608 168.654 117.297 170.101 119.27 171.181C121.112 172.071 123.148 172.534 125.213 172.534C127.277 172.534 129.313 172.071 131.155 171.181C131.781 171.01 132.331 170.649 132.723 170.152C133.115 169.656 133.327 169.052 133.327 168.431C133.327 167.81 133.115 167.206 132.723 166.71C132.331 166.213 131.781 165.852 131.155 165.681C128.552 164.419 125.579 164.027 122.714 164.567C122.588 164.599 122.456 164.605 122.327 164.586C122.197 164.567 122.074 164.522 121.964 164.455C121.854 164.387 121.759 164.299 121.687 164.195C121.614 164.091 121.565 163.974 121.543 163.851C121.52 163.729 121.524 163.603 121.555 163.482C121.586 163.36 121.643 163.247 121.722 163.148C121.802 163.048 121.902 162.966 122.016 162.906C122.131 162.845 122.257 162.808 122.387 162.797C125.692 162.198 129.112 162.672 132.101 164.144C134.109 165.258 135.23 166.783 135.23 168.453C135.23 170.123 134.062 171.649 132.101 172.762C129.984 173.84 127.612 174.38 125.213 174.332Z" fill="#BBE1FA"/>
<path d="M123.368 168.32C123.204 168.316 123.044 168.274 122.901 168.197L115.651 164.211C115.544 164.151 115.45 164.072 115.374 163.977C115.299 163.883 115.244 163.775 115.213 163.66C115.181 163.545 115.174 163.426 115.191 163.308C115.208 163.19 115.249 163.077 115.312 162.975C115.374 162.873 115.456 162.783 115.554 162.712C115.652 162.64 115.764 162.588 115.884 162.558C116.003 162.528 116.128 162.521 116.25 162.537C116.373 162.553 116.49 162.592 116.597 162.652L123.847 166.638C124.063 166.759 124.222 166.957 124.287 167.188C124.353 167.419 124.32 167.666 124.197 167.874C124.11 168.01 123.988 168.121 123.843 168.199C123.698 168.277 123.535 168.319 123.368 168.32Z" fill="#BBE1FA"/>
<path d="M156.198 159V155.971H155.917C155.571 155.399 155.061 154.931 154.446 154.624C153.135 153.988 151.685 153.657 150.214 153.657C148.743 153.657 147.293 153.988 145.982 154.624C145.368 154.931 144.858 155.399 144.511 155.971H144.231V159C144.282 159.501 144.47 159.98 144.778 160.389C145.085 160.797 145.501 161.121 145.982 161.327C147.293 161.963 148.743 162.294 150.214 162.294C151.685 162.294 153.135 161.963 154.446 161.327C154.928 161.121 155.343 160.797 155.651 160.389C155.958 159.98 156.147 159.501 156.198 159Z" fill="#0F4C75"/>
<path d="M145.982 158.298C143.647 157.018 143.647 154.958 145.982 153.644C147.293 153.008 148.743 152.677 150.214 152.677C151.685 152.677 153.135 153.008 154.446 153.644C156.781 154.924 156.781 156.984 154.446 158.298C153.135 158.934 151.685 159.265 150.214 159.265C148.743 159.265 147.293 158.934 145.982 158.298Z" fill="#455A64"/>
<path d="M108.739 185.122V182.093H108.471C108.116 181.523 107.603 181.056 106.988 180.746C105.677 180.11 104.227 179.779 102.756 179.779C101.285 179.779 99.8352 180.11 98.524 180.746C97.9121 181.056 97.4028 181.523 97.053 182.093H96.7728V185.122C96.8234 185.623 97.012 186.102 97.3196 186.511C97.6272 186.919 98.0427 187.243 98.524 187.449C99.8352 188.085 101.285 188.416 102.756 188.416C104.227 188.416 105.677 188.085 106.988 187.449C107.47 187.243 107.885 186.919 108.193 186.511C108.5 186.102 108.689 185.623 108.739 185.122Z" fill="#0F4C75"/>
<path d="M98.5707 184.42C96.2357 183.14 96.2357 181.08 98.5707 179.766C99.8819 179.13 101.332 178.799 102.803 178.799C104.274 178.799 105.724 179.13 107.035 179.766C109.37 181.058 109.37 183.106 107.035 184.42C105.724 185.056 104.274 185.387 102.803 185.387C101.332 185.387 99.8819 185.056 98.5707 184.42Z" fill="#455A64"/>
<path d="M177.154 252.342L190.907 244.77C191.112 244.615 191.277 244.417 191.389 244.191C191.5 243.965 191.555 243.717 191.549 243.468V235.996C191.549 232.934 190.709 230.641 189.354 229.393C188 228.146 186.109 227.935 184.031 229.082C179.874 231.375 176.5 238.179 176.5 244.281V251.752C176.5 252.275 176.792 252.542 177.154 252.342Z" fill="#0F4C75"/>
<path d="M190.872 246.986L177.189 254.569C176.969 254.735 176.794 254.949 176.68 255.193C176.567 255.438 176.517 255.705 176.535 255.972C176.897 261.383 180.108 264.022 184.031 261.862C187.953 259.702 191.164 253.522 191.526 247.721C191.561 247.098 191.257 246.775 190.872 246.986Z" fill="#0F4C75"/>
<path d="M185.105 265.704C191.829 261.962 195.694 254.38 195.694 244.904C195.709 244.763 195.694 244.62 195.648 244.485C195.602 244.35 195.526 244.226 195.427 244.12C195.327 244.015 195.205 243.93 195.069 243.872C194.933 243.815 194.786 243.785 194.637 243.785C194.488 243.785 194.341 243.815 194.205 243.872C194.069 243.93 193.947 244.015 193.848 244.12C193.748 244.226 193.673 244.35 193.627 244.485C193.581 244.62 193.565 244.763 193.581 244.904C193.581 253.645 190.078 260.593 184.031 263.956C183.311 264.437 182.472 264.729 181.596 264.801C180.721 264.874 179.841 264.724 179.045 264.367C176.78 263.254 175.274 260.07 175.006 255.961C174.996 255.825 174.957 255.693 174.893 255.571C174.828 255.45 174.739 255.342 174.63 255.254C174.522 255.166 174.396 255.099 174.26 255.058C174.124 255.017 173.98 255.002 173.838 255.014C173.697 255.024 173.558 255.061 173.432 255.123C173.305 255.184 173.193 255.269 173.101 255.373C173.01 255.477 172.941 255.597 172.899 255.727C172.857 255.857 172.843 255.993 172.858 256.128C173.173 261.005 175.053 264.679 178.018 266.149C178.934 266.616 179.957 266.86 180.995 266.862C181.652 266.856 182.304 266.762 182.933 266.583V272.93L179.979 274.556C179.737 274.691 179.56 274.912 179.488 275.17C179.416 275.429 179.454 275.704 179.594 275.936C179.686 276.089 179.819 276.215 179.979 276.303C180.139 276.391 180.32 276.438 180.505 276.438C180.692 276.435 180.877 276.389 181.042 276.304L188.047 272.474C188.291 272.339 188.47 272.118 188.543 271.858C188.617 271.598 188.579 271.321 188.438 271.087C188.297 270.854 188.065 270.684 187.792 270.614C187.519 270.544 187.229 270.58 186.984 270.714L185.093 271.761V265.704H185.105Z" fill="#0F4C75"/>
<path d="M12.6787 116.131C12.3691 116.131 12.0721 116.014 11.8532 115.805C11.6342 115.596 11.5112 115.313 11.5112 115.018V111.132C11.5112 110.837 11.6342 110.553 11.8532 110.345C12.0721 110.136 12.3691 110.018 12.6787 110.018C12.9883 110.018 13.2853 110.136 13.5042 110.345C13.7232 110.553 13.8462 110.837 13.8462 111.132V115.018C13.8462 115.313 13.7232 115.596 13.5042 115.805C13.2853 116.014 12.9883 116.131 12.6787 116.131Z" fill="#BBE1FA"/>
<path d="M18.5396 123.87C18.23 123.87 17.933 123.753 17.7141 123.544C17.4951 123.335 17.3721 123.052 17.3721 122.756V96.9351C17.3721 96.6398 17.4951 96.3566 17.7141 96.1478C17.933 95.939 18.23 95.8217 18.5396 95.8217C18.8492 95.8217 19.1462 95.939 19.3651 96.1478C19.5841 96.3566 19.7071 96.6398 19.7071 96.9351V122.756C19.7071 123.052 19.5841 123.335 19.3651 123.544C19.1462 123.753 18.8492 123.87 18.5396 123.87Z" fill="#BBE1FA"/>
<path d="M24.4003 114.806C24.0906 114.806 23.7937 114.689 23.5747 114.48C23.3558 114.271 23.2328 113.988 23.2328 113.693V99.5407C23.2328 99.2453 23.3558 98.9621 23.5747 98.7533C23.7937 98.5445 24.0906 98.4272 24.4003 98.4272C24.7099 98.4272 25.0069 98.5445 25.2258 98.7533C25.4447 98.9621 25.5677 99.2453 25.5677 99.5407V113.693C25.5677 113.988 25.4447 114.271 25.2258 114.48C25.0069 114.689 24.7099 114.806 24.4003 114.806Z" fill="#BBE1FA"/>
<path d="M30.2612 125.184C29.9515 125.184 29.6546 125.067 29.4356 124.858C29.2167 124.649 29.0937 124.366 29.0937 124.07V82.7162C29.0937 82.4209 29.2167 82.1376 29.4356 81.9288C29.6546 81.72 29.9515 81.6027 30.2612 81.6027C30.5708 81.6027 30.8678 81.72 31.0867 81.9288C31.3057 82.1376 31.4287 82.4209 31.4287 82.7162V124.07C31.4287 124.366 31.3057 124.649 31.0867 124.858C30.8678 125.067 30.5708 125.184 30.2612 125.184Z" fill="#BBE1FA"/>
<path d="M36.122 104.574C35.8123 104.574 35.5154 104.456 35.2964 104.247C35.0775 104.039 34.9545 103.755 34.9545 103.46V96.8572C34.9545 96.5619 35.0775 96.2787 35.2964 96.0698C35.5154 95.861 35.8123 95.7437 36.122 95.7437C36.4316 95.7437 36.7285 95.861 36.9475 96.0698C37.1664 96.2787 37.2894 96.5619 37.2894 96.8572V103.46C37.2894 103.755 37.1664 104.039 36.9475 104.247C36.7285 104.456 36.4316 104.574 36.122 104.574Z" fill="#BBE1FA"/>
<path d="M41.9826 106.366C41.673 106.366 41.376 106.249 41.1571 106.04C40.9381 105.831 40.8151 105.548 40.8151 105.253V88.6621C40.8151 88.3668 40.9381 88.0836 41.1571 87.8747C41.376 87.6659 41.673 87.5486 41.9826 87.5486C42.2922 87.5486 42.5892 87.6659 42.8082 87.8747C43.0271 88.0836 43.1501 88.3668 43.1501 88.6621V105.253C43.1501 105.548 43.0271 105.831 42.8082 106.04C42.5892 106.249 42.2922 106.366 41.9826 106.366Z" fill="#BBE1FA"/>
<path d="M47.8434 115.163C47.5337 115.163 47.2368 115.045 47.0178 114.836C46.7989 114.628 46.6759 114.344 46.6759 114.049V73.3741C46.6759 73.0788 46.7989 72.7956 47.0178 72.5868C47.2368 72.378 47.5337 72.2607 47.8434 72.2607C48.153 72.2607 48.45 72.378 48.6689 72.5868C48.8879 72.7956 49.0109 73.0788 49.0109 73.3741V114.049C49.0109 114.344 48.8879 114.628 48.6689 114.836C48.45 115.045 48.153 115.163 47.8434 115.163Z" fill="#BBE1FA"/>
<path opacity="0.5" d="M47.8434 115.163C47.5337 115.163 47.2368 115.045 47.0178 114.836C46.7989 114.628 46.6759 114.344 46.6759 114.049V73.3741C46.6759 73.0788 46.7989 72.7956 47.0178 72.5868C47.2368 72.378 47.5337 72.2607 47.8434 72.2607C48.153 72.2607 48.45 72.378 48.6689 72.5868C48.8879 72.7956 49.0109 73.0788 49.0109 73.3741V114.049C49.0109 114.344 48.8879 114.628 48.6689 114.836C48.45 115.045 48.153 115.163 47.8434 115.163Z" fill="white"/>
<path d="M53.7041 107.747C53.3945 107.747 53.0975 107.63 52.8786 107.421C52.6597 107.212 52.5367 106.929 52.5367 106.633V74.3429C52.5367 74.0476 52.6597 73.7643 52.8786 73.5555C53.0975 73.3467 53.3945 73.2294 53.7041 73.2294C54.0138 73.2294 54.3107 73.3467 54.5297 73.5555C54.7486 73.7643 54.8716 74.0476 54.8716 74.3429V106.633C54.8716 106.929 54.7486 107.212 54.5297 107.421C54.3107 107.63 54.0138 107.747 53.7041 107.747Z" fill="#BBE1FA"/>
<path d="M59.5649 111.622C59.2553 111.622 58.9583 111.504 58.7394 111.296C58.5204 111.087 58.3974 110.804 58.3974 110.508V63.9987C58.3974 63.7034 58.5204 63.4202 58.7394 63.2114C58.9583 63.0026 59.2553 62.8853 59.5649 62.8853C59.8746 62.8853 60.1715 63.0026 60.3905 63.2114C60.6094 63.4202 60.7324 63.7034 60.7324 63.9987V110.508C60.7324 110.804 60.6094 111.087 60.3905 111.296C60.1715 111.504 59.8746 111.622 59.5649 111.622Z" fill="#BBE1FA"/>
<path d="M65.4257 96.3005C65.1161 96.3005 64.8191 96.1832 64.6002 95.9743C64.3812 95.7655 64.2582 95.4823 64.2582 95.187V72.9176C64.2582 72.6223 64.3812 72.3391 64.6002 72.1303C64.8191 71.9215 65.1161 71.8042 65.4257 71.8042C65.7353 71.8042 66.0323 71.9215 66.2512 72.1303C66.4702 72.3391 66.5932 72.6223 66.5932 72.9176V95.187C66.5932 95.4823 66.4702 95.7655 66.2512 95.9743C66.0323 96.1832 65.7353 96.3005 65.4257 96.3005Z" fill="#BBE1FA"/>
<path d="M71.2865 84.5756C70.9768 84.5756 70.6799 84.4583 70.4609 84.2495C70.242 84.0407 70.119 83.7575 70.119 83.4622V78.1398C70.119 77.8445 70.242 77.5612 70.4609 77.3524C70.6799 77.1436 70.9768 77.0263 71.2865 77.0263C71.5961 77.0263 71.8931 77.1436 72.112 77.3524C72.3309 77.5612 72.4539 77.8445 72.4539 78.1398V83.4622C72.4539 83.7575 72.3309 84.0407 72.112 84.2495C71.8931 84.4583 71.5961 84.5756 71.2865 84.5756Z" fill="#BBE1FA"/>
<path d="M77.1472 84.3529C76.8376 84.3529 76.5407 84.2356 76.3217 84.0268C76.1028 83.818 75.9798 83.5347 75.9798 83.2394V71.8932C75.9798 71.5979 76.1028 71.3147 76.3217 71.1059C76.5407 70.8971 76.8376 70.7798 77.1472 70.7798C77.4569 70.7798 77.7538 70.8971 77.9728 71.1059C78.1917 71.3147 78.3147 71.5979 78.3147 71.8932V83.2394C78.3147 83.5347 78.1917 83.818 77.9728 84.0268C77.7538 84.2356 77.4569 84.3529 77.1472 84.3529Z" fill="#BBE1FA"/>
<path d="M83.008 90.722C82.6984 90.722 82.4014 90.6046 82.1825 90.3958C81.9635 90.187 81.8405 89.9038 81.8405 89.6085V59.0772C81.8405 58.7818 81.9635 58.4986 82.1825 58.2898C82.4014 58.081 82.6984 57.9637 83.008 57.9637C83.3176 57.9637 83.6146 58.081 83.8335 58.2898C84.0525 58.4986 84.1755 58.7818 84.1755 59.0772V89.6085C84.1755 89.9038 84.0525 90.187 83.8335 90.3958C83.6146 90.6046 83.3176 90.722 83.008 90.722Z" fill="#BBE1FA"/>
<path d="M88.8688 103.805C88.5591 103.805 88.2622 103.688 88.0432 103.479C87.8243 103.27 87.7013 102.987 87.7013 102.692V39.5358C87.7013 39.2405 87.8243 38.9573 88.0432 38.7485C88.2622 38.5396 88.5591 38.4223 88.8688 38.4223C89.1784 38.4223 89.4754 38.5396 89.6943 38.7485C89.9133 38.9573 90.0363 39.2405 90.0363 39.5358V102.692C90.0363 102.987 89.9133 103.27 89.6943 103.479C89.4754 103.688 89.1784 103.805 88.8688 103.805Z" fill="#BBE1FA"/>
<path d="M94.7294 92.1806C94.4198 92.1806 94.1228 92.0633 93.9039 91.8545C93.685 91.6457 93.562 91.3624 93.562 91.0671V44.7134C93.562 44.4181 93.685 44.1349 93.9039 43.9261C94.1228 43.7173 94.4198 43.6 94.7294 43.6C95.0391 43.6 95.336 43.7173 95.555 43.9261C95.7739 44.1349 95.8969 44.4181 95.8969 44.7134V91.0671C95.8969 91.3624 95.7739 91.6457 95.555 91.8545C95.336 92.0633 95.0391 92.1806 94.7294 92.1806Z" fill="#BBE1FA"/>
<path d="M100.59 76.5809C100.281 76.5809 99.9837 76.4636 99.7648 76.2548C99.5459 76.046 99.4229 75.7627 99.4229 75.4674V53.855C99.4229 53.5597 99.5459 53.2765 99.7648 53.0677C99.9837 52.8589 100.281 52.7415 100.59 52.7415C100.9 52.7415 101.197 52.8589 101.416 53.0677C101.635 53.2765 101.758 53.5597 101.758 53.855V75.4674C101.758 75.6137 101.728 75.7584 101.669 75.8935C101.61 76.0286 101.524 76.1514 101.416 76.2548C101.307 76.3582 101.179 76.4402 101.037 76.4961C100.895 76.5521 100.744 76.5809 100.59 76.5809Z" fill="#BBE1FA"/>
<path d="M106.451 65.8471C106.141 65.8471 105.845 65.7298 105.626 65.521C105.407 65.3121 105.284 65.0289 105.284 64.7336V58.1307C105.284 57.8354 105.407 57.5522 105.626 57.3434C105.845 57.1346 106.141 57.0173 106.451 57.0173C106.761 57.0173 107.058 57.1346 107.277 57.3434C107.496 57.5522 107.619 57.8354 107.619 58.1307V64.7336C107.619 65.0289 107.496 65.3121 107.277 65.521C107.058 65.7298 106.761 65.8471 106.451 65.8471Z" fill="#BBE1FA"/>
<path d="M164.93 32.2871C164.621 32.2871 164.324 32.1698 164.105 31.961C163.886 31.7521 163.763 31.4689 163.763 31.1736V27.2988C163.763 27.0035 163.886 26.7202 164.105 26.5114C164.324 26.3026 164.621 26.1853 164.93 26.1853C165.24 26.1853 165.537 26.3026 165.756 26.5114C165.975 26.7202 166.098 27.0035 166.098 27.2988V31.1736C166.098 31.4689 165.975 31.7521 165.756 31.961C165.537 32.1698 165.24 32.2871 164.93 32.2871Z" fill="#BBE1FA"/>
<path d="M159.07 46.4839C158.76 46.4839 158.463 46.3665 158.244 46.1577C158.025 45.9489 157.902 45.6657 157.902 45.3704V19.5602C157.902 19.2648 158.025 18.9816 158.244 18.7728C158.463 18.564 158.76 18.4467 159.07 18.4467C159.379 18.4467 159.676 18.564 159.895 18.7728C160.114 18.9816 160.237 19.2648 160.237 19.5602V45.3704C160.237 45.6657 160.114 45.9489 159.895 46.1577C159.676 46.3665 159.379 46.4839 159.07 46.4839Z" fill="#BBE1FA"/>
<path d="M153.209 43.8783C152.899 43.8783 152.602 43.761 152.383 43.5522C152.164 43.3434 152.041 43.0602 152.041 42.7649V28.6238C152.041 28.3285 152.164 28.0453 152.383 27.8365C152.602 27.6277 152.899 27.5103 153.209 27.5103C153.519 27.5103 153.815 27.6277 154.034 27.8365C154.253 28.0453 154.376 28.3285 154.376 28.6238V42.7649C154.376 43.0602 154.253 43.3434 154.034 43.5522C153.815 43.761 153.519 43.8783 153.209 43.8783Z" fill="#BBE1FA"/>
<path d="M147.348 60.7141C147.038 60.7141 146.742 60.5968 146.523 60.3879C146.304 60.1791 146.181 59.8959 146.181 59.6006V18.2352C146.181 17.9398 146.304 17.6566 146.523 17.4478C146.742 17.239 147.038 17.1217 147.348 17.1217C147.658 17.1217 147.955 17.239 148.174 17.4478C148.393 17.6566 148.516 17.9398 148.516 18.2352V59.6006C148.516 59.8959 148.393 60.1791 148.174 60.3879C147.955 60.5968 147.658 60.7141 147.348 60.7141Z" fill="#BBE1FA"/>
<path d="M141.487 46.5618C141.178 46.5618 140.881 46.4445 140.662 46.2357C140.443 46.0269 140.32 45.7436 140.32 45.4483V38.8455C140.32 38.5502 140.443 38.2669 140.662 38.0581C140.881 37.8493 141.178 37.732 141.487 37.732C141.797 37.732 142.094 37.8493 142.313 38.0581C142.532 38.2669 142.655 38.5502 142.655 38.8455V45.4483C142.655 45.7436 142.532 46.0269 142.313 46.2357C142.094 46.4445 141.797 46.5618 141.487 46.5618Z" fill="#BBE1FA"/>
<path d="M135.627 54.8015C135.317 54.8015 135.02 54.6841 134.801 54.4753C134.582 54.2665 134.459 53.9833 134.459 53.688V37.0639C134.459 36.7686 134.582 36.4854 134.801 36.2766C135.02 36.0678 135.317 35.9504 135.627 35.9504C135.936 35.9504 136.233 36.0678 136.452 36.2766C136.671 36.4854 136.794 36.7686 136.794 37.0639V53.688C136.794 53.9833 136.671 54.2665 136.452 54.4753C136.233 54.6841 135.936 54.8015 135.627 54.8015Z" fill="#BBE1FA"/>
<path d="M129.754 70.056C129.445 70.056 129.148 69.9387 128.929 69.7299C128.71 69.5211 128.587 69.2378 128.587 68.9425V28.2675C128.587 27.9722 128.71 27.689 128.929 27.4802C129.148 27.2713 129.445 27.154 129.754 27.154C130.064 27.154 130.361 27.2713 130.58 27.4802C130.799 27.689 130.922 27.9722 130.922 28.2675V68.9425C130.922 69.2378 130.799 69.5211 130.58 69.7299C130.361 69.9387 130.064 70.056 129.754 70.056Z" fill="#BBE1FA"/>
<path d="M123.893 69.0873C123.584 69.0873 123.287 68.97 123.068 68.7612C122.849 68.5523 122.726 68.2691 122.726 67.9738V35.6832C122.726 35.3879 122.849 35.1047 123.068 34.8959C123.287 34.687 123.584 34.5697 123.893 34.5697C124.203 34.5697 124.5 34.687 124.719 34.8959C124.938 35.1047 125.061 35.3879 125.061 35.6832V67.9738C125.061 68.2691 124.938 68.5523 124.719 68.7612C124.5 68.97 124.203 69.0873 123.893 69.0873Z" fill="#BBE1FA"/>
<path d="M118.033 79.4203C117.723 79.4203 117.426 79.303 117.207 79.0942C116.988 78.8853 116.865 78.6021 116.865 78.3068V31.7972C116.865 31.5019 116.988 31.2187 117.207 31.0099C117.426 30.8011 117.723 30.6837 118.033 30.6837C118.342 30.6837 118.639 30.8011 118.858 31.0099C119.077 31.2187 119.2 31.5019 119.2 31.7972V78.3068C119.2 78.6021 119.077 78.8853 118.858 79.0942C118.639 79.303 118.342 79.4203 118.033 79.4203Z" fill="#BBE1FA"/>
<path opacity="0.7" d="M59.5649 111.622C59.2553 111.622 58.9583 111.504 58.7394 111.296C58.5204 111.087 58.3974 110.804 58.3974 110.508V63.9987C58.3974 63.7034 58.5204 63.4202 58.7394 63.2114C58.9583 63.0026 59.2553 62.8853 59.5649 62.8853C59.8746 62.8853 60.1715 63.0026 60.3905 63.2114C60.6094 63.4202 60.7324 63.7034 60.7324 63.9987V110.508C60.7324 110.804 60.6094 111.087 60.3905 111.296C60.1715 111.504 59.8746 111.622 59.5649 111.622Z" fill="white"/>
<path opacity="0.7" d="M94.7294 92.1806C94.4198 92.1806 94.1228 92.0633 93.9039 91.8545C93.685 91.6457 93.562 91.3624 93.562 91.0671V44.7134C93.562 44.4181 93.685 44.1349 93.9039 43.9261C94.1228 43.7173 94.4198 43.6 94.7294 43.6C95.0391 43.6 95.336 43.7173 95.555 43.9261C95.7739 44.1349 95.8969 44.4181 95.8969 44.7134V91.0671C95.8969 91.3624 95.7739 91.6457 95.555 91.8545C95.336 92.0633 95.0391 92.1806 94.7294 92.1806Z" fill="white"/>
<path opacity="0.7" d="M118.033 79.4203C117.723 79.4203 117.426 79.303 117.207 79.0942C116.988 78.8853 116.865 78.6021 116.865 78.3068V31.7972C116.865 31.5019 116.988 31.2187 117.207 31.0099C117.426 30.8011 117.723 30.6837 118.033 30.6837C118.342 30.6837 118.639 30.8011 118.858 31.0099C119.077 31.2187 119.2 31.5019 119.2 31.7972V78.3068C119.2 78.6021 119.077 78.8853 118.858 79.0942C118.639 79.303 118.342 79.4203 118.033 79.4203Z" fill="white"/>
<path d="M112.172 68.0629C111.862 68.0629 111.565 67.9456 111.346 67.7367C111.127 67.5279 111.004 67.2447 111.004 66.9494V49.6127C111.004 49.3174 111.127 49.0341 111.346 48.8253C111.565 48.6165 111.862 48.4992 112.172 48.4992C112.481 48.4992 112.778 48.6165 112.997 48.8253C113.216 49.0341 113.339 49.3174 113.339 49.6127V66.9494C113.339 67.2447 113.216 67.5279 112.997 67.7367C112.778 67.9456 112.481 68.0629 112.172 68.0629Z" fill="#BBE1FA"/>
<path d="M106.311 65.2792C106.001 65.2792 105.704 65.1619 105.485 64.9531C105.266 64.7443 105.143 64.4611 105.143 64.1657V58.8545C105.143 58.5592 105.266 58.276 105.485 58.0672C105.704 57.8584 106.001 57.7411 106.311 57.7411C106.621 57.7411 106.918 57.8584 107.137 58.0672C107.355 58.276 107.478 58.5592 107.478 58.8545V64.1657C107.478 64.4611 107.355 64.7443 107.137 64.9531C106.918 65.1619 106.621 65.2792 106.311 65.2792Z" fill="#BBE1FA"/>
<path opacity="0.5" d="M30.2612 125.184C29.9515 125.184 29.6546 125.067 29.4356 124.858C29.2167 124.649 29.0937 124.366 29.0937 124.07V82.7162C29.0937 82.4209 29.2167 82.1376 29.4356 81.9288C29.6546 81.72 29.9515 81.6027 30.2612 81.6027C30.5708 81.6027 30.8678 81.72 31.0867 81.9288C31.3057 82.1376 31.4287 82.4209 31.4287 82.7162V124.07C31.4287 124.366 31.3057 124.649 31.0867 124.858C30.8678 125.067 30.5708 125.184 30.2612 125.184Z" fill="white"/>
<path opacity="0.5" d="M77.1472 84.3529C76.8376 84.3529 76.5407 84.2356 76.3217 84.0268C76.1028 83.818 75.9798 83.5347 75.9798 83.2394V71.8932C75.9798 71.5979 76.1028 71.3147 76.3217 71.1059C76.5407 70.8971 76.8376 70.7798 77.1472 70.7798C77.4569 70.7798 77.7538 70.8971 77.9728 71.1059C78.1917 71.3147 78.3147 71.5979 78.3147 71.8932V83.2394C78.3147 83.5347 78.1917 83.818 77.9728 84.0268C77.7538 84.2356 77.4569 84.3529 77.1472 84.3529Z" fill="white"/>
<path opacity="0.5" d="M88.8688 103.805C88.5591 103.805 88.2622 103.688 88.0432 103.479C87.8243 103.27 87.7013 102.987 87.7013 102.692V39.5358C87.7013 39.2405 87.8243 38.9573 88.0432 38.7485C88.2622 38.5396 88.5591 38.4223 88.8688 38.4223C89.1784 38.4223 89.4754 38.5396 89.6943 38.7485C89.9133 38.9573 90.0363 39.2405 90.0363 39.5358V102.692C90.0363 102.987 89.9133 103.27 89.6943 103.479C89.4754 103.688 89.1784 103.805 88.8688 103.805Z" fill="white"/>
<path opacity="0.5" d="M100.59 76.5809C100.281 76.5809 99.9837 76.4636 99.7648 76.2548C99.5459 76.046 99.4229 75.7627 99.4229 75.4674V53.855C99.4229 53.5597 99.5459 53.2765 99.7648 53.0677C99.9837 52.8589 100.281 52.7415 100.59 52.7415C100.9 52.7415 101.197 52.8589 101.416 53.0677C101.635 53.2765 101.758 53.5597 101.758 53.855V75.4674C101.758 75.6137 101.728 75.7584 101.669 75.8935C101.61 76.0286 101.524 76.1514 101.416 76.2548C101.307 76.3582 101.179 76.4402 101.037 76.4961C100.895 76.5521 100.744 76.5809 100.59 76.5809Z" fill="white"/>
<path opacity="0.5" d="M147.348 60.7141C147.038 60.7141 146.742 60.5968 146.523 60.3879C146.304 60.1791 146.181 59.8959 146.181 59.6006V18.2352C146.181 17.9398 146.304 17.6566 146.523 17.4478C146.742 17.239 147.038 17.1217 147.348 17.1217C147.658 17.1217 147.955 17.239 148.174 17.4478C148.393 17.6566 148.516 17.9398 148.516 18.2352V59.6006C148.516 59.8959 148.393 60.1791 148.174 60.3879C147.955 60.5968 147.658 60.7141 147.348 60.7141Z" fill="white"/>
<path opacity="0.5" d="M123.893 69.0873C123.584 69.0873 123.287 68.97 123.068 68.7612C122.849 68.5523 122.726 68.2691 122.726 67.9738V35.6832C122.726 35.3879 122.849 35.1047 123.068 34.8959C123.287 34.687 123.584 34.5697 123.893 34.5697C124.203 34.5697 124.5 34.687 124.719 34.8959C124.938 35.1047 125.061 35.3879 125.061 35.6832V67.9738C125.061 68.2691 124.938 68.5523 124.719 68.7612C124.5 68.97 124.203 69.0873 123.893 69.0873Z" fill="white"/>
<path d="M525.846 179.789L520.313 182.828L382.083 106.711L387.605 103.672L525.846 179.789Z" fill="#FAFAFA"/>
<path d="M387.605 103.672L520.313 176.738V89.0297L387.616 15.9526L387.605 103.672Z" fill="#BBE1FA"/>
<g opacity="0.8">
<path opacity="0.8" d="M387.605 103.672L520.313 176.738V89.0297L387.616 15.9526L387.605 103.672Z" fill="white"/>
</g>
<path d="M451.198 47.9314V141.73L445.664 138.69V44.8805L451.198 47.9314Z" fill="#F0F0F0"/>
<path d="M453.965 46.3948L451.198 47.9314V141.73L453.965 140.205V46.3948Z" fill="#E0E0E0"/>
<path d="M451.198 47.9314L445.664 44.8805L448.431 43.355L453.965 46.3948L451.198 47.9314Z" fill="white"/>
<path d="M376.549 109.818L525.87 191.97V85.9786L376.549 3.77124V109.818ZM382.083 12.9462L520.313 89.0518V182.862L382.083 106.745V12.9462Z" fill="#F0F0F0"/>
<path d="M382.083 106.711L387.605 103.672L387.616 15.9526L382.083 12.9128V106.711Z" fill="#E0E0E0"/>
<path d="M376.549 3.77122L382.083 0.731445L531.38 82.9389L525.847 85.9786L376.549 3.77122Z" fill="#FAFAFA"/>
<path d="M531.38 82.9389L525.847 85.9786V191.97L531.369 188.919L531.38 82.9389Z" fill="#E0E0E0"/>
<path d="M451.198 50.96L445.687 47.9314V50.9712L451.198 54.011V50.96Z" fill="#E0E0E0"/>
<path opacity="0.15" d="M451.198 54.011L453.965 52.4855L451.198 50.96V54.011Z" fill="#BBE1FA"/>
<path d="M287.026 244.136C296.973 249.614 296.973 258.488 287.026 263.967C277.079 269.445 260.968 269.445 251.021 263.967C241.074 258.488 241.074 249.614 251.021 244.136C260.968 238.657 277.079 238.657 287.026 244.136Z" fill="#0F4C75"/>
<path d="M243.561 254.057C243.561 250.46 246.024 246.875 250.997 244.136C260.944 238.657 277.056 238.657 287.003 244.136C291.976 246.875 294.439 250.46 294.439 254.057V257.397C294.381 260.938 291.883 264.468 286.979 267.174C277.032 272.641 260.921 272.641 250.974 267.174C246.071 264.468 243.572 260.938 243.514 257.397L243.561 254.057Z" fill="#263238"/>
<path d="M287.026 244.136C296.973 249.614 296.973 258.488 287.026 263.967C277.079 269.445 260.968 269.445 251.021 263.967C241.074 258.488 241.074 249.614 251.021 244.136C260.968 238.657 277.079 238.657 287.026 244.136Z" fill="#0F4C75"/>
<path d="M266.28 108.17H271.767V252.487C271.782 252.738 271.715 252.988 271.575 253.202C271.435 253.415 271.229 253.582 270.985 253.678C270.384 253.97 269.72 254.121 269.047 254.121C268.373 254.121 267.709 253.97 267.109 253.678C266.865 253.582 266.658 253.415 266.518 253.202C266.378 252.988 266.311 252.738 266.326 252.487L266.28 108.17Z" fill="#455A64"/>
<path d="M233.263 103.193L242.078 62.9521H296.016L304.83 103.193C307.235 109.595 303.931 116.555 294.907 121.498C280.64 129.293 257.547 129.293 243.234 121.498C234.162 116.499 230.858 109.595 233.263 103.193Z" fill="#BBE1FA"/>
<path opacity="0.2" d="M233.263 103.193L242.078 62.9521H296.016L304.83 103.193C307.235 109.595 303.931 116.555 294.907 121.498C280.64 129.293 257.547 129.293 243.234 121.498C234.162 116.499 230.858 109.595 233.263 103.193Z" fill="#BBE1FA"/>
<path d="M288.194 75.0444C277.604 80.8789 260.442 80.8789 249.853 75.0444C239.264 69.2098 239.264 59.7676 249.853 53.8885C260.442 48.0094 277.604 48.065 288.194 53.8885C298.783 59.7119 298.783 69.2209 288.194 75.0444Z" fill="#BBE1FA"/>
<path d="M288.194 75.0444C277.604 80.8789 260.442 80.8789 249.853 75.0444C239.264 69.2098 239.264 59.7676 249.853 53.8885C260.442 48.0094 277.604 48.065 288.194 53.8885C298.783 59.7119 298.783 69.2209 288.194 75.0444Z" fill="#BBE1FA"/>
<path d="M269.023 75.757C274.81 75.8666 280.53 74.5593 285.637 71.9601C289.513 69.8222 291.649 67.161 291.649 64.4442C291.649 61.7273 289.513 59.0661 285.637 56.9394C280.481 54.472 274.792 53.1872 269.023 53.1872C263.255 53.1872 257.566 54.472 252.41 56.9394C248.534 59.0661 246.398 61.7384 246.398 64.4442C246.398 67.1499 248.534 69.8222 252.41 71.9601C257.517 74.5593 263.236 75.8666 269.023 75.757Z" fill="#BBE1FA"/>
<path opacity="0.35" d="M269.023 75.757C274.81 75.8666 280.53 74.5593 285.637 71.9601C289.513 69.8222 291.649 67.161 291.649 64.4442C291.649 61.7273 289.513 59.0661 285.637 56.9394C280.481 54.472 274.792 53.1872 269.023 53.1872C263.255 53.1872 257.566 54.472 252.41 56.9394C248.534 59.0661 246.398 61.7384 246.398 64.4442C246.398 67.1499 248.534 69.8222 252.41 71.9601C257.517 74.5593 263.236 75.8666 269.023 75.757Z" fill="#BBE1FA"/>
<path d="M300.137 28.2786C299.89 28.2775 299.648 28.2178 299.432 28.1051C299.216 27.9923 299.033 27.83 298.899 27.6328C295.703 22.8518 291.298 18.9142 286.088 16.1825C280.879 13.4507 275.033 12.0126 269.088 12.0004C263.143 11.9882 257.29 13.4023 252.068 16.1127C246.846 18.823 242.423 22.7425 239.206 27.5103C238.995 27.8204 238.664 28.038 238.285 28.1153C237.907 28.1926 237.511 28.1231 237.186 27.9223C236.861 27.7215 236.633 27.4058 236.552 27.0445C236.471 26.6833 236.544 26.3061 236.754 25.996C240.238 20.8382 245.027 16.5985 250.678 13.6669C256.33 10.7353 262.663 9.20588 269.097 9.21919C275.53 9.23249 281.857 10.7881 287.495 13.7431C293.133 16.698 297.902 20.9574 301.363 26.1297C301.569 26.4418 301.639 26.8191 301.556 27.1797C301.473 27.5403 301.244 27.8551 300.919 28.0559C300.685 28.1985 300.414 28.2757 300.137 28.2786Z" fill="#BBE1FA"/>
<path d="M293.821 32.6881C293.571 32.6899 293.326 32.6291 293.108 32.5119C292.891 32.3946 292.71 32.225 292.583 32.02C290.118 28.1794 286.661 25.0054 282.544 22.8008C278.426 20.5963 273.786 19.4347 269.064 19.4268C264.342 19.419 259.697 20.5653 255.571 22.7562C251.446 24.9471 247.978 28.1096 245.499 31.942C245.402 32.1062 245.272 32.25 245.115 32.3647C244.959 32.4794 244.78 32.5627 244.589 32.6095C244.398 32.6563 244.199 32.6657 244.004 32.6371C243.809 32.6085 243.622 32.5424 243.454 32.443C243.287 32.3435 243.142 32.2127 243.029 32.0585C242.916 31.9042 242.837 31.7297 242.797 31.5455C242.757 31.3613 242.756 31.1712 242.795 30.9867C242.834 30.8023 242.912 30.6273 243.024 30.4723C245.766 26.2376 249.6 22.7435 254.16 20.323C258.72 17.9026 263.854 16.6364 269.073 16.6454C274.292 16.6543 279.421 17.938 283.972 20.3741C288.523 22.8101 292.344 26.3173 295.07 30.5613C295.27 30.8766 295.332 31.2541 295.242 31.6125C295.152 31.9708 294.919 32.2811 294.591 32.4765C294.361 32.6154 294.093 32.6888 293.821 32.6881Z" fill="#BBE1FA"/>
<path d="M287.516 37.0974C287.258 37.0983 287.004 37.0338 286.781 36.9106C286.557 36.7873 286.372 36.6097 286.244 36.3959C284.506 33.5039 281.999 31.1007 278.975 29.4294C275.951 27.7582 272.518 26.878 269.023 26.878C265.528 26.878 262.096 27.7582 259.072 29.4294C256.048 31.1007 253.541 33.5039 251.803 36.3959C251.718 36.5709 251.595 36.7271 251.444 36.8546C251.292 36.9821 251.114 37.0781 250.921 37.1365C250.728 37.1949 250.525 37.2144 250.324 37.1939C250.123 37.1733 249.928 37.1131 249.753 37.0171C249.577 36.921 249.425 36.7912 249.305 36.6359C249.185 36.4806 249.1 36.3032 249.055 36.115C249.011 35.9268 249.008 35.7318 249.047 35.5424C249.086 35.3531 249.166 35.1736 249.281 35.0152C251.27 31.6943 254.144 28.934 257.612 27.0141C261.08 25.0943 265.019 24.0831 269.029 24.0831C273.039 24.0831 276.978 25.0943 280.446 27.0141C283.914 28.934 286.788 31.6943 288.777 35.0152C288.968 35.3344 289.018 35.7126 288.918 36.0671C288.817 36.4217 288.573 36.724 288.24 36.9081C288.022 37.0333 287.771 37.0988 287.516 37.0974Z" fill="#BBE1FA"/>
<path d="M256.823 41.5067C256.6 41.5092 256.379 41.4595 256.181 41.3619C255.835 41.199 255.57 40.9118 255.446 40.5633C255.321 40.2148 255.346 39.8333 255.516 39.5025C256.755 37.0968 258.676 35.0706 261.062 33.6535C263.447 32.2364 266.201 31.4853 269.012 31.4853C271.822 31.4853 274.576 32.2364 276.962 33.6535C279.347 35.0706 281.268 37.0968 282.508 39.5025C282.677 39.8333 282.703 40.2148 282.578 40.5633C282.453 40.9118 282.189 41.199 281.842 41.3619C281.671 41.4435 281.484 41.4919 281.293 41.5041C281.102 41.5163 280.91 41.4922 280.728 41.4331C280.547 41.3741 280.38 41.2813 280.236 41.1601C280.093 41.039 279.976 40.8918 279.893 40.7273C278.892 38.7898 277.342 37.1582 275.419 36.0173C273.496 34.8764 271.276 34.2718 269.012 34.2718C266.747 34.2718 264.527 34.8764 262.604 36.0173C260.681 37.1582 259.132 38.7898 258.131 40.7273C258.01 40.9599 257.823 41.1559 257.593 41.2935C257.362 41.4311 257.095 41.5049 256.823 41.5067Z" fill="#BBE1FA"/>
<path d="M294.942 312.347C294.499 314.858 294.872 317.439 296.009 319.743C297.146 322.047 298.993 323.965 301.304 325.241L375.86 362.308L376.082 366.406L379.479 368.276L375.101 370.682L292.688 325.174L294.942 312.347Z" fill="#0F4C75"/>
<path d="M372.778 388.764C373.256 383.297 371.225 377.808 366.24 375.057L299.051 338.079C298.171 337.6 297.182 337.33 296.169 337.293C295.156 337.255 294.149 337.452 293.232 337.865C292.316 338.278 291.517 338.895 290.904 339.665C290.291 340.435 289.882 341.335 289.711 342.288L294.194 316.79C293.762 319.249 294.127 321.776 295.241 324.033C296.355 326.289 298.165 328.167 300.429 329.416L369.987 367.753C370.486 368.081 371.068 368.274 371.672 368.31C372.277 368.345 372.88 368.223 373.417 367.956C373.954 367.689 374.404 367.288 374.719 366.795C375.035 366.302 375.203 365.736 375.206 365.159L375.556 361.64L372.778 388.764Z" fill="#455A64"/>
<path d="M371.318 213.716L390.372 224.216L309.126 273.208C306.554 274.759 304.354 276.811 302.67 279.228C300.986 281.646 299.856 284.375 299.355 287.238L287.516 360.349C287.481 360.55 287.394 360.74 287.265 360.903C287.136 361.066 286.967 361.197 286.773 361.285C286.58 361.372 286.367 361.414 286.152 361.406C285.938 361.398 285.729 361.341 285.543 361.239C285.1 360.994 284.843 360.527 285.006 358.745L291.766 281.103C292.151 276.716 295.082 271.483 299.763 267.942L371.318 213.716Z" fill="#455A64"/>
<path d="M459.533 310.131L460 311.156C460.807 312.945 460.896 314.955 460.25 316.802C459.604 318.65 458.269 320.207 456.498 321.177L381.58 362.431L383.46 351.741L380.646 367.775L464.635 321.377L459.533 310.131Z" fill="#263238"/>
<path d="M459.533 310.131L459.708 310.877C460.252 312.034 460.396 313.327 460.118 314.567C459.84 315.807 459.154 316.93 458.162 317.774C457.169 318.618 455.92 319.138 454.597 319.259C453.273 319.381 451.944 319.097 450.801 318.449L447.648 316.689L443.399 319.039L460.853 328.659L466.386 325.141L459.533 310.131Z" fill="#263238"/>
<path d="M379.759 363.433L451.583 323.849C452.905 323.029 454.005 321.923 454.794 320.621C455.584 319.319 456.039 317.857 456.124 316.355V312.313C456.039 310.812 455.584 309.35 454.794 308.048C454.005 306.746 452.905 305.64 451.583 304.82L379.759 265.269C378.352 264.589 376.796 264.234 375.218 264.234C373.64 264.234 372.084 264.589 370.676 265.269L298.853 304.82C297.53 305.64 296.43 306.746 295.641 308.048C294.852 309.35 294.396 310.812 294.311 312.313V316.4C294.396 317.903 294.852 319.366 295.641 320.67C296.43 321.974 297.53 323.082 298.853 323.905L370.676 363.433C372.084 364.114 373.64 364.468 375.218 364.468C376.796 364.468 378.352 364.114 379.759 363.433Z" fill="#BBE1FA"/>
<path opacity="0.7" d="M379.759 363.433L451.583 323.849C452.905 323.029 454.005 321.923 454.794 320.621C455.584 319.319 456.039 317.857 456.124 316.355V312.313C456.039 310.812 455.584 309.35 454.794 308.048C454.005 306.746 452.905 305.64 451.583 304.82L379.759 265.269C378.352 264.589 376.796 264.234 375.218 264.234C373.64 264.234 372.084 264.589 370.676 265.269L298.853 304.82C297.53 305.64 296.43 306.746 295.641 308.048C294.852 309.35 294.396 310.812 294.311 312.313V316.4C294.396 317.903 294.852 319.366 295.641 320.67C296.43 321.974 297.53 323.082 298.853 323.905L370.676 363.433C372.084 364.114 373.64 364.468 375.218 364.468C376.796 364.468 378.352 364.114 379.759 363.433Z" fill="white"/>
<path opacity="0.3" d="M378.428 363.979C378.89 363.84 379.336 363.657 379.759 363.433L451.583 323.849C452.904 323.028 454.003 321.921 454.792 320.619C455.581 319.318 456.038 317.857 456.124 316.355V312.313C456.041 310.979 455.671 309.676 455.036 308.484C454.401 307.293 453.516 306.239 452.435 305.388C454.046 306.768 453.766 308.617 451.583 309.842L380.098 349.214L378.428 363.979Z" fill="#BBE1FA"/>
<path opacity="0.15" d="M294.311 312.313V316.4C294.394 317.904 294.849 319.367 295.638 320.672C296.428 321.976 297.529 323.084 298.853 323.905L370.676 363.433C371.867 364.006 373.165 364.349 374.496 364.441C375.827 364.533 377.163 364.372 378.428 363.967L380.098 349.214L379.759 349.403C378.352 350.084 376.796 350.439 375.218 350.439C373.64 350.439 372.084 350.084 370.676 349.403L298.853 309.842C296.669 308.65 296.377 306.791 298 305.388C296.918 306.237 296.032 307.291 295.397 308.483C294.762 309.675 294.392 310.979 294.311 312.313Z" fill="#BBE1FA"/>
<path d="M354.25 279.333L426.085 318.883C427.716 319.701 429.562 320.049 431.397 319.885C431.665 319.885 431.934 319.885 432.203 319.807H432.366L432.845 319.718H432.903C433.137 319.718 433.382 319.607 433.615 319.54C434.153 319.392 434.671 319.182 435.156 318.916L438.857 316.879C441.606 315.164 443.561 312.51 444.321 309.463L454.992 253.378C455.064 253.01 455.099 252.638 455.097 252.264C455.097 252.119 455.097 251.986 455.097 251.841C455.012 250.803 454.713 249.792 454.216 248.865C453.719 247.938 453.034 247.114 452.202 246.441L451.886 246.218C451.734 246.111 451.574 246.014 451.408 245.928L379.584 206.367C378.175 205.691 376.62 205.339 375.043 205.339C373.465 205.339 371.91 205.691 370.501 206.367L366.812 208.405C366.002 208.865 365.267 209.436 364.629 210.097C364.499 210.219 364.378 210.349 364.267 210.487C363.771 211.016 363.325 211.586 362.936 212.19C362.78 212.433 362.628 212.678 362.48 212.925C362.375 213.103 362.294 213.259 362.2 213.437C362.107 213.616 362.025 213.771 361.955 213.95C361.885 214.128 361.827 214.239 361.78 214.384C361.748 214.449 361.72 214.516 361.698 214.584C361.698 214.707 361.605 214.84 361.57 214.963C361.512 215.127 361.465 215.294 361.43 215.464C361.43 215.586 361.43 215.709 361.336 215.82L350.665 271.917C350.462 273.35 350.691 274.809 351.325 276.122C351.96 277.436 352.975 278.549 354.25 279.333Z" fill="#BBE1FA"/>
<path opacity="0.7" d="M354.25 279.333L426.085 318.883C427.716 319.701 429.562 320.049 431.397 319.885C431.665 319.885 431.934 319.885 432.203 319.807H432.366L432.845 319.718H432.903C433.137 319.718 433.382 319.607 433.615 319.54C434.153 319.392 434.671 319.182 435.156 318.916L438.857 316.879C441.606 315.164 443.561 312.51 444.321 309.463L454.992 253.378C455.064 253.01 455.099 252.638 455.097 252.264C455.097 252.119 455.097 251.986 455.097 251.841C455.012 250.803 454.713 249.792 454.216 248.865C453.719 247.938 453.034 247.114 452.202 246.441L451.886 246.218C451.734 246.111 451.574 246.014 451.408 245.928L379.584 206.367C378.175 205.691 376.62 205.339 375.043 205.339C373.465 205.339 371.91 205.691 370.501 206.367L366.812 208.405C366.002 208.865 365.267 209.436 364.629 210.097C364.499 210.219 364.378 210.349 364.267 210.487C363.771 211.016 363.325 211.586 362.936 212.19C362.78 212.433 362.628 212.678 362.48 212.925C362.375 213.103 362.294 213.259 362.2 213.437C362.107 213.616 362.025 213.771 361.955 213.95C361.885 214.128 361.827 214.239 361.78 214.384C361.748 214.449 361.72 214.516 361.698 214.584C361.698 214.707 361.605 214.84 361.57 214.963C361.512 215.127 361.465 215.294 361.43 215.464C361.43 215.586 361.43 215.709 361.336 215.82L350.665 271.917C350.462 273.35 350.691 274.809 351.325 276.122C351.96 277.436 352.975 278.549 354.25 279.333Z" fill="white"/>
<path opacity="0.2" d="M442.173 260.381L431.502 316.467C431.44 317.043 431.223 317.594 430.87 318.066C430.517 318.538 430.042 318.914 429.491 319.158C428.94 319.401 428.332 319.504 427.727 319.456C427.121 319.408 426.539 319.21 426.038 318.883L354.25 279.333C352.973 278.55 351.955 277.438 351.316 276.125C350.677 274.811 350.444 273.352 350.642 271.917L361.255 215.831C361.315 215.254 361.531 214.702 361.883 214.228C362.235 213.755 362.71 213.377 363.261 213.132C363.813 212.888 364.421 212.784 365.028 212.831C365.634 212.879 366.216 213.076 366.718 213.404L438.554 252.954C439.834 253.737 440.854 254.851 441.495 256.166C442.136 257.481 442.371 258.943 442.173 260.381Z" fill="#BBE1FA"/>
<path opacity="0.3" d="M427.883 319.585C429.025 319.867 430.209 319.969 431.385 319.885C431.654 319.885 431.922 319.885 432.191 319.807L432.833 319.696H432.891C433.125 319.696 433.37 319.584 433.604 319.518C434.142 319.369 434.659 319.16 435.145 318.894L438.846 316.856C441.594 315.142 443.549 312.488 444.309 309.441L454.98 253.355C455.053 252.988 455.088 252.615 455.085 252.242C455.085 252.097 455.085 251.963 455.085 251.819C455.027 251.091 454.862 250.375 454.595 249.692L441.753 256.64C442.264 257.815 442.421 259.103 442.208 260.359L431.537 316.445C431.477 317.298 431.065 318.093 430.391 318.657C429.717 319.22 428.836 319.506 427.941 319.451C427.932 319.499 427.912 319.545 427.883 319.585Z" fill="#BBE1FA"/>
<path d="M270.939 396.637C276.005 392.634 280.323 387.841 283.711 382.462C287.676 376.508 290.815 370.089 293.051 363.366C297.861 348.212 307.061 317.146 309.396 312.057C312.711 304.798 336.026 291.024 347.584 283.274C356.324 277.462 365.415 272.145 374.81 267.352L399.63 261.985C401.662 270.035 403.32 276.282 400.798 284.666C398.276 293.05 390.874 299.286 379.234 306.401C369.603 312.302 341.361 321.188 338.466 322.546C335.571 323.905 332.5 323.871 331.811 329.305C331.122 334.739 329.301 336.999 324.118 344.226C317.475 353.49 307.773 365.738 304.095 375.403C303.634 377.565 303.658 379.797 304.165 381.95C306.407 390.156 298.97 390.713 294.522 396.035C292.105 398.93 290.622 401.981 287.167 403.974C284.015 405.742 280.489 406.815 276.846 407.114C273.565 407.415 268.382 406.658 266.339 404.665C263.081 401.547 267.856 398.986 270.939 396.637Z" fill="#FFA8A7"/>
<path d="M373.151 267.619C361.06 274.11 349.348 281.224 338.068 288.931C317.404 302.838 311.917 306.512 309.243 311.044C306.57 315.576 296.167 352.766 296.167 352.766C296.167 352.766 300.008 360.872 312.816 360.738C312.816 360.738 323.416 346.731 325.973 343.279C328.53 339.827 332.079 335.017 332.675 330.263C333.27 325.508 334.496 324.862 350.549 319.44C366.602 314.017 389.648 305.421 398.416 291.815C407.183 278.208 404.907 267.608 404.907 267.608L373.151 267.619Z" fill="#BBE1FA"/>
<path opacity="0.5" d="M373.151 267.619C361.06 274.11 349.348 281.224 338.068 288.931C317.404 302.838 311.917 306.512 309.243 311.044C306.57 315.576 296.167 352.766 296.167 352.766C296.167 352.766 300.008 360.872 312.816 360.738C312.816 360.738 323.416 346.731 325.973 343.279C328.53 339.827 332.079 335.017 332.675 330.263C333.27 325.508 334.496 324.862 350.549 319.44C366.602 314.017 389.648 305.421 398.416 291.815C407.183 278.208 404.907 267.608 404.907 267.608L373.151 267.619Z" fill="#BBE1FA"/>
<path opacity="0.1" d="M330.526 328.281C330.41 321.477 338.769 316.2 345.82 311.501C347.467 310.387 347.373 310.387 377.728 290.501C374.494 285.423 372.509 272.685 372.509 272.685L402.117 276.838C402.064 279.477 401.648 282.097 400.879 284.633C398.392 293.017 390.955 299.252 379.316 306.368C374.004 309.619 363.298 314.329 354.273 318.137C353.012 318.582 351.775 319.005 350.572 319.406C334.519 324.829 333.293 325.486 332.698 330.229C332.103 334.973 328.553 339.794 325.997 343.246C325.635 343.736 325.074 344.437 324.385 345.261C328.799 337.667 330.596 332.178 330.526 328.281Z" fill="#BBE1FA"/>
<path d="M295.117 409.92C300.116 405.838 304.445 401.064 307.959 395.757C311.823 389.929 314.861 383.639 316.995 377.051C321.98 362.141 332.032 332.323 334.344 327.245C338.757 317.569 372.521 297.972 372.521 297.972C369.707 294.064 363.73 283.586 363.029 279.266L420.236 277.907C420.656 288.73 419.64 296.836 416.663 303.194C412.636 311.779 409.658 317.391 397.528 323.37C387.371 328.392 363.671 335.396 360.741 336.732C357.811 338.068 354.787 338.046 354.098 343.479C353.409 348.913 351.973 352.543 346.789 359.758C340.146 369.022 332.126 379.344 328.39 389.043C327.998 391.235 328.098 393.481 328.682 395.634C330.923 403.841 323.311 404.542 318.863 409.887C316.447 412.782 314.964 415.833 311.508 417.826C308.35 419.589 304.821 420.662 301.176 420.966C297.907 421.255 292.817 420.587 290.318 418.249C287.014 415.165 292.548 411.991 295.117 409.92Z" fill="#FFA8A7"/>
<path d="M420.236 277.885C420.236 277.885 424.754 305.833 408.923 318.304C393.092 330.775 359.223 336.242 357.343 341.843C355.648 347.657 352.987 353.176 349.463 358.188C345.085 364.491 335.792 375.893 335.792 375.893C335.792 375.893 324.607 374.902 319.68 369.034C319.68 369.034 329.452 334.661 333.036 326.466C336.621 318.271 372.521 297.994 372.521 297.994C372.521 297.994 365.749 291.224 362.726 278.342C359.702 265.459 420.236 277.885 420.236 277.885Z" fill="#BBE1FA"/>
<path opacity="0.43" d="M420.236 277.885C420.236 277.885 424.754 305.833 408.923 318.304C393.092 330.775 359.223 336.242 357.343 341.843C355.648 347.657 352.987 353.176 349.463 358.188C345.085 364.491 335.792 375.893 335.792 375.893C335.792 375.893 324.607 374.902 319.68 369.034C319.68 369.034 329.452 334.661 333.036 326.466C336.621 318.271 372.521 297.994 372.521 297.994C372.521 297.994 365.749 291.224 362.726 278.342C359.702 265.459 420.236 277.885 420.236 277.885Z" fill="#BBE1FA"/>
<path d="M328.682 395.646C328.369 394.503 328.196 393.33 328.168 392.149C328.098 394.031 323.638 396.781 320.101 399.888C316.563 402.994 310.107 410.154 306.581 411.312C301.69 412.915 295.77 410.922 298.21 407.214C297.218 408.139 296.191 409.052 295.117 409.909C292.548 411.98 287.014 415.153 290.318 418.249C292.817 420.587 297.907 421.255 301.176 420.966C304.821 420.662 308.35 419.589 311.508 417.826C315.011 415.833 316.447 412.782 318.863 409.887C323.311 404.564 330.9 403.852 328.682 395.646Z" fill="#0F4C75"/>
<path d="M304.48 382.161C304.165 380.981 303.826 378.821 303.826 378.821C303.756 380.703 299.436 383.364 295.899 386.471C292.361 389.577 285.905 396.726 282.391 397.884C277.488 399.498 271.639 397.75 274.09 394.042C273.086 394.966 271.989 395.612 270.915 396.481C268.358 398.552 262.812 401.725 266.116 404.809C268.615 407.148 273.705 407.827 276.986 407.537C280.627 407.233 284.153 406.161 287.306 404.397C290.809 402.404 292.245 399.342 294.661 396.447C299.109 391.08 306.721 390.412 304.48 382.161Z" fill="#0F4C75"/>
<path d="M387.698 210.03C381.277 208.85 375.953 209.05 371.657 215.041C367.361 221.031 359.282 246.775 355.02 257.909C353.853 260.983 367.092 273.498 372.474 265.581C382.269 251.229 387.698 210.03 387.698 210.03Z" fill="#F28F8F"/>
<path d="M362.877 274.322L370.489 268.198L371.844 258.5L371.388 251.886C364.383 246.775 363.59 239.637 366.94 233.346C369.438 228.631 372.604 224.266 376.35 220.374C381.02 215.041 385.912 210.988 387.698 210.03L394.178 211.389L411.993 215.397L419.699 217.88C415.461 222.846 413.966 231.787 416.196 239.927C418.426 248.066 422.851 249.18 422.851 249.18L423.668 253.7C423.584 258.274 423.194 262.837 422.501 267.363C421.462 273.131 420.808 280.29 420.808 280.29C420.808 280.29 421.707 291.358 420.808 294.442C408.923 297.783 388.877 297.103 376.268 289.71C363.893 282.406 362.877 274.322 362.877 274.322Z" fill="#0F4C75"/>
<path d="M344.384 261.072C341.944 260.493 340.508 263.154 340.882 267.463C341.256 271.772 344.256 279.711 351.144 277.384C358.032 275.057 344.384 261.072 344.384 261.072Z" fill="#F28F8F"/>
<path d="M367.209 253.032C366.788 251.997 365.528 251.106 363.426 250.538C357.825 249.341 351.959 250.099 346.895 252.676C345.038 253.79 344.069 254.903 343.952 256.016H343.882C344.104 263.165 346.591 271.16 349.86 275.324C349.877 275.355 349.896 275.385 349.918 275.413V275.48C350.558 276.23 351.396 276.803 352.347 277.139C354.425 277.829 356.644 278.042 358.824 277.761C361.005 277.481 363.085 276.715 364.897 275.524C365.722 274.957 366.371 274.187 366.777 273.298C366.782 273.276 366.782 273.253 366.777 273.231C366.781 273.194 366.781 273.156 366.777 273.119C368.762 268.265 368.913 259.936 367.139 252.999L367.209 253.032Z" fill="#F5F5F5"/>
<path d="M363.426 250.538C368.271 251.841 368.703 254.914 364.407 257.397C359.34 259.98 353.468 260.739 347.864 259.535C343.03 258.232 342.598 255.159 346.895 252.676C351.959 250.099 357.825 249.341 363.426 250.538Z" fill="#FAFAFA"/>
<path d="M362.002 251.941C365.866 252.698 366.146 254.703 362.632 256.395C358.457 258.189 353.825 258.788 349.3 258.121C345.435 257.353 345.155 255.348 348.657 253.667C352.834 251.863 357.472 251.263 362.002 251.941Z" fill="#E6E6E6"/>
<path d="M362.422 254.647C363.112 254.761 363.778 254.979 364.395 255.293C363.881 255.744 363.298 256.119 362.667 256.406C358.492 258.2 353.86 258.799 349.335 258.132C348.646 258.01 347.98 257.789 347.362 257.475C347.872 257.024 348.45 256.648 349.078 256.362C353.257 254.566 357.894 253.97 362.422 254.647Z" fill="#0F4C75"/>
<path d="M431.42 282.896C433.884 273.119 435.647 264.947 438.11 243.367C439.78 228.781 435.775 222.434 419.699 217.88C406.856 231.709 418.882 246.83 418.882 246.83L415.379 273.787C415.379 273.787 379.316 271.215 376.514 269.656C374.179 268.376 371.528 260.827 368.82 260.949C368.924 262.625 368.924 264.306 368.82 265.982C368.89 267.04 362.982 269.523 357.145 269.322C351.308 269.122 345.388 265.191 346.754 270.202C347.291 272.195 348.319 275.948 351.588 278.386C354.857 280.825 366.532 281.515 369.871 282.84C369.871 282.84 399.163 289.009 411.316 291.135C421.111 292.828 428.478 294.654 431.42 282.896Z" fill="#FFA8A7"/>
<path d="M391.306 156.851C411.935 149.814 426.33 160.292 429.669 172.762C431.899 181.08 428.502 190.144 423.47 196.212C421.745 198.484 419.815 200.607 417.703 202.559C415.624 204.351 413.605 205.899 412.215 206.01L412.519 200.443C409.443 201.873 406.036 202.533 402.619 202.358L397.307 202.147C384.686 201.646 379.596 190.11 374.634 176.047C369.766 162.262 381.674 160.136 391.306 156.851Z" fill="#263238"/>
<path d="M386.717 165.224C383.612 166.772 378.428 173.186 378.405 188.351C378.405 200.922 382.526 204.986 384.663 206.011C386.799 207.035 390.08 206.924 394.224 206.478L394.154 212.725C387.698 219.773 400.622 223.169 409.203 219.662C410.429 219.15 412.005 217.758 412.04 216.756L412.636 197.938C413.735 198.448 414.979 198.605 416.18 198.386C417.381 198.168 418.476 197.585 419.302 196.724C422.349 193.451 423.365 188.551 420.878 185.868C418.391 183.184 414.095 184.075 411.993 186.736C411.993 186.736 406.53 186.547 398.065 181.537C389.601 176.526 387.99 170.97 386.717 165.224Z" fill="#FFA8A7"/>
<path d="M411.993 186.736V192.805C410.794 192.805 409.644 192.351 408.795 191.543C407.945 190.736 407.467 189.64 407.464 188.496V181.247L411.993 186.736Z" fill="#263238"/>
<path d="M380.903 180.791L384.826 179.421C384.745 179.173 384.612 178.943 384.434 178.746C384.257 178.548 384.039 178.387 383.794 178.273C383.55 178.158 383.283 178.092 383.011 178.079C382.739 178.066 382.467 178.106 382.211 178.196C381.688 178.389 381.262 178.765 381.019 179.247C380.776 179.729 380.735 180.281 380.903 180.791Z" fill="#263238"/>
<path d="M394.341 196L388.165 197.114C388.219 197.497 388.353 197.866 388.56 198.198C388.767 198.53 389.043 198.819 389.37 199.047C389.697 199.275 390.07 199.437 390.465 199.524C390.859 199.611 391.269 199.621 391.667 199.553C392.51 199.408 393.26 198.956 393.759 198.293C394.258 197.63 394.467 196.808 394.341 196Z" fill="#B16668"/>
<path d="M389.368 183.485L389.309 194.018L383.962 192.348L389.368 183.485Z" fill="#F28F8F"/>
<path d="M394.224 206.478C398.579 206.155 407.627 204.173 409.203 200.911C408.549 202.579 407.376 204.017 405.841 205.031C403.051 207.068 394.166 209.217 394.166 209.217L394.224 206.478Z" fill="#F28F8F"/>
<path d="M393.944 197.971C393.561 197.622 393.077 197.39 392.555 197.303C391.906 197.199 391.24 197.33 390.687 197.67C390.134 198.01 389.734 198.534 389.566 199.141C390.203 199.528 390.972 199.667 391.714 199.53C392.184 199.446 392.629 199.262 393.015 198.992C393.401 198.723 393.718 198.374 393.944 197.971Z" fill="#F28F8F"/>
<path d="M393.267 184.933C393.318 185.511 393.573 186.055 393.991 186.477C394.408 186.899 394.963 187.173 395.566 187.254C396.168 187.336 396.781 187.22 397.305 186.926C397.829 186.631 398.233 186.176 398.451 185.634C397.646 186.142 396.674 186.351 395.719 186.221C394.764 186.092 393.892 185.634 393.267 184.933Z" fill="#263238"/>
<path d="M380.203 184.098C380.304 184.664 380.6 185.181 381.045 185.568C381.49 185.954 382.057 186.188 382.657 186.231C383.257 186.275 383.855 186.126 384.356 185.808C384.857 185.49 385.232 185.021 385.422 184.476C384.658 185.033 383.707 185.303 382.748 185.233C381.784 185.159 380.88 184.756 380.203 184.098Z" fill="#263238"/>
<path d="M475.785 349.604L458.786 275.948L450.509 282.706L472.691 350.739C472.835 351.043 473.076 351.297 473.38 351.463C473.669 351.637 474.008 351.72 474.349 351.701C474.69 351.682 475.016 351.561 475.281 351.356C475.547 351.15 475.738 350.871 475.828 350.557C475.919 350.243 475.903 349.909 475.785 349.604Z" fill="#0F4C75"/>
<path d="M452.4 266.171L386.799 315.81C384.484 317.568 382.571 319.759 381.178 322.248C379.785 324.737 378.94 327.472 378.697 330.285L370.921 407.114C370.9 407.352 370.95 407.59 371.065 407.801C371.181 408.012 371.358 408.187 371.575 408.306C371.76 408.41 371.968 408.469 372.183 408.479C372.397 408.489 372.611 408.449 372.805 408.362C372.999 408.276 373.169 408.145 373.298 407.982C373.428 407.819 373.513 407.628 373.548 407.426L386.391 335.151C386.894 332.289 388.025 329.56 389.709 327.143C391.393 324.725 393.592 322.674 396.162 321.121L452.12 287.383C454.562 285.909 456.598 283.899 458.058 281.52C459.519 279.142 460.362 276.465 460.516 273.713C460.67 270.961 460.132 268.214 458.945 265.701C457.759 263.188 455.959 260.982 453.696 259.268L452.4 266.171Z" fill="#455A64"/>
<path d="M460.689 313.883C462.639 318.159 461.448 323.148 457.187 325.475L390.232 362.342C389.372 362.81 388.391 363.037 387.402 362.996C386.412 362.955 385.456 362.647 384.642 362.109C383.828 361.571 383.191 360.824 382.805 359.955C382.418 359.085 382.297 358.129 382.456 357.197L377.307 386.148C377.769 383.628 378.8 381.235 380.328 379.134C381.856 377.032 383.845 375.273 386.157 373.977L460.596 332.991C461.528 332.475 462.564 332.154 463.636 332.048C464.708 331.942 465.791 332.054 466.815 332.376C467.838 332.698 468.778 333.222 469.574 333.916C470.369 334.609 471.002 335.455 471.43 336.398L460.689 313.883Z" fill="#0F4C75"/>
<path d="M457.7 391.203C448.722 382.451 443.445 356.362 452.202 349.425H496.799C505.567 356.362 500.302 382.44 491.312 391.192L491.067 391.437L490.764 391.715C490.505 391.959 490.232 392.19 489.946 392.405L489.736 392.572L489.047 393.062C488.675 393.321 488.285 393.556 487.88 393.764C480.49 397.839 468.5 397.839 461.109 393.764C460.706 393.549 460.316 393.311 459.942 393.051C459.72 392.906 459.51 392.75 459.312 392.595C459.217 392.534 459.127 392.467 459.043 392.394C458.763 392.183 458.506 391.96 458.261 391.737L457.899 391.403L457.7 391.203Z" fill="#BBE1FA"/>
<g opacity="0.5">
<path opacity="0.5" d="M457.7 391.203C448.722 382.451 443.445 356.362 452.202 349.425H496.799C505.567 356.362 500.302 382.44 491.312 391.192L491.067 391.437L490.764 391.715C490.505 391.959 490.232 392.19 489.946 392.405L489.736 392.572L489.047 393.062C488.675 393.321 488.285 393.556 487.88 393.764C480.49 397.839 468.5 397.839 461.109 393.764C460.706 393.549 460.316 393.311 459.942 393.051C459.72 392.906 459.51 392.75 459.312 392.595C459.217 392.534 459.127 392.467 459.043 392.394C458.763 392.183 458.506 391.96 458.261 391.737L457.899 391.403L457.7 391.203Z" fill="white"/>
</g>
<path d="M492.935 346.631C503.104 352.198 503.104 361.317 492.935 366.929C482.766 372.541 466.258 372.497 456.078 366.929C445.897 361.362 445.909 352.231 456.078 346.631C466.246 341.03 482.755 341.03 492.935 346.631Z" fill="#BBE1FA"/>
<g opacity="0.7">
<path opacity="0.7" d="M492.935 346.631C503.104 352.198 503.104 361.317 492.935 366.929C482.766 372.541 466.258 372.497 456.078 366.929C445.897 361.362 445.909 352.231 456.078 346.631C466.246 341.03 482.755 341.03 492.935 346.631Z" fill="white"/>
</g>
<path d="M488.043 349.325C495.515 353.445 495.515 360.115 488.043 364.235C480.571 368.354 468.465 368.343 460.981 364.235C453.498 360.126 453.509 353.445 460.981 349.325C468.453 345.205 480.56 345.217 488.043 349.325Z" fill="#BBE1FA"/>
<g opacity="0.2">
<path opacity="0.2" d="M488.043 349.325C495.515 353.445 495.515 360.115 488.043 364.235C480.571 368.354 468.465 368.343 460.981 364.235C453.498 360.126 453.509 353.445 460.981 349.325C468.453 345.205 480.56 345.217 488.043 349.325Z" fill="white"/>
</g>
<path d="M460.981 356.396C468.453 352.287 480.56 352.287 488.032 356.396C489.842 357.33 491.382 358.676 492.515 360.315C491.382 361.954 489.842 363.301 488.032 364.235C480.56 368.343 468.453 368.343 460.981 364.235C459.171 363.301 457.631 361.954 456.498 360.315C457.631 358.676 459.171 357.33 460.981 356.396Z" fill="#F5F5F5"/>
<path d="M469.294 340.362C468.81 339.453 468.457 338.487 468.243 337.489C467.952 336.3 468.002 335.059 468.388 333.895C468.774 332.731 469.482 331.688 470.438 330.875C471.255 330.285 472.306 329.851 472.644 328.938C472.796 328.421 472.796 327.874 472.644 327.356C472.271 325.308 471.547 323.203 472.142 321.21C472.472 320.299 472.999 319.465 473.689 318.761C474.379 318.057 475.216 317.499 476.147 317.124C478.011 316.377 479.976 315.886 481.984 315.665C483.055 315.555 484.098 315.268 485.066 314.819C486.234 314.206 486.572 313.126 487.296 312.169C488.123 311.111 489.071 310.143 490.121 309.285C492.223 307.503 494.85 306.022 497.757 306.145C503.816 306.401 503.653 311.378 501.901 315.153C500.15 318.928 499.683 320.163 503.477 324.061C507.272 327.958 507.272 332.835 502.754 335.552C498.235 338.269 495.293 338.625 497.08 343.847C498.679 348.512 499.671 352.499 495.153 357.476C493.734 359.183 491.919 360.553 489.85 361.478C487.782 362.404 485.517 362.859 483.233 362.809C481.23 362.658 479.262 362.219 477.396 361.507C476.018 360.85 476.941 359.836 476.474 358.545L473.485 350.194C472.834 347.961 472.055 345.764 471.15 343.613C470.543 342.533 469.831 341.42 469.294 340.362Z" fill="#BBE1FA"/>
<g opacity="0.25">
<path opacity="0.25" d="M469.294 340.362C468.81 339.453 468.457 338.487 468.243 337.489C467.952 336.3 468.002 335.059 468.388 333.895C468.774 332.731 469.482 331.688 470.438 330.875C471.255 330.285 472.306 329.851 472.644 328.938C472.796 328.421 472.796 327.874 472.644 327.356C472.271 325.308 471.547 323.203 472.142 321.21C472.472 320.299 472.999 319.465 473.689 318.761C474.379 318.057 475.216 317.499 476.147 317.124C478.011 316.377 479.976 315.886 481.984 315.665C483.055 315.555 484.098 315.268 485.066 314.819C486.234 314.206 486.572 313.126 487.296 312.169C488.123 311.111 489.071 310.143 490.121 309.285C492.223 307.503 494.85 306.022 497.757 306.145C503.816 306.401 503.653 311.378 501.901 315.153C500.15 318.928 499.683 320.163 503.477 324.061C507.272 327.958 507.272 332.835 502.754 335.552C498.235 338.269 495.293 338.625 497.08 343.847C498.679 348.512 499.671 352.499 495.153 357.476C493.734 359.183 491.919 360.553 489.85 361.478C487.782 362.404 485.517 362.859 483.233 362.809C481.23 362.658 479.262 362.219 477.396 361.507C476.018 360.85 476.941 359.836 476.474 358.545L473.485 350.194C472.834 347.961 472.055 345.764 471.15 343.613C470.543 342.533 469.831 341.42 469.294 340.362Z" fill="#BBE1FA"/>
</g>
<path d="M477.548 361.518C477.637 361.489 477.713 361.433 477.766 361.358C477.819 361.284 477.845 361.195 477.84 361.106C477.594 332.534 494.103 315.453 494.266 315.298C494.351 315.216 494.398 315.106 494.398 314.991C494.398 314.877 494.351 314.767 494.266 314.685C494.225 314.645 494.176 314.614 494.122 314.592C494.067 314.571 494.009 314.56 493.951 314.56C493.892 314.56 493.834 314.571 493.78 314.592C493.726 314.614 493.677 314.645 493.636 314.685C493.46 314.852 476.707 332.144 476.964 361.095C476.964 361.151 476.976 361.207 476.999 361.259C477.022 361.311 477.056 361.358 477.098 361.398C477.14 361.437 477.191 361.468 477.246 361.489C477.301 361.509 477.36 361.519 477.419 361.518H477.548Z" fill="white"/>
<path d="M482.346 334.939H482.439C487.81 331.71 497.407 329.305 497.5 329.283C497.603 329.244 497.688 329.171 497.738 329.077C497.789 328.983 497.802 328.874 497.774 328.772C497.747 328.67 497.682 328.58 497.591 328.521C497.499 328.461 497.388 328.435 497.278 328.448C496.881 328.548 487.46 330.908 481.972 334.204C481.883 334.262 481.818 334.348 481.788 334.447C481.759 334.546 481.767 334.652 481.812 334.745C481.857 334.839 481.936 334.914 482.033 334.958C482.131 335.002 482.242 335.011 482.346 334.984V334.939Z" fill="white"/>
<path d="M484.016 331.02C484.124 330.975 484.21 330.893 484.256 330.789C484.302 330.685 484.304 330.568 484.261 330.463C483.002 327.602 481.332 324.923 479.299 322.502C479.221 322.416 479.112 322.363 478.993 322.355C478.875 322.347 478.758 322.383 478.668 322.457C478.579 322.531 478.523 322.636 478.515 322.749C478.506 322.861 478.544 322.973 478.622 323.059C480.583 325.416 482.201 328.015 483.432 330.786C483.478 330.89 483.565 330.972 483.674 331.015C483.783 331.059 483.905 331.061 484.016 331.02Z" fill="white"/>
<path d="M473.333 364.613C469.068 365.878 464.527 366.039 460.176 365.081C452.634 363.522 448.01 356.797 448.01 356.797C448.01 356.797 456.183 353.679 460.934 353.367C456.188 352.691 451.355 352.793 446.644 353.668C446.644 353.668 442.266 352.109 443.142 345.072C443.142 345.072 447.251 342.188 456.72 343.312C452.745 340.993 448.262 339.583 443.621 339.193C442.967 339.193 443.842 330.029 444.636 325.942C445.43 321.856 447.1 320.82 450.474 321.166C453.848 321.511 463.83 325.374 465.102 327.724C466.375 330.073 465.102 336.086 465.102 336.086C466.856 333.801 467.826 331.056 467.881 328.225C469.973 328.954 471.94 329.975 473.718 331.254C475.238 332.427 476.473 333.901 477.338 335.574C476.859 338.792 475.271 343.702 473.053 346.441C476.175 344.347 478.369 341.219 479.206 337.667C481.689 340.927 483.078 344.829 483.187 348.858C483.187 355.995 479.836 361.34 473.333 364.613Z" fill="#BBE1FA"/>
<path opacity="0.1" d="M473.333 364.613C469.068 365.878 464.527 366.039 460.176 365.081C452.634 363.522 448.01 356.797 448.01 356.797C448.01 356.797 456.183 353.679 460.934 353.367C456.188 352.691 451.355 352.793 446.644 353.668C446.644 353.668 442.266 352.109 443.142 345.072C443.142 345.072 447.251 342.188 456.72 343.312C452.745 340.993 448.262 339.583 443.621 339.193C442.967 339.193 443.842 330.029 444.636 325.942C445.43 321.856 447.1 320.82 450.474 321.166C453.848 321.511 463.83 325.374 465.102 327.724C466.375 330.073 465.102 336.086 465.102 336.086C466.856 333.801 467.826 331.056 467.881 328.225C469.973 328.954 471.94 329.975 473.718 331.254C475.238 332.427 476.473 333.901 477.338 335.574C476.859 338.792 475.271 343.702 473.053 346.441C476.175 344.347 478.369 341.219 479.206 337.667C481.689 340.927 483.078 344.829 483.187 348.858C483.187 355.995 479.836 361.34 473.333 364.613Z" fill="#BBE1FA"/>
<path d="M474.337 363.967C474.261 363.941 474.195 363.894 474.145 363.833C474.096 363.772 474.065 363.699 474.057 363.622C472.889 349.982 456.918 328.682 449.843 324.406C449.747 324.344 449.679 324.249 449.655 324.141C449.631 324.033 449.653 323.92 449.715 323.827C449.744 323.782 449.783 323.743 449.829 323.713C449.874 323.682 449.926 323.661 449.98 323.649C450.034 323.638 450.09 323.637 450.145 323.646C450.2 323.656 450.252 323.675 450.299 323.704C457.49 328.047 473.753 349.693 474.909 363.555C474.919 363.663 474.884 363.77 474.812 363.853C474.74 363.936 474.636 363.989 474.524 364.001C474.46 364.002 474.396 363.99 474.337 363.967Z" fill="white"/>
<path d="M447.018 190.622C447.162 190.551 447.322 190.512 447.485 190.511H455.821L459.323 192.415L457.338 204.875L453.836 202.971L450.847 199.686V207.803L448.512 206.99L438.367 196.602C438.278 196.505 438.213 196.391 438.177 196.267C438.14 196.143 438.132 196.013 438.155 195.887C438.177 195.76 438.229 195.639 438.306 195.534C438.383 195.428 438.483 195.341 438.6 195.277L447.018 190.622Z" fill="#BBE1FA"/>
<path d="M450.871 207.803L448.536 206.99L438.39 196.602C438.276 196.476 438.203 196.321 438.178 196.157C438.153 195.992 438.179 195.824 438.251 195.673C438.324 195.521 438.44 195.393 438.587 195.303C438.734 195.213 438.905 195.165 439.079 195.165H448.536L450.871 197.069V207.803Z" fill="#BBE1FA"/>
<path opacity="0.2" d="M450.871 207.803L448.536 206.99L438.39 196.602C438.276 196.476 438.203 196.321 438.178 196.157C438.153 195.992 438.179 195.824 438.251 195.673C438.324 195.521 438.44 195.393 438.587 195.303C438.734 195.213 438.905 195.165 439.079 195.165H448.536L450.871 197.069V207.803Z" fill="#BBE1FA"/>
<path d="M448.512 185.367C448.589 184.049 448.989 182.767 449.68 181.624C450.372 180.48 451.335 179.508 452.493 178.786C453.727 178.187 455.091 177.876 456.475 177.876C457.858 177.876 459.222 178.187 460.456 178.786L497.815 199.196C498.976 199.917 499.942 200.888 500.636 202.031C501.33 203.175 501.731 204.458 501.808 205.777V235.106C501.731 236.425 501.33 237.708 500.636 238.851C499.942 239.995 498.976 240.966 497.815 241.686C496.58 242.285 495.214 242.597 493.828 242.597C492.443 242.597 491.077 242.285 489.841 241.686L452.132 221.02C448.547 219.072 448.524 217.112 448.524 214.696L448.512 185.367Z" fill="#BBE1FA"/>
<path opacity="0.2" d="M448.512 185.367C448.589 184.049 448.989 182.767 449.68 181.624C450.372 180.48 451.335 179.508 452.493 178.786C453.727 178.187 455.091 177.876 456.475 177.876C457.858 177.876 459.222 178.187 460.456 178.786L497.815 199.196C498.976 199.917 499.942 200.888 500.636 202.031C501.33 203.175 501.731 204.458 501.808 205.777V235.106C501.731 236.425 501.33 237.708 500.636 238.851C499.942 239.995 498.976 240.966 497.815 241.686C496.58 242.285 495.214 242.597 493.828 242.597C492.443 242.597 491.077 242.285 489.841 241.686L452.132 221.02C448.547 219.072 448.524 217.112 448.524 214.696L448.512 185.367Z" fill="#BBE1FA"/>
<path opacity="0.2" d="M501.785 235.117C501.708 236.436 501.307 237.719 500.613 238.862C499.919 240.005 498.953 240.977 497.792 241.697C496.668 242.239 495.437 242.548 494.18 242.604C492.922 242.659 491.666 242.461 490.495 242.02C492.375 242.699 493.799 241.675 493.799 239.504V210.175C493.753 208.853 493.351 207.565 492.632 206.434L500.605 202.047C501.321 203.179 501.723 204.467 501.773 205.788L501.785 235.117Z" fill="#BBE1FA"/>
<path d="M448.641 184.295C449.108 182.681 450.649 182.157 452.493 183.182L489.853 203.603C491.034 204.299 492.004 205.278 492.667 206.442L500.629 202.066C499.966 200.902 498.996 199.923 497.815 199.227L460.491 178.85C459.254 178.257 457.888 177.948 456.504 177.948C455.119 177.948 453.754 178.257 452.517 178.85C451.517 179.46 450.658 180.257 449.992 181.193C449.325 182.129 448.866 183.184 448.641 184.295Z" fill="#BBE1FA"/>
<path d="M463.188 208.794C463.188 210.587 461.868 211.311 460.234 210.42C459.374 209.886 458.659 209.166 458.146 208.318C457.632 207.471 457.336 206.52 457.28 205.543C457.28 203.75 458.599 203.026 460.234 203.917C461.094 204.451 461.809 205.172 462.322 206.019C462.835 206.866 463.132 207.817 463.188 208.794Z" fill="#FAFAFA"/>
<path d="M473.24 216.622C474.39 215.989 474.389 213.934 473.238 212.033C472.088 210.132 470.222 209.104 469.072 209.737C467.921 210.371 467.922 212.425 469.073 214.327C470.224 216.228 472.089 217.256 473.24 216.622Z" fill="#FAFAFA"/>
<path d="M485.008 220.831C485.008 222.624 483.689 223.347 482.054 222.457C481.194 221.922 480.479 221.202 479.966 220.355C479.453 219.508 479.156 218.557 479.1 217.58C479.1 215.787 480.42 215.052 482.054 215.954C482.914 216.488 483.629 217.208 484.142 218.056C484.656 218.903 484.952 219.854 485.008 220.831Z" fill="#FAFAFA"/>
</svg>
